<?xml version="1.0" encoding="utf-8"?>
<!-- Generator: Adobe Illustrator 25.2.0, SVG Export Plug-In . SVG Version: 6.00 Build 0)  -->
<svg version="1.1" id="Capa_1" xmlns="http://www.w3.org/2000/svg" xmlns:xlink="http://www.w3.org/1999/xlink" x="0px" y="0px"
	 viewBox="0 0 375 373" style="enable-background:new 0 0 375 373;" xml:space="preserve">
<style type="text/css">
	.st0{opacity:0.75;}
	.st1{fill:none;stroke:#FFFFFF;stroke-miterlimit:10;}
</style>
<g class="st0">
	<path class="st1" d="M371.8,203.1c0,45.8,0,91.7,0,137.5c-0.3,1.1-0.5,2.3-0.8,3.4c-1.1,4.8-2,9.6-3.5,14.2
		c-2,6.5-6.9,10.1-13.4,10.9c-4.2,0.5-8.8,0.7-12.7-0.6c-6.7-2-12.9-5.3-19.8-8.2c-4.9,5.3-11.5,9.3-19.8,9.3
		c-8.2,0-14.6-4.7-20.4-9.8c-1.9,1.2-3.5,2.3-5.2,3.2c-7.8,4.5-16.1,7.5-25.3,6.1c-2.5-0.4-4.9-1.6-7.3-1.5
		c-10.1,0.1-18.7-3.4-26.3-9.8c-0.6-0.5-1.3-0.9-2-1.4c-4.9,7.7-11.2,13.1-20.5,13c-9.3-0.1-15.2-6.6-20.8-13.2
		c-9.5,8.5-20.1,12.9-32.8,10.6c-0.5-0.1-1.2,0-1.7,0.2c-8.9,4.7-17.3,2.4-25.3-2.1c-5-2.8-9.6-6.3-14.4-9.5
		c-5.5,6.1-12.4,10.1-20.9,10c-8.5-0.1-14.9-5.1-20.9-10.7c-1.1,0.9-2,1.6-2.9,2.4c-6,4.8-12.3,9.2-19.8,11.3
		c-11.9,3.5-20.8-0.6-25.7-12c-4.8-11.2-6.1-23-6.5-35.1c-0.3-9.2,1.7-17.5,6.3-25.4c1.9-3.3,3.8-6.7,5.5-10.1c0.5-1,1-2.2,0.8-3.3
		c-1.4-11-3-22.1-4.4-33.1c-2-15.7-4.7-31.3-3.9-47.2c1.1-23.5,1.8-46.9,3.1-70.4c0.7-13.2,4.7-25.7,12.5-36.6
		c6-8.4,12.4-16.4,18.5-24.7c2-2.7,4.4-5.5,5.1-8.6c1.6-7.3,2.4-14.9,3.4-22.3c0.1-0.7-0.3-1.6-0.5-2.3c-0.7-2.3-2-4.5-2.2-6.8
		c-0.3-4.4-0.1-8.9-0.1-13.3c0.1-8.9,5.3-14.2,14.1-14.2c11.9-0.1,23.7-0.1,35.6,0c8.7,0,13.9,5.2,14,13.9c0.1,5,0.2,10.1-0.1,15.1
		c-0.1,1.7-1,3.3-1.6,4.9c-0.5,1.4-1.6,2.9-1.6,4.3c0.6,14,4.1,26.7,14.3,37.2c6,6.2,10.5,13.8,15.3,20.3
		c9.5-12.4,19.2-24.9,28.8-37.4c0.5-0.6,0.8-1.5,0.8-2.3c0.1-6.2,0.1-12.5,0-18.7c0-0.6,0-1.4-0.3-1.7c-2.7-2.3-2.1-5.4-2.1-8.4
		c0-4.6,0-9.1,0-13.7c0.1-7.8,5.1-13.3,12.9-13.4c11.6-0.2,23.3-0.2,34.9,0c7.6,0.1,12.5,5.3,12.7,12.8c0.1,5.9,0.1,11.8,0,17.6
		c0,0.9,0.1,2.3-0.4,2.8c-2.9,2.7-1.5,6.2-2,9.4c-1.5,10,1.2,18.4,8.8,25.4c3,2.8,5.2,6.4,8,10.1c3.9-9.8,11.2-15.4,19.4-20.2
		c3.9-2.3,8.1-4.1,11.9-6.6c1.7-1.1,3.3-3.3,3.6-5.2c0.7-4.5,0.7-9.1,0.8-13.6c0-1-0.8-2-1.3-3c-0.7-1.7-2-3.3-2.1-5
		c-0.3-3.4-0.2-6.9-0.1-10.4c0.2-6.7,5-12.1,11.6-12.3c12.3-0.3,24.7-0.1,37.1,0c4.3,0,7.7,2.2,9.7,5.9c3.5,6.2,1.9,13,1.5,19.7
		c0,0.3-0.2,0.8-0.5,0.9c-2.8,1.7-2.4,4.5-2.4,7c0,2.9,0.4,5.8,0.3,8.6c-0.1,3.7,1.7,6,4.8,7.7c5.3,2.9,10.7,5.8,15.8,9.2
		c14.5,9.6,19.1,20.7,15,37.6c-2,8.1-4.9,16-7.6,23.9c-2.5,7.5-2.4,14.8,0.1,22.5c3.9,11.8,7.3,23.8,10.6,35.7
		C369.6,190.2,370.5,196.7,371.8,203.1z M17.5,224.8c0.1,1.5,0.1,2.8,0.2,4c2.1,15.2,4,30.4,6.2,45.5c1,7.1,1.6,13.6-3.1,20.1
		c-3.6,5-6.9,11.1-7.9,17.1c-2.3,14.4-0.2,28.7,5.2,42.3c2.4,6.1,7,8,13.4,6.6c6.5-1.5,11.7-5.3,16.9-9.2c2.7-2,4.9-3.8,2.5-7.5
		c-0.5-0.7-0.4-1.9-0.5-2.8c-0.1-2.4,0.9-4.2,3.4-4.8c2.7-0.5,4.6,0.7,5.3,3.2c2.1,7.8,7.7,12.6,14.6,15.8c2.8,1.3,6.6,1.4,9.7,0.7
		c8.3-2,12.3-8.5,15.1-16c1-2.9,2.9-4.4,6.1-3.5c2.5,0.7,3.4,3.4,2.4,6.5c-0.3,0.9-0.9,1.8-1,2.7c-0.1,1,0,2.6,0.6,3
		c5.7,3.8,11.4,7.8,17.5,11c2.4,1.3,5.8,0.9,9.3,1.4c-1.1-3.5-2.2-5.8-2.6-8.2c-1.4-9.3-2.8-18.7-3.8-28.1
		c-1.4-13-1.5-25.7,4.7-37.9c4.5-8.8,5.5-18.3,3.2-28c-2.7-11.3-8.2-22-7.7-34C90.3,224.8,54,224.8,17.5,224.8z M135.8,229.9
		c1.6,5.5,3,10.7,4.6,15.8c3.1,9.9,6.2,19.8,3.8,30.3c-1.4,6.3-4.1,12.2-5.9,18.4c-1.4,5.2-3.1,10.7-3.2,16c-0.2,8,0.6,16,1.5,24
		c0.7,6.3,1.8,12.5,3.4,18.7c1.2,4.7,3,5.6,7.8,5.6c6.9,0,12.8-2.8,18-7c2.3-1.8,4.2-3.7,3.6-7.1c-0.4-2.5,1.4-4.1,3.8-4.4
		c2.4-0.3,4.3,1,4.7,3.4c1.1,5.7,4.6,9.7,8.7,13.3c6.6,5.7,12.8,5.3,18.3-1.5c2.3-2.9,3.7-6.6,5.5-10c0.5-0.9,0.5-2.4,1.2-2.9
		c1.4-1,3.4-2.3,4.8-2c1.4,0.3,3.3,2.7,3.2,3.9c-0.4,3.5,1.3,5.6,3.8,7.1c4.2,2.4,8.4,5.2,13,6.5c9.5,2.7,12.7,0.5,14.4-9.3
		c1.4-8.6,2.2-17.3,3.2-26c1.2-11.2,1-22.1-4.3-32.6c-4.4-8.6-6.1-18.1-4.4-27.6c1.3-7.6,3.9-15,5.9-22.5c0.8-3.2,1.5-6.4,2.4-10
		C214.3,229.9,175.6,229.9,135.8,229.9z M363.2,216.7c-0.4-5.4-0.4-10.4-1.1-15.4c-2.5-17.6-7.5-34.6-13.4-51.2
		c-3-8.2-3.2-16.4-0.6-24.6c2.5-7.9,5.3-15.6,7.6-23.5c1.7-6,2.6-12.2,0.3-18.4c-0.7-1.9-1.7-2.8-3.9-2.8c-33.2,0.1-66.4,0-99.6,0.1
		c-1.1,0-2.8,0.5-3.2,1.4c-2.1,4.3-3.3,8.6,0,13.1c2.2,2.9,4.1,6.2,5.9,9.4c3.1,5.5,6.1,11.1,6.2,17.8c0.6,30,1.2,59.9,1.8,89.9
		c0,1.4,0,2.8,0,4.3C296.5,216.7,329.4,216.7,363.2,216.7z M262.4,225.8c0.6,10-3.2,18.6-6,27.5c-3.2,10.3-3.8,20.4,0.5,30.6
		c3.3,7.8,6.9,15.5,6.9,24.3c33.2,0,66,0,98.8,0c0-27.6,0-54.9,0-82.3C329.1,225.8,296.1,225.8,262.4,225.8z M135.4,220.3
		c39.9,0,79,0,118.9,0c-0.4-27.5-0.8-54.8-1.1-82.1c-39.2,0-77.5,0-116.7,0C136.2,165.7,135.8,193,135.4,220.3z M252.1,128.9
		c1.5-8-1.3-14.8-5.5-20.8c-9.5-13.5-19.4-26.8-29.2-40c-0.7-1-2.6-1.5-4-1.6c-8.9-0.1-17.8,0.7-26.6-0.3
		c-9.9-1.1-16.3,2.3-21.6,10.5c-7.9,12.4-16.7,24.3-24.8,36.5c-3.1,4.6-3.2,10.1-3,15.6C175.7,128.9,213.8,128.9,252.1,128.9z
		 M21,123.7c36,0,71.7,0,106.7,0c1.2-4.3,2.5-8.1,3.4-12c0.4-1.7,0.6-3.9-0.3-5.2c-5.8-8.5-11.8-16.9-17.8-25.2
		c-0.6-0.8-2-1.3-3-1.3c-20.6-0.1-41.2-0.1-61.9,0c-1.2,0-2.9,0.7-3.6,1.7C39.4,88.4,34.2,95,29.6,102C25.3,108.5,22,115.6,21,123.7
		z M275.3,353.2c-0.9-2.9-1.8-5.4-2.3-7.9c-0.5-2.6,0.8-4.5,3.4-5.1c2.6-0.6,4.6,0.9,5.2,3.3c1.7,6.7,6.4,10.8,11.7,14.4
		c6.5,4.3,12.5,4,18.6-0.9c2.5-2,4.5-4.6,6.3-7.3c1.4-2,2-4.6,3.2-6.8c1.1-2.3,3-3.6,5.5-2.5c2.5,1.1,3.6,3,2.6,5.8
		c-0.7,1.9-1.4,3.8-2.1,5.8c5.7,4.4,11.9,7.7,19,8.7c7.5,1,11.6-1.1,13.4-7c3.6-11.7,3.6-23.8,3-36.1c-33.2,0-66.1,0-99.2,0
		c-1.5,14.5-1.2,29.2-7.3,43.2C263.6,360,269.7,357.1,275.3,353.2z M127.8,133.1c-0.9-0.1-1.4-0.2-1.8-0.2c-34.5,0-69.1,0-103.6-0.1
		c-2.7,0-3.2,1.3-3.3,3.5c-0.6,10.2-1.4,20.3-2,30.5c-0.3,5.3,0,10.6,0,15.9c5.4-2.9,10.5-5.9,15.8-8.3c14.1-6.5,29.4-8.3,44.6-10
		c17.9-2,33.9-8.9,48.5-19.3c0.8-0.6,1.7-1.8,1.8-2.7C128,139.3,127.8,136.3,127.8,133.1z M126.7,178.1c-1.3,0.6-2.2,0.9-3,1.4
		c-12.6,6.7-26,10.6-40.2,12.4c-10.4,1.3-20.8,3.2-31,5.7c-12.1,3-22.3,9.8-32.6,17.7c36,0,71.3,0,106.8,0
		C126.7,202.8,126.7,190.7,126.7,178.1z M319.7,33.6c-11.9,0-23.6,0-35.7,0c0,4.8,0,9.3,0,13.8c0,6.5-2.4,11.6-8.4,14.7
		c-3.8,2-7.5,4.2-11.3,6.3c-1.6,0.9-3.2,2-5.4,3.4c29.2,0,57.4,0,86.5,0c-2.2-1.4-3.6-2.4-5.1-3.3c-4.2-2.5-8.5-4.9-12.7-7.4
		c-4.3-2.5-6.5-6.2-6.8-11.1C320.4,44.7,320,39.2,319.7,33.6z M59.6,38.4c-1.8,11-1.5,22.2-6.6,32.4c17.5,0,34.6,0,51.9,0
		c-5.2-10.4-4.7-21.7-6.6-32.4C85.2,38.4,72.4,38.4,59.6,38.4z M127.1,155.3c-2.2,1.3-3.8,2.2-5.4,3.2C104.3,169.2,85,173.1,65,175
		c-17.1,1.7-32.8,7.7-46.6,18c-0.8,0.6-1.7,1.6-1.8,2.4c-0.2,3.4-0.1,6.8-0.1,10.5c0.9-0.4,1.2-0.4,1.5-0.6
		c19-14.7,41-20.5,64.4-22.5c15.1-1.3,29.1-6.4,42.1-14.2c1.1-0.6,2.3-2,2.4-3.1C127.3,162.4,127.1,159.1,127.1,155.3z M216.3,30.2
		c0-4.8,0.1-9.2,0-13.7c0-2.4-1.2-4.2-3.9-4.2c-11.7,0-23.4-0.1-35.2,0.1c-1.2,0-3.3,1.7-3.4,2.8c-0.4,4.9-0.2,9.9-0.2,15
		C188.1,30.2,202,30.2,216.3,30.2z M56.5,28.9c15.4,0,30.3,0,45.5,0c0-4.5,0.1-8.8,0-13.1c0-2.3-1.4-3.5-3.7-3.5
		c-12.7,0-25.4,0-38.1,0c-2.3,0-3.6,1.2-3.7,3.5C56.4,20.1,56.5,24.4,56.5,28.9z M213.4,39.4c-12.7,0-24.9,0-37.2,0c0,6.1,0,12,0,18
		c12.5,0,24.8,0,37.2,0C213.4,51.3,213.4,45.5,213.4,39.4z M323.1,24.5c0-1.6,0-2.9,0-4.3c0-5.8-0.6-6.4-6.4-6.4
		c-8.9,0-17.8,0-26.6,0c-9.6,0-9.9,0.3-9.2,10c0,0.2,0.2,0.4,0.4,0.7C295.1,24.5,308.8,24.5,323.1,24.5z"/>
	<path class="st1" d="M191.2,194c-6.3-0.2-12.7-2.2-18.1-6.9c-8.5-7.5-8.3-19,0.5-26.2c10.2-8.4,28-8.8,38.7-1
		c10.8,8,10.5,21.3-0.5,28.9C206.3,192.6,199,194.5,191.2,194z M194,163.4c-6,0-11.1,1.2-15.2,4.9c-3.9,3.6-3.8,8.3,0.1,11.9
		c6.9,6.4,21.9,6.5,29,0.2c4.6-4.1,4.5-8.9-0.4-12.8C203.3,164.4,198.5,163.3,194,163.4z"/>
</g>
</svg>
