<?xml version="1.0" encoding="utf-8"?>
<!-- Generator: Adobe Illustrator 25.2.0, SVG Export Plug-In . SVG Version: 6.00 Build 0)  -->
<svg version="1.1" id="Capa_1" xmlns="http://www.w3.org/2000/svg" xmlns:xlink="http://www.w3.org/1999/xlink" x="0px" y="0px"
	 viewBox="0 0 375 373" style="enable-background:new 0 0 375 373;" xml:space="preserve">
<style type="text/css">
	.st0{opacity:0.75;}
	.st1{fill:none;stroke:#FFFFFF;stroke-miterlimit:10;}
</style>
<g class="st0">
	<path class="st1" d="M169.4,366.4c-6.7-2.2-13.8-3.6-20.1-6.8c-13.9-7-22.9-18.6-27.7-33.3c-2.7-8.3-5.2-16.7-8.3-24.9
		c-4.5-11.8-12.4-21.1-22.6-28.4c-14.6-10.5-27.3-22.7-36.6-38.2c-10.3-17.2-15.9-35.8-16.5-55.8c-0.5-15.1-0.4-30.2-0.1-45.3
		c0.9-39.8,31.1-74.8,70.4-82c42.9-7.8,86.7,11.8,109.3,48.9c0.5,0.8,1,1.6,1.4,2.4c1.3,2.8,0.6,5.7-1.7,7.1c-2.5,1.6-5.5,1-7.4-1.6
		c-1.4-2-2.6-4.2-4-6.2c-15.9-22.7-37.7-36.4-65-40.5c-26.2-3.9-50.1,1.7-69.5,20.7c-15.1,14.8-22.7,32.9-22.8,54
		c-0.1,15-0.4,30,0.4,44.9c1.5,27.8,12.9,51.4,33.2,70.5c5.2,4.9,11,9.1,16.6,13.4c13.2,10,22.3,22.8,27.3,38.6
		c2.3,7.1,4.5,14.3,6.9,21.3c7,20,26.4,32,46.4,30.3c22.5-1.9,39.5-17.6,42.3-39.1c1.1-8.8,0.5-17.7,0.8-26.6c0-1.4-0.1-3.2,0.7-4
		c1.5-1.4,3.6-2.9,5.3-2.8c1.5,0.1,4.2,2.3,4.2,3.7c0.6,19.5,2.6,39.2-10.4,56.2c-9.5,12.3-21.6,20.1-37,22.7
		c-0.5,0.1-1,0.4-1.5,0.7C178.7,366.4,174.1,366.4,169.4,366.4z"/>
	<path class="st1" d="M243,79.5c0-9.8,0-19.6,0-29.5c-9.9-2.9-16.5-9-17.4-19.7c-0.8-9.3,3.1-16.5,11.3-20.9
		c8.8-4.7,17.1-3.2,24.9,2.9c8.5-6.5,17.6-7.9,26.8-1.8c7.1,4.7,10.5,11.6,9.5,20.1c-1.2,10.4-7.4,16.5-17.5,19.3
		c0,9.7,0,19.5,0,29.5c1.3,0.3,2.7,0.5,3.9,1c4.1,1.6,5.8,4.8,5.9,9c0.1,4.4,0.1,8.9,0,13.3c-0.1,4.9,1.4,9.1,4.3,13
		c9.5,12.6,19.1,25.2,28.3,38c33,46.1,7.5,109.7-48.2,119.6c-43.3,7.7-81.6-22.3-88-62.6c-3.3-21,1.4-40.1,13.8-57.3
		c9.2-12.7,18.6-25.2,28.1-37.7c3-4,4.5-8.4,4.4-13.3c-0.1-3.9,0-7.7,0-11.6C233.2,83.4,235.6,80.7,243,79.5z M280.1,90.6
		c-12.6,0-24.4,0-36.3,0c0,3.9-0.2,7.5,0,11.1c0.4,8-2.2,14.8-7,21.1c-9,11.9-17.9,24-26.8,36c-11,14.8-15.2,31.3-12.7,49.5
		c5.1,37,42.9,62.7,79.2,53.8c46.2-11.4,65.5-64.4,37.4-102.8c-9.2-12.6-18.9-25-27.9-37.8c-2.8-4-4.9-8.9-5.8-13.6
		C279.4,102.4,280.1,96.6,280.1,90.6z M269.8,79.7c0-1.4,0-2.5,0-3.6c0-9.4,0-18.7,0-28.1c0-6.3,1.3-7.8,7.5-8.5
		c5.2-0.6,9.1-3.9,10-8.4c1-5-1.3-9.9-5.6-12.2c-4.5-2.4-9.1-1.6-13.2,2.2c-4.9,4.7-8.6,4.6-13.6-0.1c-2.7-2.6-5.8-3.9-9.6-3.3
		c-5.8,1-9.5,5.7-9.3,11.4c0.2,5.6,4.2,9.7,10.3,10.4c6.1,0.7,7.4,2.2,7.4,8.3c0,9.4,0,18.7,0,28.1c0,1.2,0,2.5,0,3.9
		C259.2,79.7,264.2,79.7,269.8,79.7z"/>
	<path class="st1" d="M66,156.7c0-9.7-1.1-19.5,0.2-29.1C70,101.1,91,81.5,117.7,78.4c34.8-4.1,68.3,15.6,81.6,48
		c2.2,5.4,1.6,8.4-2,9.8c-3.4,1.4-5.8-0.3-8-5.7c-11.1-26.9-37.2-43.3-66.7-41.8C99.7,89.9,82,104.7,77,126.9c-0.7,3.1-1,6.2-1,9.4
		c-0.1,13-0.3,26,0,39c0.5,24.7,10.3,45,29.5,60.6c9.2,7.4,18.9,14.1,26.7,23.2c10.9,12.8,17.7,27.7,22.3,43.6c1.2,4,2.5,8,3.8,12
		c3.1,9.3,11.1,14.4,20.6,13.1c8.7-1.2,15.1-8.6,15.3-18.2c0.2-11.5,0.1-22.9,0.1-34.4c0-1.2,0-2.3,0.1-3.5c0.4-3.1,2-4.9,5.3-5
		c3.3,0,5.3,2,5.3,4.9c0,14.3,0.5,28.6-0.7,42.8c-1.1,13.3-12.2,22.7-26.1,24.2c-12.2,1.3-24.6-6.2-29.1-18.1
		c-3-7.8-5.2-16-7.9-23.9c-6.1-18-16.7-32.8-31.9-44.2c-10.4-7.8-20.6-15.8-28.1-26.7c-10.6-15.5-16.1-32.5-15.9-51.4
		c0.1-5.8,0-11.7,0-17.6C65.6,156.7,65.8,156.7,66,156.7z"/>
	<path class="st1" d="M155.3,142.1c0,14.3-11.8,26.1-26.1,26.2c-14.3,0.1-26.4-12-26.4-26.3c0.1-14.2,12-26.1,26.2-26.2
		C143.4,115.7,155.3,127.7,155.3,142.1z M113.7,141.8c-0.1,8.7,6.8,15.7,15.4,15.6c8.4,0,15.4-6.9,15.5-15.3
		c0.2-8.5-6.9-15.6-15.5-15.6C120.5,126.6,113.8,133.3,113.7,141.8z"/>
</g>
</svg>
