<?xml version="1.0" encoding="utf-8"?>
<!-- Generator: Adobe Illustrator 25.2.0, SVG Export Plug-In . SVG Version: 6.00 Build 0)  -->
<svg version="1.1" id="Capa_1" xmlns="http://www.w3.org/2000/svg" xmlns:xlink="http://www.w3.org/1999/xlink" x="0px" y="0px"
	 viewBox="0 0 375 373" style="enable-background:new 0 0 375 373;" xml:space="preserve">
<style type="text/css">
	.st0{opacity:0.75;fill:none;stroke:#FFFFFF;stroke-miterlimit:10;}
</style>
<path class="st0" d="M122.4,4.9C142,19.1,150.1,38.4,148.1,62c5.9-1.4,11.6-3.3,17.5-4.1c5.1-0.7,10.3-0.3,15.5,0.1
	c4.2,0.4,6,2.5,6.6,6.6c2.1,14.5-1.2,27.9-8.8,40.3c-0.7,1.1-1.4,2.2-2.1,3.3c4.9,2.1,5.9,1.8,7.9-2.5c0.3-0.5,0.5-1.1,0.8-1.6
	c4.9-9.6,6.3-10.2,16.4-7c0.3,0.1,0.7,0,1.2,0c-1.5-11-0.9-21.9,3.8-31.9c2.9-6.2,6.9-12,11-17.6c3-4.1,6-4.3,10.6-1.9
	c7.4,3.9,13.6,9.3,18.3,15.1c4.3-6.5,8-13.5,13-19.4c9.3-11.1,21.7-17.1,35.9-19.3c3.8-0.6,6.7,1.3,8.4,5.5
	c7.6,19.4,6.1,38.1-5,55.9c-0.5,0.8-1,1.6-1.5,2.4c0,0.1,0,0.2,0-0.1c6.3,1.7,12.4,3.1,18.4,5c4.8,1.6,6.1,4.2,5.5,9.2
	c-1.9,14.9-8.7,27.3-19.9,37.2c-1.1,0.9-2.1,1.9-3.2,2.8c-0.1,0.1,0,0.2-0.1,0.6c1.4,0.7,2.9,1.3,4.3,2c4.9,2.4,6.3,5,5.1,10.2
	c-2.8,12.6-9,23.2-18.6,31.9c-1.6,1.4-3.2,2.7-4.9,4.2c2.8,1.4,5.4,2.7,7.9,4.1c4.1,2.4,5.1,4.9,3.8,9.5
	c-3.9,14.4-12.4,25.5-24.9,34.2c1.1,0.6,2.1,1,2.9,1.5c5.9,4.2,12.1,8.1,17.6,12.8c4.6,3.9,4.5,6.8,1.2,11.8
	c-17.4,26.3-52.4,34.4-79.6,18.4c-0.9-0.5-1.8-1-3.1-1.8c-0.7,5.2-1.6,10.1-1.9,15c-1.3,21.8-2.5,43.6-3.6,65.4
	c-0.2,3.9-1.9,6.4-5,8.3c-1.7,0-3.3,0-5,0c-2.4-1.9-4.6-3.9-4.4-7.5c1.2-21.7,2.3-43.4,3.6-65c0.3-5.8,1.3-11.6,1.9-17.6
	c-9.3-0.4-17.8-2.2-26-6c-0.8-0.4-2.3,0.5-3.3,1.1c-6.5,3.5-12.7,7.7-19.5,10.3c-6,2.3-12.8,2.7-19.6,4c0,0.8,0,2.1,0,3.3
	c0,22.6-0.1,45.1,0.1,67.7c0,4.3-1.2,7.6-5,9.7c-1.7,0-3.3,0-5,0c-3.6-2.3-4.7-5.7-4.6-9.9c0.1-22.5,0.1-44.9,0.1-67.4
	c0-1.4,0-2.7,0-4.1c-3.8-0.4-7.1-0.6-10.3-1c-4.5-0.5-7.3-3.5-7-7.7c0.2-4.1,3.4-6.7,8-6.5c2.9,0.1,5.8,0.4,8.7,0.6
	c1.1-29.4-25.9-48.4-45.9-45.7c0.1,2.3,0.1,4.7,0.4,7c0.6,4.9-1.9,8.6-6.1,9.1c-4.3,0.5-7.8-2.5-8.1-7.4c-0.3-5.3-0.3-10.6,0-15.9
	c0.2-4.2,2.9-6.6,7-7.1c1.3-0.2,2.7-0.4,4.3-0.6c-8.9-12.9-13-26.6-11.5-41.8c0.6-6.4,2.5-8.5,8.9-9.2c0.8-0.1,1.5-0.1,2.6-0.2
	c-0.4-0.7-0.6-1.1-0.9-1.5C54.3,146,50.7,132.2,52.4,117c0.5-4.8,2.9-7.3,7.5-7.8c1.2-0.1,2.4-0.3,3.8-0.5c-0.4-0.8-0.5-1.1-0.7-1.4
	c-8.6-12.5-12.2-26.4-10.6-41.6c0.5-4.7,2.3-7.3,6.7-7.7c5.1-0.5,10.4-0.8,15.5-0.1c5.9,0.8,11.6,2.6,16.9,3.9
	c0.5-6.6,0.4-13.5,1.7-20.1c3-15.5,11.7-27.5,24.3-36.8C119.1,4.9,120.8,4.9,122.4,4.9z M250.8,135.6c23.9,8,52-9.7,55.3-33.1
	C281.2,94.7,254.4,112.9,250.8,135.6z M112.3,117.5c0.7-28.8-25.5-47.8-45.8-45.4C64.9,97.9,89.1,119.6,112.3,117.5z M280.5,203.3
	c-24.8-12.2-54.3,4.3-59.5,24.6C242.9,238.7,273.2,226.3,280.5,203.3z M173.8,71.9c-23.4-2.9-51.3,25.4-45.3,45.7
	C152.3,119.5,175.6,96.2,173.8,71.9z M173.7,174.6c-28.9-1.1-48,25.8-45.4,45.7C149.7,222.5,175.2,202.2,173.7,174.6z M213.8,263.8
	c19.5,18,50.8,13.3,64.3-5.6C261.7,241.9,230.1,242.7,213.8,263.8z M234.3,182.5c24.1,9.6,52-5.4,58-28.3
	C273.3,145.1,242.4,155.5,234.3,182.5z M173.9,123.6c-24.2-2.9-48.6,21.9-45.5,45.4C151,170.4,174.3,150.7,173.9,123.6z
	 M112.2,220.3c1.6-25.6-22.1-47.3-45.4-45.5C64.2,198.2,87.4,222.6,112.2,220.3z M225.6,61c-15.6,19.2-10.1,50.7,11.1,63.7
	C252.4,106.8,246.4,72.6,225.6,61z M173.8,226.3c-26.5-2.5-48.7,24.2-45.4,45.6C151.7,273.1,174.5,252.8,173.8,226.3z M120.1,86.5
	c19.4-17.6,17.7-49.7,0-64.8C102,37.6,101,69,120.1,86.5z M261,94.3c26.7-6.3,39.3-36.2,31.2-56.5C268.8,42,252.5,71.4,261,94.3z
	 M66.7,123.4c-2.1,22.6,19.2,47.3,45.5,45.6C113.9,143.1,89.7,121.5,66.7,123.4z M219.6,171.6c12.6-23.8-1-52.8-21.6-60.2
	C186,133.4,197.4,163.1,219.6,171.6z M187.6,166.6c1.8,12.2-0.2,23.5-5,34.4c-0.3,0.8-0.3,2.1,0.2,2.8c5.4,8.5,12.8,14.5,22.2,18
	C214.4,204.4,205.7,176.2,187.6,166.6z M179,260.7c4.7,1,9.6,2,14.9,3.1c0.9-10.2-1.1-18.8-5.7-26.5
	C185.2,244.8,182.2,252.4,179,260.7z"/>
</svg>
