<?xml version="1.0" encoding="utf-8"?>
<!-- Generator: Adobe Illustrator 25.2.0, SVG Export Plug-In . SVG Version: 6.00 Build 0)  -->
<svg version="1.1" id="Capa_1" xmlns="http://www.w3.org/2000/svg" xmlns:xlink="http://www.w3.org/1999/xlink" x="0px" y="0px"
	 viewBox="0 0 375 373" style="enable-background:new 0 0 375 373;" xml:space="preserve">
<style type="text/css">
	.st0{opacity:0.75;}
	.st1{fill:none;stroke:#FFFFFF;stroke-miterlimit:10;}
</style>
<g class="st0">
	<path class="st1" d="M25.4,115.5c2.7,0,4.6,0,6.8,0c0-11.2,0-22.1,0-33.4c11.3,0,22.3,0,33.8,0c0,11.1,0,22.1,0,33.4
		c2.4,0,4.3,0,6.7,0c0,13.6,0,26.8,0,40.6c3.4,0,6.3,0,9.2,0c7.2,0,11.2,3.9,11.2,11.2c0,63,0,126.1,0,189.1c0,0.6,0,1.1,0,2
		c28.1,0,56.2,0,85.2,0c-15.5-12.9-9.5-30.4-11.1-47c-1.4,0-2.9,0-4.4,0c-15.2,0-30.4,0-45.6,0c-10.1,0-17.3-7.1-17.3-17.2
		c0-33.6,0-67.3,0-100.9c0-9.5,7.1-17,16.2-17c45.7-0.1,91.5,0,137.2,0c0.7,0,1.4,0.1,2.3,0.2c0,2,0,3.9,0,6.6c-1.5,0-3.1,0-4.7,0
		c-43.6,0-87.2,0-130.9,0c-9.9,0-13.5,3.6-13.5,13.5c0,31.5,0,63,0,94.6c0,9.9,3.6,13.6,13.4,13.6c15.3,0,30.7,0,46,0
		c0.3,0,0.5-0.1,1.4-0.3c0-5,0-10.1,0-15.3c0-18.8,12.9-31.7,31.8-31.7c32.9,0,65.9,0,98.8,0c18.6,0,31.5,13,31.5,31.6
		c0,12.9-0.3,25.9,0.1,38.8c0.4,11.5-1.1,22.1-11.2,30.8c13.2,0,25.4,0,37.8,0c0,2.4,0,4.4,0,6.8c-1.6,0-3.1,0-4.6,0
		c-111.3,0-222.6,0-333.9,0c-9,0-12.4-3.5-12.4-12.5c0-61.5,0-123,0-184.5c0-9,3.5-12.4,12.5-12.4c2.4,0,4.8,0,7.6,0
		C25.4,142.6,25.4,129.4,25.4,115.5z M248.7,264.2c-16.3,0-32.6,0-49,0c-15.6,0-25.6,10-25.6,25.6c0,14.5,0,29,0,43.5
		c0,15.5,10,25.5,25.7,25.5c32.4,0,64.7,0,97.1,0c15.9,0,25.8-9.9,25.8-25.8c0-14.4,0-28.7,0-43.1c0-15.8-10-25.7-25.9-25.7
		C280.8,264.1,264.8,264.2,248.7,264.2z M12,260.8c0,30.5,0,61,0,91.5c0,5.6,0.8,6.4,6.3,6.4c20.5,0,41.1,0,61.6,0
		c5.6,0,6.4-0.8,6.4-6.2c0-61.2,0-122.3,0-183.5c0-5.3-0.9-6.1-6.1-6.2c-20.5,0-41.1,0-61.6,0c-6,0-6.6,0.6-6.6,6.9
		C12,200.1,12,230.5,12,260.8z M32.6,122.5c0,11.4,0,22.4,0,33.3c11.3,0,22.3,0,33.3,0c0-11.2,0-22.2,0-33.3
		C54.7,122.5,43.8,122.5,32.6,122.5z M39.3,88.7c0,9.1,0,17.8,0,26.5c6.8,0,13.3,0,19.8,0c0-4.5,0-8.6,0-13
		c-2.2-0.1-4.2-0.3-6.3-0.4c0-2.3,0-4.3,0-6.4c2.3-0.1,4.3-0.3,6.2-0.4c0-2.4,0-4.3,0-6.4C52.5,88.7,46.1,88.7,39.3,88.7z"/>
	<path class="st1" d="M76.2,148.4c13.5-20.4,32.6-31.1,57.4-33c0-15.5,0-31.1,0-46.9c6.9,0,13.3,0,20,0c0-9.1,0-17.8,0-27.1
		c-3.3,0-6.6,0.1-10,0c-5.8-0.2-10.1-4.5-10-10.3c0.1-5.5,4.2-9.8,9.9-9.9c36.3-1.1,71.7,4,106.3,14.6c0.4,0.1,0.7,0.5,1.4,1
		c-3.7,3.6-7,7.4-10.9,10.6c-1.2,1-3.7,0.6-5.5,0.3c-17.3-1.9-34.6-4-51.8-6c-0.5-0.1-1.1,0.1-1.9,0.1c0,8.8,0,17.4,0,26.5
		c6.6,0,13.1,0,19.9,0c0,15.9,0,31.3,0,46.4c7.1,1.6,14.1,2.5,20.7,4.8c32.1,11.1,51.4,42.5,47.6,76.4c-1.8,15.9-2.7,31.9-4.1,47.9
		c-0.2,2.2-0.5,4.4-0.8,6.8c-2.2,0-4.1,0-6.7,0c0.4-5.3,0.7-10.7,1.2-16.1c1.3-15,3-29.9,3.8-44.9c1.8-33.5-23-62.7-56.6-66.3
		c-10.4-1.1-21.1-0.7-31.6-0.8c-11.8-0.1-23.6,0-35.4,0c-21.8-0.1-39.8,7.9-53.8,25c-1.6,1.9-5.5,1.9-8.4,2.8
		C76.7,149.6,76.4,149,76.2,148.4z M140.6,115.3c18.1,0,35.9,0,53.5,0c0-13.6,0-26.8,0-40c-18,0-35.7,0-53.5,0
		C140.6,88.7,140.6,101.8,140.6,115.3z M237.3,40.8c0.1-0.4,0.2-0.7,0.3-1.1c-1.1-0.4-2.2-0.8-3.3-1.1c-28.5-7.9-57.6-11-87.1-10.8
		c-2.7,0-6.5-0.7-6.6,3.2c-0.1,4.3,3.9,3.5,6.7,3.5c25.7-0.2,51.5-0.4,76.9,4.3C228.6,39.6,233,40.1,237.3,40.8z M173.8,68.1
		c0-9.2,0-17.9,0-26.6c-4.5,0-8.6,0-13,0c0,9,0,17.7,0,26.6C165.3,68.1,169.4,68.1,173.8,68.1z"/>
	<path class="st1" d="M306.6,123c-6.8,11.7-19.5,15.9-30.8,10.8c-10.9-4.9-16.5-17.4-12.9-28.8c3.6-11.2,15.1-18.2,26.5-15.8
		c-0.3,1.9-0.5,3.8-0.8,6c-5.9,0.1-11.7,1-15.4,6c-2.1,2.8-3.6,6.4-4.3,9.8c-1.2,6.6,3.5,13.7,10,16.5c7.7,3.4,14.2,1.3,22.1-7.5
		C302.8,121,304.7,122,306.6,123z"/>
	<path class="st1" d="M312.4,115.6c-9.4-0.1-16.7-7.5-16.7-17c0-9.6,7.5-16.9,17.3-16.8c9.3,0.1,16.6,7.6,16.5,17.2
		C329.4,108.3,321.9,115.6,312.4,115.6z M322.7,98.9c0.1-5.2-4.5-10-9.8-10.2c-5.2-0.2-10.1,4.4-10.4,9.7c-0.3,5.3,4.6,10.4,10,10.5
		C317.8,108.8,322.6,104.1,322.7,98.9z"/>
	<path class="st1" d="M275.5,47.8c0.1-7.6,6.1-13.4,13.9-13.2c7.4,0.1,13.2,6.1,13.1,13.5c0,7.6-6,13.5-13.6,13.5
		C281.2,61.5,275.4,55.5,275.5,47.8z M288.8,41.3c-3.5,0.1-6.7,3.5-6.6,6.9c0.1,3.3,3.3,6.4,6.6,6.5c3.5,0.1,6.8-3.2,6.8-6.7
		C295.7,44.6,292.3,41.3,288.8,41.3z"/>
	<path class="st1" d="M349.9,54.8c7.6,0.1,13.4,6.1,13.3,13.8c-0.1,7.6-6.2,13.3-13.9,13.2c-7.4-0.1-13.1-6.1-13.1-13.6
		C336.3,60.6,342.2,54.7,349.9,54.8z M356.4,68.5c0.1-3.4-3.1-6.8-6.6-6.9c-3.3,0-6.5,3-6.8,6.3c-0.2,3.4,2.9,6.9,6.4,7.1
		C352.9,75.2,356.3,71.9,356.4,68.5z"/>
	<path class="st1" d="M336.2,17.6c0,5.7-4.4,10.1-10.1,10.2c-5.7,0-10.1-4.4-10.2-10.1c0-5.7,4.4-10.1,10.1-10.1
		C331.8,7.5,336.2,11.9,336.2,17.6z M330.7,17.7c-2-1.5-3.4-3.3-4.4-3.1c-1.3,0.3-2.3,2.1-3.4,3.3c1.1,1,2.2,2.8,3.4,2.9
		C327.4,20.8,328.6,19.1,330.7,17.7z"/>
	<path class="st1" d="M319.2,162.9c5.7-0.1,10.2,4.2,10.3,9.9c0.1,5.7-4.3,10.2-9.9,10.3c-5.7,0.1-10.2-4.3-10.3-9.9
		C309.2,167.5,313.5,162.9,319.2,162.9z M323.9,173.3c-1.9-1.6-3.2-3.5-4.2-3.3c-1.3,0.2-2.4,2-3.6,3.1c1.1,1.1,2,2.9,3.2,3.1
		C320.4,176.2,321.8,174.6,323.9,173.3z"/>
	<path class="st1" d="M363.5,358.9c2.1,0,4,0,6.2,0c0,2,0,4,0,6.3c-2,0-4,0-6.2,0C363.5,363.1,363.5,361.1,363.5,358.9z"/>
	<path class="st1" d="M293.9,291.2c-2.3,0-3.8,0-5.3,0c-23.5,0-46.9,0-70.4,0c-8.4,0-10.3,2-10.3,10.5c0,11.4,0,22.7,0,34.8
		c-4.3-2.7-6.6-6-6.7-10.4c-0.2-9.8-0.2-19.7,0-29.5c0.1-6.4,6-12.1,12.4-12.1c23.2-0.1,46.4-0.1,69.6,0
		C287.6,284.5,290.8,286.8,293.9,291.2z"/>
	<path class="st1" d="M25.9,318.2c17.9,0,35.6,0,53.5,0c0,2.2,0,4.1,0,6.4c-19.9,0-39.9,0-60.2,0c0-42.4,0-84.9,0-127.7
		c20,0,40,0,60.2,0c0,2,0,3.9,0,6.2c-17.7,0-35.4,0-53.5,0C25.9,241.6,25.9,279.6,25.9,318.2z"/>
	<path class="st1" d="M79.4,264.4c0,2.1,0,4,0,6.3c-2.1,0.1-4.1,0.3-6.4,0.4c0,4.3,0,8.5,0,13c-6.8,0-13.3,0-20.3,0
		c0-4.2,0-8.5,0-13c-4.6,0-8.8,0-13.3,0c0-6.8,0-13.3,0-20.3c4.2,0,8.5,0,13,0c0-4.6,0-8.8,0-13.3c6.8,0,13.3,0,20.3,0
		c0,4.2,0,8.5,0,13.1c2.4,0,4.3,0,6.5,0c0,2.3,0,4.3,0,6.6c-4.2,0-8.5,0-13.1,0c0-4.3,0-8.4,0-12.9c-2.3,0-4.3,0-6.8,0
		c0,4.2,0,8.5,0,13.1c-4.6,0-8.8,0-13.3,0c0,2.3,0,4.3,0,6.8c4.2,0,8.5,0,13,0c0,4.6,0,8.8,0,13.3c2.3,0,4.3,0,6.8,0
		c0-4.2,0-8.4,0-12.9C70.7,264.4,75,264.4,79.4,264.4z"/>
</g>
</svg>
