<?xml version="1.0" encoding="utf-8"?>
<!-- Generator: Adobe Illustrator 25.2.0, SVG Export Plug-In . SVG Version: 6.00 Build 0)  -->
<svg version="1.1" id="Capa_1" xmlns="http://www.w3.org/2000/svg" xmlns:xlink="http://www.w3.org/1999/xlink" x="0px" y="0px"
	 viewBox="0 0 375 373" style="enable-background:new 0 0 375 373;" xml:space="preserve">
<style type="text/css">
	.st0{fill:none;stroke:#FFFFFF;stroke-miterlimit:10;}
</style>
<g>
	<path class="st0" d="M320.2,364.1c-88.4,0-176.7,0-265.1,0c-5.5-2.2-10.1-5.4-12.3-11.3c-7.7-20-15.4-40-23.1-59.9
		c-3.1-8-6.5-15.9-9.7-23.9c0-1.6,0-3.2,0-4.9c2.3-4.8,4.7-9.6,6.9-14.5c9.5-21.2,19-42.5,28.5-63.8c-0.8-1.4-1.8-3.1-2.5-4.9
		c-7.1-18.2-14-36.3-21.1-54.5c-3.8-9.9-7.9-19.7-11.8-29.5c0-1.6,0-3.2,0-4.9c0.5-0.7,1.1-1.4,1.5-2.2
		c10.4-23.4,20.8-46.7,31.2-70.2c3-6.8,8.8-10.9,16.2-10.9c85.9,0,171.8,0,257.7,0c7.6,0,12.9,3.8,16,10.7
		c10.7,23.9,21.3,47.8,31.8,71.8c0.8,1.9,0.9,4.6,0.2,6.5c-8.2,21.5-16.6,43-24.9,64.5c-3.1,8-6.3,16-9.7,24.5
		c0.6,1.1,1.7,2.7,2.5,4.5c10.7,24,21.4,48,32,72.1c0.8,1.8,0.9,4.4,0.2,6.2c-10.1,26.4-20.5,52.6-30.5,79
		C331.4,355.9,327.6,361.5,320.2,364.1z M296.5,352.3c0-3,0-5.6,0-8.2c0-12.4,0-24.7,0-37.1c0-3.5,2.3-5.8,5.5-5.9
		c3-0.1,5.4,1.9,5.9,5.2c0.2,1.1,0.2,2.3,0.2,3.5c0,13,0,25.9,0,38.9c0,1.2,0.1,2.5,0.2,4c2.6,0,4.9-0.1,7.2,0
		c3.2,0.1,5.1-1.4,6.2-4.4c9.3-24.1,18.7-48.1,28-72.2c0.4-1,0.7-2,1.1-3.2c-43.1,0-85.7,0-128.7,0c0,3.4,0,6.6,0,9.8
		c-0.1,11.3-7.2,18.4-18.4,18.5c-10.6,0-21.3-0.3-31.9,0.1c-10.6,0.4-19.2-7.5-18.8-18.8c0.1-3.2,0-6.4,0-9.6
		c-43.1,0-85.7,0-128.3,0c0,0.4-0.2,0.7-0.1,0.8c9.7,25.2,19.4,50.3,29.3,75.5c0.6,1.4,2.5,3,4.1,3.2c2.9,0.5,5.9,0.1,9.1,0.1
		c0-1.8,0-3.1,0-4.5c0-14.7,0-29.4,0-44.1c0-1.5,0-3,0.5-4.5c0.9-2.9,3.1-4.3,6.1-3.9c2.9,0.3,4.6,2,5,4.9c0.2,1.1,0.1,2.3,0.1,3.5
		c0,14.9,0,29.8,0,44.8c0,1.2,0,2.4,0,3.6c6,0,11.5,0,17.2,0c0-5.3,0-10.4,0-15.5c0-11.7,0-23.4,0-35c0-4.3,2.6-6.6,6.5-6.2
		c3.3,0.4,5.1,2.8,5.1,7.4c0,15.1,0,30.3,0,45.4c0,1.3,0,2.6,0,3.9c6,0,11.4,0,17,0c0-9,0-17.8,0-26.6c0-8.1-0.1-16.2,0-24.3
		c0.1-4.9,4.8-7.6,8.7-5.2c2.5,1.5,2.9,3.9,2.9,6.6c0,15.3,0,30.5,0,45.8c0,1.2,0,2.4,0,3.7c34.5,0,68.6,0,102.9,0c0-1.5,0-2.8,0-4
		c0-13.3,0-26.6,0-39.9c0-4.6,2.4-7.4,6-7.3c3.6,0.1,5.6,2.8,5.6,7.3c0,13.4,0,26.8,0,40.2c0,1.2,0,2.5,0,3.7c5.8,0,11.2,0,16.9,0
		c0-1.5,0-2.7,0-4c0-13,0-25.9,0-38.9c0-1.4,0-2.8,0.4-4.1c0.8-3,2.9-4.5,5.9-4.2c3,0.2,4.9,2,5.2,5.1c0.1,1.1,0.1,2.3,0.1,3.5
		c0,13,0,25.9,0,38.9c0,1.2,0,2.5,0,3.8C285.2,352.3,290.6,352.3,296.5,352.3z M24.7,100.8c0.1,0.6,0,1,0.1,1.3
		c9.6,24.9,19.3,49.9,29,74.8c0.5,1.3,2,3,3.3,3.2c3.2,0.4,6.6,0.2,10,0.2c0-1.8,0-3.1,0-4.5c0-14.5,0-28.9,0-43.4
		c0-1-0.1-2.1,0.1-3.1c0.4-3.6,2.9-6,6.1-5.8c3.3,0.2,5.4,2.5,5.4,6.3c0,15.6,0,31.2,0,46.8c0,1.2,0,2.4,0,3.6c6,0,11.5,0,17.2,0
		c0-1.7,0-3.1,0-4.4c0-15.4,0-30.8,0-46.1c0-3.8,2.3-6.1,5.6-6.2c3.1,0,5.5,2.2,5.9,5.6c0.1,1.1,0.1,2.3,0.1,3.5
		c0,14.6,0,29.1,0,43.7c0,1.3,0,2.7,0,4c6,0,11.3,0,17,0c0-10.8,0-21.3,0-31.8c0-6.4-0.1-12.7,0-19.1c0.1-3.4,2.4-5.8,5.6-5.9
		c3.1-0.1,5.7,2.2,6.1,5.5c0.1,1,0.1,2.1,0.1,3.1c0,14.8,0,29.6,0,44.4c0,1.2,0,2.5,0,3.7c34.5,0,68.6,0,102.9,0c0-1.5,0-2.7,0-4
		c0-12.7,0-25.4,0-38.2c0-0.8,0-1.6,0-2.4c0.2-3.8,2.6-6.5,5.9-6.4c3.3,0,5.8,2.7,5.8,6.5c0,13.6,0,27.3,0,40.9c0,1.2,0,2.4,0,3.7
		c5.9,0,11.2,0,16.9,0c0-1.5,0-2.7,0-4c0-12.7,0-25.4,0-38.2c0-1,0-2.1,0.1-3.1c0.4-3.6,2.9-6.1,6.1-5.9c3.2,0.2,5.4,2.7,5.5,6.4
		c0.1,13.6,0,27.3,0,40.9c0,1.2,0,2.5,0,3.8c5.9,0,11.4,0,17.2,0c0-1.5,0-2.7,0-4c0-13.3,0-26.6,0-39.9c0-4.5,2.1-7.2,5.6-7.3
		c3.5-0.1,5.8,2.7,6,7.1c0,0.8,0,1.6,0,2.4c0,12.6,0,25.2,0,37.8c0,1.2,0.1,2.5,0.2,4c2.7,0,5.1-0.1,7.5,0c3.1,0.1,4.8-1.3,6-4.2
		c9.3-24.1,18.7-48.1,28-72.2c0.4-1,0.7-2,1.1-3.1c-43.1,0-85.7,0-128.6,0c0,3.4,0,6.5,0,9.6c-0.1,11.4-7.3,18.7-18.6,18.8
		c-10.6,0.1-21.3,0.1-31.9,0c-11.4-0.1-18.5-7.4-18.6-18.8c0-3.2,0-6.4,0-9.7C110,100.8,67.5,100.8,24.7,100.8z M25,260.6
		c108.6,0,216.7,0,325.2,0c-0.4-1.1-0.6-1.9-0.9-2.8c-9.1-20.5-18.3-41.1-27.4-61.6c-1.2-2.7-3.1-3.7-6-3.7c-13.4,0.1-26.8,0-40.2,0
		c-6.3,0-12.6,0-19.3,0c0,6.1,0.1,11.7,0,17.4c-0.2,9.3-7.5,16.7-16.9,16.7c-34.6,0.1-69.1,0.1-103.7,0c-7.6,0-14.1-5-16.1-12.3
		c-0.7-2.5-0.7-5.2-0.7-7.9c-0.1-4.6,0-9.1,0-13.7c-1-0.1-1.5-0.2-1.9-0.2c-19.3,0-38.6,0-57.9,0c-3,0-4.6,1.4-5.8,4
		c-8.9,20.3-18,40.5-26.9,60.7C25.8,258.3,25.5,259.3,25,260.6z M24.9,88.6c108.6,0,216.8,0,325.3,0c-0.5-1.3-0.9-2.3-1.4-3.4
		c-8.8-19.8-17.7-39.6-26.3-59.4c-1.7-3.9-4-5.3-8.1-5.3c-18,0.2-36.1,0.1-54.1,0.1c-1.2,0-2.4,0.1-3.9,0.2c0,5.4,0,10.5,0,15.5
		c-0.1,11.6-6.9,18.4-18.6,18.4c-33.4,0-66.8-0.2-100.2,0.1C127.2,54.9,118,47,118.8,36c0.3-5,0.1-10.1,0.1-15
		c-0.7-0.2-0.9-0.4-1.1-0.4c-19.8,0-39.5,0-59.3,0c-2.7,0-4.1,1.6-5.2,3.9c-8.7,19.7-17.5,39.4-26.2,59.1
		C26.4,85.1,25.7,86.7,24.9,88.6z M244.8,20.8c-38.3,0-76.1,0-114.3,0c0,5.1,0,10.1,0,15c0,5.6,1.7,7.2,7.3,7.2
		c16.2,0,32.4,0,48.5,0c17.2,0,34.4,0,51.7,0c4.9,0,6.7-1.8,6.8-6.6C244.8,31.4,244.8,26.3,244.8,20.8z M130.5,192.8
		c0,5,0,9.6,0,14.2c0,6.5,1.5,8,7.9,8c32.8,0,65.7,0,98.5,0c1,0,2.3,0.4,3.1-0.1c1.7-1.1,4.3-2.6,4.4-4.1c0.5-5.9,0.2-11.9,0.2-18
		C206.5,192.8,168.7,192.8,130.5,192.8z M164.7,272.7c0,3.9-0.2,7.6,0.1,11.3c0.2,3.1,1.9,5.4,5.2,5.4c11.8,0.1,23.6,0.1,35.4,0
		c3.1,0,4.9-2.3,5.1-5.2c0.3-3.8,0.1-7.6,0.1-11.5C195.2,272.7,180.2,272.7,164.7,272.7z M164.8,101c0,4-0.3,7.8,0.1,11.5
		c0.3,3.3,2.7,5.1,5.9,5.2c11.2,0.1,22.4,0.1,33.6,0c2.9,0,5.5-1.5,5.8-4.4c0.5-4,0.1-8.2,0.1-12.2C195,101,180,101,164.8,101z"/>
</g>
</svg>
