<?xml version="1.0" encoding="utf-8"?>
<!-- Generator: Adobe Illustrator 25.2.0, SVG Export Plug-In . SVG Version: 6.00 Build 0)  -->
<svg version="1.1" id="Capa_1" xmlns="http://www.w3.org/2000/svg" xmlns:xlink="http://www.w3.org/1999/xlink" x="0px" y="0px"
	 viewBox="0 0 375 373" style="enable-background:new 0 0 375 373;" xml:space="preserve">
<style type="text/css">
	.st0{opacity:0.75;}
	.st1{fill:none;stroke:#FFFFFF;stroke-miterlimit:10;}
</style>
<g class="st0">
	<path class="st1" d="M170.2,159.4c0-1.6,0-3.1,0-4.5c0-39.1,0.1-78.2-0.1-117.3c0-5.8,2.2-10,6.6-13.3c7.1-5.4,15.3-8.1,23.8-10.1
		c29-6.9,58.4-8.4,88-6.7c18.1,1,36.1,2.8,53.4,8.2c6.3,2,12.4,5.1,18.2,8.4c5,2.9,7.1,7.7,7.1,13.7c-0.1,83.7-0.1,167.3,0,251
		c0,6.2-2.4,10.6-7.3,14.1c-8.7,6.2-18.9,8.9-29.2,11.1c-24.8,5.2-50,6.4-75.2,5.8c-1.3,0-2.6,0-4.1,0c-0.1,1.1-0.3,2-0.2,2.9
		c0.8,9.1-3.6,15.5-10.5,20.6c-10.7,7.9-23.1,11.9-35.8,14.9c-31.7,7.6-63.9,9.2-96.3,7.5c-21.1-1.1-42-3.7-62.4-9.6
		c-9.7-2.8-19.2-6.4-27.5-12.4c-7.4-5.3-11.2-12.1-11.1-21.7c0.3-40.2,0.3-80.4,0-120.6c-0.1-9,3.5-15.5,10.4-20.6
		c9.9-7.4,21.4-11.4,33.3-14.4c32.6-8.2,65.7-9.9,99.1-8.2C156.9,158.4,163.3,158.9,170.2,159.4z M212,167
		c9.1-35.2,44.2-50.6,73.1-42.1c28.3,8.3,46.1,37.2,40.6,66.5c-2.7,14.4-10,26.3-21.7,35.2c-15.8,12-33.4,14.7-52.5,9.5
		c0,4.6,0,8.9,0,13.2c0.7,0.1,1.1,0.2,1.6,0.2c23.2,1.4,46.3,0.3,69.2-4c9.7-1.8,19.1-5.5,28.6-8.6c3.5-1.1,4.9-3.8,4.9-7.8
		c-0.2-42.6-0.1-85.2-0.1-127.8c0-1.3,0-2.5,0-3.9C327.4,109,298.2,111,268.7,111c-29.6,0-58.9-2-86.8-13.5c0,21.3,0,42.4,0,63.2
		C192,162.9,201.9,164.9,212,167z M48.6,344.2c0.7,0.3,1.3,0.6,2,0.8c18.3,5.2,37,8.1,55.9,8.7c17.7,0.6,35.5,0.1,53.2-0.6
		c16.2-0.6,32-3.5,47.7-7.7c2.5-0.7,3.5-1.5,3.4-4.3c-0.1-24.6-0.1-49.3-0.1-73.9c0-1-0.1-2-0.2-3c-54.1,12.6-107.9,12.5-161.9,0
		C48.6,290.8,48.6,317.5,48.6,344.2z M239.7,217.5c-7.1,3.1-13.6,6.5-20.5,8.8c-25.9,8.9-52.9,11.5-80,12.3
		c-18.8,0.5-37.6-0.3-56.3-2.8c-16.3-2.1-32.3-5.2-47.7-11.2c-5.3-2.1-10.3-4.9-15.5-7.4c-0.1,0.3-0.2,0.5-0.2,0.7
		c0,35.6,0,71.2,0,106.8c0,1.6,0.6,3.4,1.5,4.7c3.9,5.3,9.7,7.9,15.8,10.7c0-2,0-3.3,0-4.6c0-25.8,0-51.7,0-77.5c0-7,3-9.2,9.6-7.1
		c19.7,6.2,39.9,9.2,60.4,10c17.3,0.7,34.7,0.2,52.1-0.6c18.3-0.8,36.4-4,53.9-9.5c6.5-2,9.5,0.2,9.5,6.9c0,26.1,0,52.1,0,78.2
		c0,1.3,0,2.5,0,4.6c4.2-2.4,7.8-4.3,11.2-6.5c4.3-2.8,6.3-6.6,6.3-12.1c-0.2-33.6-0.1-67.1-0.1-100.7
		C239.7,219.9,239.7,218.6,239.7,217.5z M130,169.1c-24.1,0.3-47.5,1.9-70.5,7.3c-11.5,2.7-22.9,5.9-32.9,12.5
		c-9.4,6.2-9.7,12.6,0,18.1c7.7,4.4,16.2,8,24.8,10.5c20.3,6.1,41.3,8.2,62.4,9c28.9,1.2,57.6-0.4,85.9-6.8
		c11.5-2.6,22.9-5.9,32.9-12.5c9.3-6.1,9.6-12.5,0-18.1c-7-4.1-14.6-7.4-22.4-9.8C183.9,171.2,156.8,169.5,130,169.1z M355.6,51.1
		c-28,11.6-57.3,13.6-86.7,13.6c-29.6,0-59-2-87.1-13.6c0,9.6,0.1,19-0.1,28.4c-0.1,3.2,1.1,5.2,3.7,6.3c4.8,2.1,9.7,4.3,14.7,5.8
		c17.7,5,35.9,6.8,54.3,7.6c25,1.1,49.9-0.2,74.4-5.5c7.7-1.7,15.1-4.8,22.5-7.6c1.7-0.7,4-2.9,4.1-4.5
		C355.8,71.5,355.6,61.4,355.6,51.1z M251.5,307.4c19.4,2.1,55.8,0,75.5-4.8c8.4-2,16.5-5.2,24.6-8c3-1,4.2-3.4,4.1-6.8
		c-0.2-12.1-0.1-24.1-0.1-36.2c0-1.1-0.1-2.2-0.2-3.3c-33.6,13.4-68.7,13.7-103.9,13.5C251.5,277,251.5,292.1,251.5,307.4z
		 M268.4,53.2c20.4-0.4,40.5-1.3,60.2-5.9c7.9-1.9,15.6-4.7,23.1-7.9c5.1-2.2,5-4.7-0.1-7.2c-4.6-2.3-9.4-4.3-14.4-5.7
		c-17.8-5.1-36.2-6.9-54.6-7.6c-24.9-1-49.7,0.2-74.1,5.5c-7.7,1.7-15.1,4.8-22.5,7.6c-1.6,0.6-2.8,2.5-4.2,3.8
		c1.4,1.4,2.6,3.3,4.3,4.1c4.6,2.1,9.3,4.1,14.1,5.4C222.6,51.5,245.6,52.7,268.4,53.2z M268.6,134.3c-19.4,0-37.2,12.5-43.5,30.7
		c-2,5.9-2,5.9,3.7,8.5c0.9,0.4,1.7,1.1,2.6,1.2c1.3,0.2,2.8,0.4,3.9-0.2c15.4-8.1,30.6-8.1,45.5,1.3c2.1,1.3,4.4,2.6,6.7,3.4
		c8.8,3,16.4,0.2,23.7-4.9c2.2-1.6,2.9-3,2.2-5.6C308.1,148.8,289.4,134.3,268.6,134.3z M243.6,183c7.6,6.1,8.1,14,7.7,22.1
		c-0.2,4.8,0.2,9.7-0.1,14.5c-0.2,3.1,0.9,4.4,3.8,5.3c24.2,7.4,50.2-6.1,57.7-30.2c0.8-2.5,1.2-5.1,1.6-7
		c-5.9,1.6-11.4,3.7-17.1,4.5c-8.6,1.1-16.3-1.8-23.4-6.7C264.5,179,254.6,179.7,243.6,183z"/>
	<path class="st1" d="M108.8,304.8c2.9-2.1,5.5-4.1,8.1-6c14.5-10.4,33.5-10.6,48.1-0.4c4.7,3.3,9.3,6.9,13.9,10.4
		c3.5,2.7,4.2,6.9,1,9.3c-7.5,5.6-14.9,11.8-23.3,15.8c-13.5,6.3-27,4.1-39.4-4.4c-2.9-2-5.6-4.1-8.6-6.3c-5,7.2-11.4,12-20,13.5
		c-1.6,0.3-3.3,0.5-5,0.5c-4.8,0-7.3-3.4-6-8c1.1-3.7,2.2-7.4,3.7-10.9c1.2-2.9,1.2-5.5,0.1-8.3c-1.3-3.3-2.3-6.8-3.4-10.3
		c-1.8-5.7,0.6-9,6.6-8.8c8.4,0.3,15.3,3.9,20.9,10C106.6,302,107.5,303.3,108.8,304.8z M116.8,314c15.8,15.8,34.6,14.5,48.8-0.1
		C148.8,298,131.3,299.8,116.8,314z M92.5,305.5c2.8,5.7,2.8,11.3,0.4,17.2c2.8-2.6,6.2-5.4,6.6-8.6
		C100,310.3,96.3,307.6,92.5,305.5z"/>
	<path class="st1" d="M77.1,216.3c-5.5-1.2-11-2.2-16.4-3.9c-2.7-0.8-5.2-2.5-7.4-4.4c-6.7-5.6-6.7-14.3,0-20
		c4.8-4.1,10.6-6.1,16.8-6.9c8.1-1.1,16.1-0.7,23.8,2.4c2.6,1.1,5.2,2.6,7.4,4.4c6.9,5.7,6.8,14.4,0,20.3
		C95.9,212.9,87.5,215.5,77.1,216.3z M60.2,198.2c6.7,8.2,31.8,6.7,34.4-0.4C88.3,190.2,64.7,191,60.2,198.2z"/>
</g>
</svg>
