<?xml version="1.0" encoding="utf-8"?>
<!-- Generator: Adobe Illustrator 25.2.0, SVG Export Plug-In . SVG Version: 6.00 Build 0)  -->
<svg version="1.1" id="Capa_1" xmlns="http://www.w3.org/2000/svg" xmlns:xlink="http://www.w3.org/1999/xlink" x="0px" y="0px"
	 viewBox="0 0 375 373" style="enable-background:new 0 0 375 373;" xml:space="preserve">
<style type="text/css">
	.st0{opacity:0.75;}
	.st1{fill:none;stroke:#FFFFFF;stroke-miterlimit:10;}
</style>
<g class="st0">
	<path class="st1" d="M5.6,165.8c0.7-4,1.4-8.1,2.1-12.1c0.7-3.6,2.9-5.7,5.9-5.3c3.2,0.3,5.1,2.8,4.7,6.7
		c-0.5,6.6-1.8,13.2-1.8,19.7c-0.1,17.4,4.5,33.6,12.8,48.9c5,9.1,10,18.2,15,27.3c0.3,0.6,0.7,1.1,1.5,2.2
		c0.6-5.8,2.9-10.2,7.2-13.3c8.6-6.3,20.3-4.3,25.6,5c7.1,12.4,17.7,20.7,30.3,27.2c0.6-0.8,1.3-1.4,1.8-2.2
		c5.4-8.2,12.5-14.4,21.2-19c3.9-2,6.9-1.6,8.7,1.3c1.8,3,0.7,6-3.3,8.1c-14,7.5-22.3,19-24.5,34.8c-2.1,14.6,2.4,27.2,12.4,37.6
		c11.2,11.7,25.5,14.9,41.5,13.6c0.8-7,1.6-14.1,2.4-21.1c0.3-2.6,0.4-5.2,0.8-7.8c0.5-3.7,3.1-5.7,6.3-5.3c3.2,0.4,5,3.1,4.6,6.8
		c-1,9-2,18.1-3,27.3c8.2,0,16.4,0,24.9,0c0.7-5.5,1.3-10.9,2-16.4c0.5-3.9,2.6-5.9,5.9-5.7c3.2,0.2,5.1,2.6,4.8,6.6
		c-0.4,5.1-1,10.1-1.5,15.4c17.4,0,34.6,0,52.3,0c0.6-5.3,1.3-10.7,1.9-16.1c0.1-0.7,0-1.4,0.2-2.1c0.8-3.6,3.3-5.6,6.6-4.9
		c2.9,0.6,4.7,3.3,4.3,6.8c-0.6,5.2-1.2,10.3-1.7,15.5c0,0.2,0.1,0.4,0.2,0.6c0.1,0.1,0.2,0.2,0.3,0.2c19.5-0.1,39.1,0.2,58.6-0.6
		c10.8-0.5,20-11.3,21.2-22.6c1.1-11.2-5.6-22.5-16-26.3c-4.5-1.6-9.2-2.6-14.2-3.9c-0.9,7.6-1.7,14.6-2.5,21.6
		c-0.5,4.5-1,8.9-1.5,13.4c-0.4,3.7-2.9,6.1-5.9,5.8c-3.2-0.3-5.2-2.8-4.8-6.6c1-10.4,2.2-20.7,3.3-31c0.2-1.6,0.3-3.3,0.5-5.4
		c-26.6-6.1-53.1-12.1-80.1-18.3c-0.4,4-0.8,7.6-1.2,11.2c-0.6,4.8-4.4,7.4-8.1,5.4c-2.5-1.4-3.1-3.6-2.8-6.4
		c0.5-4.1,0.9-8.2,1.3-12.7c-17.2-3.9-34.2-7.8-51.7-11.8c-0.7,6-1.3,11.6-2,17.2c-0.3,3.1-0.5,6.1-1,9.2c-0.7,4.6-3.1,6.6-6.7,6
		c-3.1-0.5-4.7-3.3-4.2-7.5c0.9-7.4,1.8-14.8,2.6-22.2c0.2-1.5,0.2-3,0.3-5.2c-1.9,0-3.5,0.1-5.1,0c-4.3-0.2-6.7-2.3-6.5-5.8
		c0.2-3.4,2.7-5.5,6.8-4.9c10.2,1.6,20.4,3.5,30.6,5.4c5.6,1.1,11,2.5,16.8,3.8c0.5-0.8,1-1.5,1.5-2.3c7-13.3,14.6-26.3,20.8-39.9
		c7.1-15.6,9.2-32.2,6.8-49.3c-2.9-20.6-10.4-39-26.5-53c-20.1-17.5-50.2-20.1-71.8-4.3c-7.9,5.8-12.6,5.6-20.7,0
		c-25.2-17.5-60-12.6-79.1,11.4c-4,4.9-7,10.7-10.4,16c-0.8,1.2-1.2,2.6-2.1,3.7c-1.7,2.4-4,3.3-6.8,1.8c-2.6-1.3-3.9-4.1-2.5-6.9
		c2.9-5.7,5.7-11.5,9.4-16.6c12-16.7,28.2-27.1,48.7-30c15.6-2.2,30.4,0.4,44.1,8.5c1,0.6,2,1.1,3.3,1.9c0-5.2,0-10,0-15.2
		c-1.7,0.3-3.3,0.5-4.9,0.8C99.6,83.2,85.5,79.3,72.8,70C57.4,58.7,47.2,43.3,39.2,26.3c-1.8-3.8-0.4-7.5,3.3-8.2
		c20.1-4,39.8-3.7,57.8,7.8c8.1,5.2,14.3,12.3,20.1,20.4c0-1.9,0-3.7,0-5.6c0-4.3-0.1-8.5,0-12.8c0.1-3.9,2.2-6.3,5.3-6.3
		c3.2,0,5.5,2.5,5.5,6.5c0,20.8,0,41.7,0,62.5c0,1.3,0,2.5,0,3.9c34.2-18.6,64.4-12.9,92,14c0.6-4.3,1.4-8.4,1.8-12.4
		c1-9,1.1-18.2,3-27.1c3.2-14.7,10.8-27,23.5-35.6c17.7-12,40.4-8.9,55.3,7.3c11.1,12.1,16.5,26.6,17,42.9
		c0.5,17.1,3,33.8,12.2,48.6c3.6,5.9,8.1,11.3,12.7,16.6c11.5,13.1,17.8,28.4,19.8,45.4c3.2,27-2.7,52-18.6,74.2
		c-3.8,5.4-8.6,10-13.2,15.2c1.6,0.5,3.4,1,5.2,1.6c26.6,8.4,35.1,40.2,15.9,60.5c-6.7,7-15.1,11.1-24.9,11.1
		c-58.2,0.2-116.3,0.4-174.5,0.3c-22.6,0-39.5-10.5-50.7-30.1c-1.5-2.6-2.5-5.6-4-8.9c-3.7,1.2-7.5,2.3-11.2,3.7
		c-9.6,3.6-17.7,9.3-24.8,16.6c-9.1,9.4-25.5,5-29.2-7.5c-2.4-8.2,1.1-14.5,6.5-20.1c1.2-1.2,2.6-2.3,4.7-4.1
		c-9.7-1.1-18.3-2.1-26.9-3c-9-0.9-16.2-7.8-16.5-16.1c-0.5-9.9,5.2-17.6,14.8-19c4.3-0.6,8.9,0.3,13.4,0.7c2.4,0.2,4.9,0.5,7.9,0.8
		c-2.1-3.8-3.9-7.1-5.7-10.4c-6.5-12-13.3-24-19.6-36.2c-6-11.6-9.7-24.1-10.8-37.2c-0.1-0.7-0.4-1.3-0.7-1.9
		C5.6,178.1,5.6,172,5.6,165.8z M246.2,160.4c0.2-0.1,1-0.5,1.8-1c25.3-14.2,57-7.5,74.3,15.6c4.8,6.4,8.1,13.6,9.9,21.4
		c0.7,3.1-0.9,6.1-3.5,6.9c-2.9,0.9-5.5-0.5-6.8-3.6c-0.5-1.2-0.8-2.5-1.1-3.7c-9-30.9-47.2-43.4-72.5-23.5c-1,0.8-1.8,2.4-1.9,3.8
		c-0.5,3.9-0.5,7.8-1,11.7c-1.6,12.9-5.4,25.1-11.2,36.8c-0.5,1-0.5,2.6-0.1,3.6c9.6,22.8,37.9,33.8,60.4,23.7
		c14.4-6.5,23.2-17.4,27.3-32.4c1.1-4,3.6-6,6.7-5.2c3.2,0.8,4.8,3.8,3.9,7.6c-8.9,38.3-52.4,57.1-86.5,35.9
		c-7.8-4.9-14-11.4-19.1-19.6c-3.4,6.3-6.7,12.1-9.8,18c0.6,0.4,0.8,0.6,1,0.6c33.9,7.8,67.9,15.5,101.8,23.2c1.2,0.3,3,0,3.9-0.7
		c4.4-3.6,9.1-6.9,12.8-11.1c14-15.7,20.7-34.5,21.9-55.3c1.3-22.4-4.3-42.5-20-59.4c-4.3-4.6-8.3-9.8-11.5-15.2
		c-9.5-15.6-13.3-32.9-13.6-51.1c-0.2-13.7-4-26.3-12.8-37.1c-11.7-14.4-30.9-17.1-44.8-6C244.2,53,239,65.6,237.3,79.8
		c-1.1,8.8-0.7,17.9-2.6,26.4c-2,9.1-2.5,16.9,2.2,25.8C241.5,140.6,243.2,150.8,246.2,160.4z M103.3,281.3
		C103.8,281.7,103.6,281.4,103.3,281.3c-14-7.3-25.9-16.6-33.9-30.5c-0.8-1.5-2.7-2.7-4.4-3.2c-2.6-0.9-5.1,0-6.9,2.4
		c-2,2.6-2,5.4-0.2,7.9c3.8,5.5,7.9,10.9,12,16.2c1.6,2.2,2.8,4.7,0.9,6.7c-1.4,1.5-3.9,2.4-6,2.6c-2.5,0.3-5.2-0.5-7.7-0.7
		c-10.6-1.2-21.2-2.4-31.7-3.5c-3.4-0.4-6.3,0.6-7.7,4.2c-2,5,1.4,8.9,7.9,9.6c12.8,1.3,25.6,2.8,38.4,4.3c3.3,0.4,5.5,2.8,4.8,5.8
		c-0.4,1.8-2,3.6-3.5,4.9c-4.5,4.1-9.4,7.9-13.9,12.1c-3.4,3.3-3.4,7.6-0.6,10.4c2.8,2.8,6.9,2.5,10.4-0.9c1.6-1.6,3.1-3.2,4.8-4.7
		c9.5-8.5,20.7-13.5,32.8-16.9c2.2-0.6,2.7-1.5,2.8-3.6C102,297.1,102.7,289.6,103.3,281.3z M117,68.9c-8-33.2-35.4-46-65-41.2
		C60.3,42.8,69.9,56.5,85.3,65C95.3,70.5,105.9,72,117,68.9z"/>
</g>
</svg>
