<?xml version="1.0" encoding="utf-8"?>
<!-- Generator: Adobe Illustrator 25.2.0, SVG Export Plug-In . SVG Version: 6.00 Build 0)  -->
<svg version="1.1" id="Capa_1" xmlns="http://www.w3.org/2000/svg" xmlns:xlink="http://www.w3.org/1999/xlink" x="0px" y="0px"
	 viewBox="0 0 375 373" style="enable-background:new 0 0 375 373;" xml:space="preserve">
<style type="text/css">
	.st0{fill:none;stroke:#FFFFFF;stroke-width:0.9852;stroke-miterlimit:10;}
</style>
<g>
	<path class="st0" d="M369.8,63.4c-2.1,5.5-6.4,8.7-11.5,11.3c-8,4.1-15.9,8.5-23.8,12.7c-1.6,0.9-2.3,1.6-2.2,3.7
		c1.2,16.6-4.6,30.4-17.1,41.3c-2.8,2.4-6.1,2.2-8.2-0.4c-2.1-2.5-1.6-5.4,1.4-8.1c9.5-8.4,13.7-18.9,13.1-31.6
		c-0.9-19.7-19.6-36.5-39.3-35.1c-22.3,1.6-37.4,18.5-36.3,40.9c0.7,16.3,14.8,32,31.1,34.2c4.9,0.6,9.9,0.1,14.8,0
		c3.5-0.1,5.8,1.5,6.1,4.5c0.4,3.1-1.3,5.7-4.6,6.1c-4.9,0.5-9.9,0.7-14.9,0.7c-2,0-3,0.6-3.8,2.2c-4.6,8.7-9.4,17.3-13.9,26
		c-3,5.7-7.3,9.5-13.9,9.4c-6.5-0.1-11.1-3.6-13.6-9.7c-1-2.5-2.7-3.2-5.4-2.4c-3.9,1.2-8,2.9-12,2.7c-9.3-0.5-15.1-9.7-12.4-18.8
		c0.5-1.8,1.2-3.6,1.9-5.4c1.3-3.9,0.9-4.8-2.9-6.6c-6.7-3.1-9.8-9-8.5-16.2c0.9-4.8,3.9-8,8-10.2c9.9-5.3,19.8-10.7,29.8-15.9
		c2.1-1.1,3-2.3,3.2-4.8c1.5-27.6,21.7-47.2,48.9-47.7c2,0,2.9-0.7,3.8-2.4c5-9.5,10.2-19,15.2-28.5c3-5.7,7.3-9.3,14-9.1
		c6.5,0.2,10.8,3.6,13.2,9.6c1.1,2.8,3.2,3,5.8,2.3c3.4-1,6.8-2.4,10.2-2.5c9.6-0.4,16.5,8.8,14,18.1c-0.6,2.3-1.6,4.5-2.3,6.7
		c-0.7,2.2-0.6,4.4,2,5.3c5.1,1.8,8,5.6,10,10.4C369.8,58.6,369.8,61,369.8,63.4z M236.7,108.6c-9.9,5.3-19.5,10.4-28.9,15.6
		c-1.3,0.7-3.1,2.6-2.9,3.8c0.2,1.4,1.9,3.1,3.3,3.8c7.2,3.6,10.4,10.6,7.9,18.4c-0.6,1.9-1.4,3.8-1.9,5.7c-1.1,3.9,1,6.1,5,5
		c1.4-0.4,2.7-0.9,4-1.4c9.7-3.3,15.8-0.8,20.5,8.3c0.6,1.1,2,2.4,3,2.4c1.2,0,3-0.9,3.6-2c5.1-9.1,10-18.3,15-27.6
		C251,134.2,241.5,123.7,236.7,108.6z M329.4,77.8c9.3-5,18.4-9.8,27.4-14.8c3.2-1.8,2.9-5-0.2-6.6c-9.9-5.3-11.9-10.6-8.4-21.2
		c0.8-2.4,3.1-4.9,0.5-7.6c-2.6-2.6-5.2-0.3-7.6,0.4c-10.6,3.6-16.1,1.5-21.2-8.3c-1.7-3.2-4.9-3.5-6.6-0.3
		c-5.3,9.5-10.3,19.1-15.6,28.9C312.7,53.3,323.2,62.9,329.4,77.8z"/>
	<path class="st0" d="M130.3,354.7c4-0.9,7.9-2,11.8-2.7c2.6-0.4,2.9-1.5,2.3-3.9c-3.3-13.7-6.4-27.4-9.5-41.1
		c-9.3-40.5-18.6-80.9-27.9-121.4c-0.1-0.3-0.3-0.6-0.5-1.2c-4.8,1.1-9.6,2.2-14.8,3.4c1.4,6.1,2.7,12.1,4.1,18.2
		c0.6,2.5,1.3,5,1.8,7.6c0.7,4-0.9,6.7-4.2,7.4c-3,0.6-5.5-1.3-6.4-5.2c-2.2-9.2-4.3-18.4-6.2-26.7c-8.6-2.7-16.8-4.8-24.7-7.9
		c-8.6-3.5-15.5-9.6-21.6-16.5c-0.7-0.8-2.4-1.5-3.4-1.4c-9.9,1.3-19.1-4.7-21.5-14.4c-1.4-5.7-2.7-11.5-4-17.3
		c-2.1-9.6,2.9-18.9,12.2-22.1c2.2-0.8,3.1-1.9,3.7-4c7.9-29.7,35.4-50,66-48.4c18.8,1,34.5,8.6,46.9,22.9c0.9,1,2.8,1.7,4.2,1.6
		c10-1,18.7,4.8,21.1,14.6c1.4,5.6,2.6,11.3,3.9,17c2.2,9.8-2.8,19.2-12.2,22.4c-2.1,0.7-3,1.8-3.5,3.8
		c-4.5,16.7-14.1,29.6-28.7,38.8c-1.9,1.2-2.1,2.2-1.6,4.3c13,56.3,25.9,112.7,38.9,169.1c1.5,6.5,0.5,8.2-6.1,9.7
		c-7.2,1.7-14.5,3.4-21.8,5c-4.7,1.1-6.9-0.3-8-5c-5.9-25.6-11.8-51.2-17.7-76.7c-3.5-15-6.9-30-10.4-44.9c-1-4.3,0.3-7.3,3.5-8.1
		c3.4-0.8,6,0.9,6.9,4.9c4,17.3,8,34.6,12,51.8c5,21.7,10,43.3,15,65C129.9,353.6,130.1,354,130.3,354.7z M32.6,105.9
		c4.8-1.1,8.9-1.9,13-2.9c5.6-1.3,11.3-2.7,16.9-3.9c3.7-0.8,6.4,1,7,4.2c0.6,3.1-1.1,5.4-4.7,6.4c-0.9,0.3-1.8,0.5-2.8,0.7
		c-13.1,3.1-26.3,6-39.4,9.2c-5.1,1.2-7.4,5-6.3,10.1c1,5,2.1,9.9,3.3,14.9c1.7,7,5.3,9.1,12.3,7.5c13.9-3.2,27.9-6.5,41.8-9.6
		c4-0.9,6.9,0.6,7.5,3.8c0.7,3.3-1.2,5.8-5.1,6.8c-6.3,1.5-12.7,2.9-19,4.4c-3.8,0.9-7.6,1.8-12.1,2.9c16.3,15.2,34.4,20.4,55,14.4
		c18-5.2,29.9-17.2,36.5-35.5c-2.6,0.5-4.4,0.9-6.2,1.3c-7.4,1.7-14.7,3.4-22.1,5.1c-3.7,0.9-6.7-0.6-7.5-3.5
		c-0.9-3.3,0.8-5.9,4.7-7c1.7-0.5,3.4-0.9,5.2-1.3c11.8-2.7,23.5-5.3,35.3-8c5.6-1.3,8-5.1,6.8-10.8c-1.1-5.3-2.3-10.6-3.6-15.9
		c-1.3-5-5.1-7.5-10.2-6.5c-2.3,0.4-4.6,1.1-6.9,1.6c-9.7,2.2-19.3,4.6-29,6.7c-1.6,0.4-4,0.5-5.1-0.4c-1.4-1.1-2.7-3.4-2.8-5.2
		c-0.2-2.8,2.1-4.3,4.8-4.9c7.8-1.8,15.6-3.6,24.2-5.6c-14.5-14-31-19.4-49.9-15.7C53.8,73.2,40.2,85.7,32.6,105.9z"/>
	<path class="st0" d="M196,193c4.5,0,8.2,1.9,11.5,4.9c9.6,8.8,19.4,17.5,28.9,26.4c1.9,1.8,3.4,2.1,5.9,1.2
		c28.2-9.8,59.2,5.3,69.1,33.5c0.9,2.5,2.2,3.4,4.7,3.8c12.8,1.8,25.5,3.7,38.3,5.8c6.3,1.1,10.8,4.8,12.6,11.1
		c1.9,6.3,0.1,11.7-4.6,16.1c-3.4,3.3-3.6,5.2-0.7,8.8c1.2,1.6,2.6,3.1,3.8,4.7c4.1,5.3,4.9,11,2,17c-2.9,5.9-7.9,8.6-14.3,8.9
		c-2.3,0.1-4.5,0-6.8,0.1c-3.7,0.1-5.6,1.6-5.7,5.3c-0.2,7.1-3.6,12-10,14.5c-6.5,2.6-12.2,0.8-17.3-3.9
		c-8.5-7.9-17.2-15.6-25.8-23.5c-1.6-1.5-2.9-1.7-5-0.8c-32,14.3-67.5-3-76-37.2c-0.6-2.6-1.9-3.3-4.3-3.6
		c-12.1-1.8-24.1-3.6-36.1-5.6c-6.2-1-10.2-4.8-12.1-10.7c-1.9-6.1-0.4-11.5,4.1-16c4.1-4.1,4.2-5.4,0.6-9.9
		c-3.6-4.4-7.3-8.7-6.9-15.1c0.5-7.7,6.7-14.2,14.3-14.6c2.5-0.1,5-0.1,7.5-0.2c4.8-0.1,6.4-1.6,6.7-6.3
		C180.9,199.3,187.5,193,196,193z M260,233.5c-24.4,0-44,19.4-44,43.6c0,24.1,19.5,44,43.3,44c24.6,0.1,44.3-19.4,44.3-43.7
		C303.7,253.1,284.2,233.5,260,233.5z M228.8,232c-10-9.1-19.6-18-29.5-26.6c-1.2-1-4.1-1.4-5.4-0.7c-1.4,0.7-2.5,3.1-2.6,4.9
		c-0.7,9.1-7.1,15.3-16.2,15.4c-2.3,0-4.6-0.3-6.7,0.1c-1.8,0.4-4.1,1.4-4.7,2.8c-0.7,1.4,0.2,3.7,0.8,5.5c0.4,1.2,1.6,2.1,2.4,3.1
		c7.8,9.7,7.6,16.2-0.9,25.2c-2.9,3.1-1.7,7.5,2.4,8.2c12.1,2,24.3,3.8,36.7,5.7C206.1,257.3,214,242.9,228.8,232z M294.8,319.6
		c9,8.1,17.6,15.9,26.2,23.7c1.8,1.6,3.9,3.1,6,1.5c1.5-1.2,2.8-3.5,3-5.5c0.7-7.7,5.8-13.7,13.4-14.7c3.3-0.4,6.6-0.3,9.9-0.5
		c4.5-0.3,6.4-4,3.9-7.7c-1.5-2.1-3.2-4.1-4.8-6.2c-5.3-7-4.7-15.5,1.7-21.5c1.8-1.7,3.3-3.4,2.5-6.1c-0.8-2.8-3.1-3.3-5.5-3.6
		c-7.2-1.1-14.5-2.3-21.7-3.4c-4.8-0.7-9.7-1.4-14.6-2.1C315.2,292.2,308.6,307.3,294.8,319.6z"/>
	<path class="st0" d="M315.2,93.4c0.3,4.4-1.5,6.9-5,7.1c-3.6,0.2-5.6-2.1-5.8-6.4c-0.6-10.5-8.6-18.5-19.1-19.5
		c-2.1-0.2-4.5-1.1-5.8-2.6c-1-1.1-1-3.9-0.4-5.5c1-2.6,3.6-3.1,6.3-2.9C301.7,64.7,314.1,77.1,315.2,93.4z"/>
	<path class="st0" d="M295,276.2c0,15.2-8.7,28.3-21.7,33.5c-4.1,1.7-7.2,0.9-8.5-2.3c-1.4-3.2,0.1-5.9,4.1-7.7
		c12-5.4,17.5-16.9,14-29.8c-1.1-4,0.2-6.9,3.2-7.8c3.3-1,6.1,0.8,7.3,4.9c0.6,2,1,4.1,1.3,6.2C295,274.6,295,275.9,295,276.2z"/>
</g>
</svg>
