<?xml version="1.0" encoding="utf-8"?>
<!-- Generator: Adobe Illustrator 25.2.0, SVG Export Plug-In . SVG Version: 6.00 Build 0)  -->
<svg version="1.1" id="Capa_1" xmlns="http://www.w3.org/2000/svg" xmlns:xlink="http://www.w3.org/1999/xlink" x="0px" y="0px"
	 viewBox="0 0 375 373" style="enable-background:new 0 0 375 373;" xml:space="preserve">
<style type="text/css">
	.st0{opacity:0.75;fill:none;stroke:#FFFFFF;stroke-miterlimit:10;}
</style>
<g>
	<path class="st0" d="M371.5,360.4c-3.4,6.3-8.8,8.5-15.7,7.9c-3.4-0.3-6.9,0-10.4-0.1c-4-0.1-6.6-2.3-6.7-5.5
		c0-3.2,2.5-5.4,6.6-5.5c5-0.1,10,0,15.2,0c0.1-1.4,0.2-2.5,0.2-3.5c0-22.1,0-44.1,0.1-66.2c0-2.6-0.9-3.6-3.2-4.5
		c-14.5-5.6-23.7-19.2-23.7-34.7c0-15.4,9-28.9,23.4-34.5c3-1.2,3.6-2.5,3.2-5.5c-3-18.8-15.5-31.1-34.7-32.1
		c-15.3-0.8-30.7-0.5-45.9,0.4c-16.5,1-31.1,16.9-31.2,33.5c-0.2,48.4-0.1,96.9-0.1,145.3c0,0.5,0.1,0.9,0.2,1.9c1.4,0,2.8,0,4.2,0
		c20.7,0,41.4,0,62.2,0c1.2,0,2.4,0,3.6,0.1c3.5,0.4,5.4,2.3,5.4,5.5c0,3-2.1,5.1-5.5,5.4c-1,0.1-1.9,0-2.9,0
		c-91.6,0-183.3,0-274.9,0c-9.6,0-13.3-2.9-14.6-12.4c-2.2-16.3-4.1-32.6-6.1-48.9c-2-16.4-4-32.9-6-49.3c-1-8.3-2.1-16.5-3.3-24.8
		c-0.2-1-1.1-2.3-2-2.9c-3.4-2.1-5.3-5-5.3-9.1c0.1-4.9,0-9.8,0-14.7c0.1-5.6,3.6-9.7,9.2-9.8c15.2-0.2,30.4-0.2,45.6-0.1
		c3.7,0,5.7,2.3,5.5,5.6c-0.1,3.2-2.3,5.2-6.1,5.2c-13.1,0.1-26.1,0-39.2,0c-1.3,0-2.6,0-4.2,0c0,4.3,0,8.4,0,12.7
		c52.7,0,105.3,0,158.1,0c0-4.2,0-8.3,0-12.7c-1.6,0-3,0-4.4,0c-27.2,0-54.4,0-81.6,0c-1,0-1.9,0.1-2.9,0c-3-0.3-5.2-2.7-5.3-5.4
		c0-2.8,2.1-5.1,5.2-5.4c2.6-0.2,5.3-0.1,7.9-0.1c10,0,20.1,0,30.6,0c0-1.6,0-2.9,0-4.2c0-18.3,0-36.5,0-54.8
		c0-19.1,5.3-36.3,17.1-51.6c7.8-10,15.2-20.2,22.8-30.4c0.6-0.8,1.1-1.7,1.7-2.6c-9.2-3.7-10.6-5.9-10.6-16c0-6.6,0-13.1,0-19.7
		c0.1-7.7,4.8-12.4,12.6-12.4c26.5,0,52.9,0,79.4,0c7.7,0,12.4,4.7,12.5,12.5c0.1,6.9,0,13.8,0,20.8c0,8.7-2.2,11.8-10.6,14.6
		c0.6,0.9,1,1.8,1.6,2.6c7.8,10.4,15.5,20.9,23.4,31.3c11.1,14.6,16.3,31.1,16.6,49.2c0.2,9.6,0,19.3,0,29.3c1.8,0,3.3,0,4.9,0
		c12.7,0.2,25.5-0.5,38,0.9c19.5,2.1,35.4,18,39.1,37.2c0.2,0.9,0.5,1.8,0.8,2.7c0,3.1,0,6.2,0,9.3c-1.9,4.5-5.3,6.9-9.8,8.6
		c-10.3,3.8-16.8,13.4-16.8,24.2c-0.1,11.1,6.2,21,16.5,24.8c4.5,1.7,7.9,4.1,10.1,8.3C371.5,307.4,371.5,333.9,371.5,360.4z
		 M155,196.3c6.6,0,12.8-0.2,19,0c6,0.2,9.7,4.2,9.8,10.1c0.1,4.9,0.4,9.8-0.1,14.7c-0.3,2.5-2,4.9-3.1,7.3c-0.7,1.4-2,2.7-2.2,4.2
		c-1.6,12.2-3.1,24.3-4.6,36.5c-2.1,16.8-4.2,33.5-6.2,50.3c-0.6,5.2-1.2,10.5-1.8,15.8c24.2,0,47.8,0,71.8,0c0-1.8,0-3.3,0-4.9
		c0-38.8,0.1-77.5,0-116.3c0-15.1,5.2-27.6,16.5-37.7c1-0.9,1.8-2.6,1.8-3.9c0.1-12.9,0.2-25.8,0-38.6c-0.1-9.3-2.9-17.8-8.2-25.5
		c-2.9-4.2-6.2-8.2-9.1-12.4c-1.5-2.2-3.3-3-6-3c-14.6,0.1-29.2,0-43.8,0.1c-4.5,0-9.8-1.2-13.4,0.7c-3.8,1.9-5.9,6.9-8.9,10.5
		c-8.2,9.9-11.6,21.4-11.4,34.1c0.2,17.9,0.1,35.8,0.1,53.7C155,193.2,155,194.5,155,196.3z M277.7,165.3c0-10.3,0.2-20.5,0-30.8
		c-0.3-14.5-4.3-28-13-39.8c-9.9-13.4-20-26.8-30.1-40.1c-0.9-1.2-2.8-2.2-4.3-2.2c-16.5-0.2-33.1-0.2-49.6,0c-1.5,0-3.4,1-4.3,2.2
		c-10.1,13.3-20.2,26.7-30.1,40.1c-7.8,10.5-12.3,22.4-12.7,35.5c-0.5,21.3-0.4,42.7-0.5,64.1c0,0.5,0.3,1.1,0.4,1.6
		c3.5,0,6.8,0,10.4,0c0-1.6,0-2.8,0-4.1c0-17.8,0-35.6,0-53.3c0-10.2,1.2-20.4,6.4-29.3c4.7-8.1,10.6-15.6,16.2-23.1
		c2.3-3.1,6.1-4.1,10-4.1c19.3,0,38.6,0,57.8,0c4.7,0,8.6,1.8,11.4,5.6c3.4,4.5,6.8,9,10.1,13.5c6.5,9,10.2,19.1,10.7,30.2
		c0.4,11,0.3,21.9,0.4,32.9c0,1.2,0,2.5,0,3.9C270.9,167.1,274.2,166.2,277.7,165.3z M22,231.1c0.1,1.9,0.2,3.5,0.4,5.2
		c1.1,8.9,2.4,17.7,3.3,26.6c0.3,2.4,1,3.2,3.4,3.2c11.5-0.1,23,0,34.5-0.1c1.4,0,3.1-0.6,4.1-1.5c15.9-13.7,38-13.8,53.7-0.3
		c1.2,1,3.1,1.8,4.7,1.8c10.3,0.2,20.6,0.1,30.9,0.1c2,0,4,0,6.2,0c1.5-11.8,2.9-23.3,4.3-34.9C118.9,231.1,70.6,231.1,22,231.1z
		 M156.2,322.1c-10.9,0-21.2-0.1-31.5,0.1c-1.1,0-2.4,1-3.3,1.8c-16.1,13.7-37.9,13.6-53.7-0.2c-1.1-1-2.9-1.6-4.4-1.6
		c-7.8-0.2-15.6-0.1-23.4-0.1c-2.2,0-4.4,0-6.8,0c1.5,12,2.9,23.4,4.4,35.1c1.7,0,3.1,0,4.6,0c19.3,0,38.6,0,57.9,0
		c16.3,0,32.6,0,48.9,0c2.6,0,3.6-0.7,3.7-3.4c0.1-3,0.7-5.9,1-8.9C154.3,337.6,155.2,330.1,156.2,322.1z M123.8,294.3
		c0.1-16-12.7-29-28.6-29.2C78.7,265,65.4,277.8,65.3,294c-0.1,15.7,13.1,29.1,28.8,29.2C110.6,323.3,123.7,310.6,123.8,294.3z
		 M246.4,41.1c0-8.6,0-16.8,0-25.2c-27.4,0-54.6,0-81.9,0c0,8.5,0,16.8,0,25.2C191.9,41.1,219,41.1,246.4,41.1z M31.7,311
		c8.9,0,17.5,0,26.4,0c-4.8-11.2-4.8-22.3-0.1-33.5c-10.3,0-20.3,0-30.5,0C28.9,288.7,30.3,299.7,31.7,311z M131.5,311.1
		c8.2,0,16.3,0.1,24.4-0.1c0.7,0,1.9-1.8,2-2.9c0.8-5.3,1.4-10.6,2.1-15.9c0.6-4.9,1.1-9.8,1.7-14.7c-10.4,0-20.2,0-30.1,0
		C135.6,291.2,136.5,294.5,131.5,311.1z M163.1,356.9c25,0,49.6,0,74.2,0c0-3.6,0-6.8,0-9.9c-0.4-0.2-0.5-0.3-0.6-0.3
		c-23.5-0.1-46.9-0.1-70.4-0.1c-0.8,0-2,1.2-2.2,2C163.5,351.2,163.4,353.9,163.1,356.9z"/>
	<path class="st0" d="M347,321.1c0,14.9-12.3,27.1-27.2,27.1c-14.8,0-27.2-12.4-27.2-27.1c0-14.7,12.5-27.1,27.3-27.1
		C334.8,293.9,347,306.2,347,321.1z M303.8,320.9c0,9,6.9,16.2,15.9,16.3c8.8,0.1,16.3-7.1,16.4-16c0.1-8.8-7.2-16.1-16.1-16.2
		C311,304.9,303.8,311.9,303.8,320.9z"/>
	<path class="st0" d="M307.5,231.6c-12.9,0-23-10.3-23-23.3c0.1-12.6,10.4-22.8,23.1-22.8c12.8,0,23.3,10.5,23.3,23.2
		C330.9,221.4,320.4,231.6,307.5,231.6z M319.8,208.5c0-6.9-5.3-12.2-12.3-12.1c-6.6,0-12.1,5.4-12.2,12
		c-0.1,6.6,5.6,12.4,12.2,12.4C314.4,220.9,319.8,215.4,319.8,208.5z"/>
	<path class="st0" d="M301.9,268.7c0,10.1-8.1,18.2-18.1,18.3c-10,0.1-18.6-8.5-18.5-18.5c0.1-9.9,8.5-18.2,18.5-18.1
		C293.8,250.5,301.9,258.7,301.9,268.7z M283.6,276c4.1,0,7.3-3,7.5-7.1c0.1-4.1-3.2-7.5-7.4-7.4c-4.1,0-7.2,3.1-7.2,7.2
		C276.4,272.9,279.4,276,283.6,276z"/>
</g>
</svg>
