<?xml version="1.0" encoding="utf-8"?>
<!-- Generator: Adobe Illustrator 25.2.0, SVG Export Plug-In . SVG Version: 6.00 Build 0)  -->
<svg version="1.1" id="Capa_1" xmlns="http://www.w3.org/2000/svg" xmlns:xlink="http://www.w3.org/1999/xlink" x="0px" y="0px"
	 viewBox="0 0 203.6 105.6" style="enable-background:new 0 0 203.6 105.6;" xml:space="preserve">
<style type="text/css">
	.st0{fill:#575756;}
	.st1{enable-background:new    ;}
	.st2{fill:#81B932;}
	.st3{fill:#EA522C;}
	.st4{fill:#AC3827;}
	.st5{fill:#FFFFFF;}
	.st6{fill:#607130;}
	.st7{fill:none;}
</style>
<g id="Capa_2_1_">
	<g id="Capa_1-2">
		<path class="st0" d="M170.7,33.8c0.4-0.6,0.9-1.3,1.4-1.8c1.3-1.6,3.6-1.8,5.2-0.5c0.2,0.1,0.5,0.1,0.8,0.1c4-0.9,8.2-1,12.2-0.4
			c0.2,0,0.3,0,0.5,0c0.4-0.1,0.8-0.3,1.2-0.4s0.7-0.1,1.1-0.2c-3.5-2.5-15.9-3.1-20.9,0.8c0.1-0.3,0.2-0.5,0.3-0.7
			c1.8-2.9,4.5-4.2,7.7-4.5c4.2-0.5,8.3,0.5,12.4,1.4c1.2,0.3,2.3,0.6,3.4,0.9c0.3,0.1,0.8,0,0.9-0.1c0.1-0.3,0.1-0.7-0.1-1
			c-0.5-0.5-1.1-1-1.8-1.3c-2.4-0.8-4.8-1.6-7.2-2.1c-3.5-0.8-7.1-0.9-10.7-0.5c-0.7,0.1-1.4,0.2-2.2,0.3c-0.2-1.3-0.6-2.6-0.7-4
			c-0.3-3.2-0.5-6.4-0.9-9.6c-0.2-1.5-0.6-3-1.1-4.5c-1-2.7-3.5-4.6-6.4-4.9c-0.7-0.1-1.5-0.3-2.2-0.3c-0.7-0.1-1.4,0.4-1.6,1.1
			c-0.3,0.8,0,1.8,0.7,2.3c0.6,0.5,1.4,0.4,1.9-0.1c0.5-0.5,1.3-0.6,2-0.3c1.4,0.4,2.5,1.3,3.1,2.6c0.8,1.6,1.3,3.3,1.3,5
			c0.2,2.8,0.2,5.6,0.4,8.3c0.1,1.5,0.3,3.1,0.4,4.6c0,0.2,0,0.5-0.2,0.6c-0.9,0.6-1.5,1.5-1.7,2.5c-0.7,2.2-0.6,4.6,0.4,6.6
			C170.5,33.7,170.6,33.8,170.7,33.8C170.7,33.9,170.7,33.9,170.7,33.8z"/>
		<path class="st0" d="M175.2,8.5l8.9-0.4c-0.4,1.2-0.7,2.2-1.1,3.2c-0.1,0.2-0.5,0.3-0.7,0.3c-1.8,0.2-3.5,0.3-5.3,0.5
			c0,0.1,0,0.2,0,0.3h5.7c-0.2,0.9-0.3,1.7-0.5,2.4c-0.1,0.2-0.4,0.4-0.7,0.5c-1.1,0.3-2.1,0.6-3.2,0.9v0.3h3.6v2h0.1
			c0.1-0.5,0.2-0.9,0.4-1.4c0.1-0.2,0.4-0.5,0.6-0.5c1,0,2.1,0.2,3.2,0.3l-0.4,3.6h0.2l1.3-3.5l3.3,0.8c-0.5,1.6-1,3.1-1.5,4.7
			l0.1,0c0.7-1.2,1.5-2.5,2.1-3.7c0.1-0.4,0.5-0.6,0.9-0.4c0.1,0,0.1,0.1,0.2,0.1c1.2,0.6,2.5,1.2,3.8,1.8l-1.7,3.1
			c3.4-2.9,6.7-5.9,8.5-10.1c0.3-0.8,0.5-1.6,0.6-2.5c0.1-1.2-0.5-2.4-1.6-3c-1.5-0.9-3.1-1.5-4.9-1.6c-4.5-0.4-9-0.2-13.4,0.6
			c-2.9,0.4-5.7,0.9-8.6,1.4C175.1,8.4,175.1,8.4,175.2,8.5z M199.6,14l-3.8-1.1l3.1-3.3C200.3,10.7,200.5,12.3,199.6,14z
			 M192.9,16.7c0.5-0.6,0.9-1.2,1.3-1.8c0.1-0.2,0.3-0.2,0.6-0.2c1.3,0.4,2.7,0.8,4.1,1.2l-1.4,2.6L192.9,16.7z M189.9,11.9l2.8-3.6
			l2.9,0.2l0.2,0.1c-0.8,1.2-1.6,2.4-2.4,3.6c-0.1,0.1-0.3,0.2-0.5,0.2C192,12.2,191.1,12.1,189.9,11.9L189.9,11.9z M188,15.4
			c0.3-0.6,0.6-1.2,0.9-1.7c0.1-0.1,0.3-0.2,0.5-0.2c1,0.2,1.9,0.4,2.9,0.6c-0.4,0.8-0.7,1.4-1,2.1L188,15.4z M187.7,11.7
			c-1.1,0-2.1,0-3.4,0c0.7-1.3,1.3-2.3,1.8-3.3c0.1-0.2,0.3-0.3,0.5-0.3c1.2,0,2.4,0,3.7,0c-0.7,1.2-1.4,2.3-2.1,3.4
			C188.1,11.6,187.9,11.7,187.7,11.7L187.7,11.7z M184.5,12.7c0.9,0.1,1.9,0.3,2.8,0.4c-0.5,2.1-0.5,2.1-2.5,2h-2
			c0.3-0.7,0.6-1.3,0.8-1.9C183.7,12.8,184,12.6,184.5,12.7C184.5,12.6,184.5,12.7,184.5,12.7L184.5,12.7z"/>
		<path class="st0" d="M191,37.3c2.2-0.2,3.9-1.9,4.1-4.1c0.1-1.2-0.9-2.3-2.1-2.4c-0.2,0-0.4,0-0.5,0c-1.9,0.3-3.5,1.7-3.9,3.6
			c-0.4,1.2,0.3,2.5,1.5,2.8C190.4,37.3,190.7,37.4,191,37.3z M189.8,35.2c0-0.1-0.1-0.3-0.1-0.4c0-0.2,0-0.3,0.1-0.5
			c0-0.1,0-0.1,0.1-0.2V34c0,0,0-0.1,0-0.1c0.1-0.2,0.2-0.4,0.3-0.5l0.1-0.1l0.1-0.1c0-0.1,0.1-0.1,0.1-0.2c0.1-0.1,0.2-0.1,0.2-0.2
			h0.1l0.2-0.1c0.1-0.1,0.2-0.1,0.4-0.1h0.2h0.2c0.7,0,1.3,0.6,1.3,1.3c0,0,0,0,0,0c-0.1,1.1-1,1.9-2,2c-0.4,0-0.7-0.1-1-0.3v-0.1
			c0-0.1-0.1-0.1-0.1-0.2c0,0,0-0.1,0-0.1C189.8,35.3,189.8,35.2,189.8,35.2L189.8,35.2z"/>
		<path class="st0" d="M171,35c0,1.2,0.9,2.2,2.1,2.3c0,0,0,0,0,0c2.2,0,4.1-1.6,4.5-3.8c0.2-1.2-0.6-2.4-1.9-2.6
			c-0.1,0-0.2,0-0.3,0C173.2,30.9,171.2,32.7,171,35z M172.2,34.7C172.2,34.7,172.2,34.7,172.2,34.7c0-0.1,0-0.2,0-0.2
			c0,0,0-0.1,0-0.1c0,0,0-0.1,0-0.1v-0.1l0,0v-0.1v-0.1V34c0-0.1,0.1-0.2,0.1-0.3l0.1-0.1l0.1-0.1l0.1-0.1l0.1-0.1l0.1-0.1l0.1-0.1
			c0.1-0.1,0.2-0.2,0.3-0.2l0.1-0.1l0,0l0.1-0.1c0.1,0,0.2-0.1,0.2-0.1h0.1h0.1h0.3c0.5,0,1,0.3,1.1,0.8v0.1c0,0.1,0.1,0.2,0.1,0.3
			c0,0,0,0,0,0.1c0,0,0,0.1,0,0.1c0,1.1-0.9,2-2,2.1c-0.7,0-1.3-0.5-1.3-1.2c0,0,0-0.1,0-0.1L172.2,34.7z"/>
		<path class="st0" d="M190.8,32.9l-0.2,0.2C190.6,33,190.7,33,190.8,32.9z"/>
		<path class="st0" d="M190.3,33.3c-0.2,0.2-0.3,0.5-0.4,0.7C190,33.8,190.1,33.5,190.3,33.3z"/>
		<path class="st0" d="M189.8,35.3c-0.1-0.2-0.1-0.4-0.1-0.5c0-0.2,0-0.5,0.1-0.7c-0.1,0.2-0.1,0.5-0.1,0.7
			C189.7,34.9,189.8,35.1,189.8,35.3z"/>
		<g class="st1">
			<path class="st0" d="M39.3,95.5l-1.1,1c-0.4-0.5-0.8-0.8-1.2-0.8c-0.2,0-0.4,0.1-0.5,0.2c-0.1,0.1-0.2,0.2-0.2,0.4
				c0,0.1,0,0.3,0.1,0.4c0.1,0.2,0.5,0.5,1.1,1c0.6,0.5,0.9,0.8,1,0.9c0.3,0.3,0.5,0.6,0.6,0.9s0.2,0.6,0.2,0.9
				c0,0.6-0.2,1.2-0.7,1.6s-1,0.6-1.7,0.6c-0.6,0-1-0.1-1.4-0.4c-0.4-0.3-0.8-0.7-1.1-1.3l1.2-0.8c0.4,0.7,0.8,1,1.3,1
				c0.3,0,0.5-0.1,0.6-0.2c0.2-0.1,0.3-0.3,0.3-0.5c0-0.2-0.1-0.4-0.2-0.5c-0.1-0.2-0.4-0.4-0.9-0.8c-0.8-0.7-1.4-1.2-1.6-1.6
				c-0.2-0.4-0.4-0.8-0.4-1.1c0-0.5,0.2-1,0.6-1.4s0.9-0.6,1.5-0.6c0.4,0,0.8,0.1,1.1,0.3S38.9,95.1,39.3,95.5z"/>
			<path class="st0" d="M44,94.5h1.5v5c0,0.4,0,0.7,0.1,0.9c0.1,0.2,0.2,0.3,0.4,0.4c0.2,0.1,0.4,0.2,0.6,0.2c0.3,0,0.5-0.1,0.7-0.2
				c0.2-0.1,0.3-0.3,0.4-0.5c0.1-0.2,0.1-0.5,0.1-1.1v-4.8h1.5v4.6c0,0.8,0,1.3-0.1,1.6c-0.1,0.3-0.3,0.6-0.5,0.9
				c-0.2,0.3-0.5,0.5-0.9,0.6c-0.3,0.1-0.7,0.2-1.1,0.2c-0.6,0-1.1-0.1-1.5-0.4c-0.4-0.3-0.7-0.6-0.9-1c-0.2-0.4-0.3-1-0.3-2V94.5z"
				/>
			<path class="st0" d="M54.3,94.5h1.6c0.9,0,1.5,0.1,1.8,0.2c0.4,0.2,0.7,0.4,0.9,0.8c0.2,0.4,0.3,0.8,0.3,1.3c0,0.5-0.1,1-0.4,1.4
				c-0.3,0.4-0.7,0.6-1.2,0.8C57,98.9,56.5,99,55.8,99v3.3h-1.5V94.5z M55.8,97.5h0.5c0.4,0,0.6,0,0.8-0.1c0.1-0.1,0.3-0.1,0.3-0.3
				s0.1-0.3,0.1-0.4c0-0.3-0.1-0.5-0.3-0.7c-0.2-0.1-0.5-0.2-0.9-0.2h-0.4V97.5z"/>
			<path class="st0" d="M63.6,94.5h4.2v1.5h-2.8v1.4h2.8v1.4h-2.8v2h2.8v1.5h-4.2V94.5z"/>
			<path class="st0" d="M72.6,94.5h1.6c0.9,0,1.5,0.1,1.8,0.2s0.7,0.4,0.9,0.8s0.3,0.8,0.3,1.3c0,0.5-0.1,0.9-0.4,1.3
				s-0.6,0.6-1.1,0.8l1.8,3.5H76L74.2,99h-0.1v3.3h-1.5V94.5z M74.1,97.5h0.5c0.5,0,0.8-0.1,1-0.2c0.2-0.1,0.3-0.3,0.3-0.6
				c0-0.2,0-0.3-0.1-0.4c-0.1-0.1-0.2-0.2-0.4-0.3c-0.1-0.1-0.4-0.1-0.8-0.1h-0.4V97.5z"/>
			<path class="st0" d="M82.8,94.5h1.4l1.8,5.4l1.8-5.4h1.4l1.3,7.8h-1.4l-0.8-4.9l-1.7,4.9h-1.3l-1.6-4.9l-0.9,4.9h-1.4L82.8,94.5z
				"/>
			<path class="st0" d="M95.1,94.5h4.2v1.5h-2.8v1.4h2.8v1.4h-2.8v2h2.8v1.5h-4.2V94.5z"/>
			<path class="st0" d="M104,94.5h1.6c0.9,0,1.5,0.1,1.8,0.2c0.4,0.2,0.7,0.4,0.9,0.8c0.2,0.4,0.3,0.8,0.3,1.3
				c0,0.5-0.1,0.9-0.4,1.3s-0.6,0.6-1.1,0.8l1.8,3.5h-1.6l-1.8-3.3h-0.1v3.3H104V94.5z M105.5,97.5h0.5c0.5,0,0.8-0.1,1-0.2
				c0.2-0.1,0.3-0.3,0.3-0.6c0-0.2,0-0.3-0.1-0.4c-0.1-0.1-0.2-0.2-0.4-0.3s-0.4-0.1-0.8-0.1h-0.4V97.5z"/>
			<path class="st0" d="M120.6,95.9l-1,1c-0.7-0.7-1.5-1.1-2.4-1.1c-0.7,0-1.4,0.3-1.9,0.8c-0.5,0.5-0.8,1.1-0.8,1.9
				c0,0.5,0.1,1,0.3,1.4c0.2,0.4,0.5,0.7,1,0.9s0.9,0.3,1.4,0.3c0.4,0,0.8-0.1,1.2-0.2c0.4-0.2,0.7-0.5,1.2-0.9l1,1
				c-0.6,0.6-1.1,1-1.6,1.2s-1.1,0.3-1.8,0.3c-1.2,0-2.2-0.4-3-1.2c-0.8-0.8-1.2-1.8-1.2-3c0-0.8,0.2-1.5,0.5-2.1
				c0.4-0.6,0.9-1.1,1.5-1.5c0.7-0.4,1.4-0.5,2.1-0.5c0.6,0,1.3,0.1,1.9,0.4C119.7,95,120.2,95.4,120.6,95.9z"/>
			<path class="st0" d="M127.6,94.5h1.5l3,7.8h-1.5l-0.6-1.6h-3.2l-0.6,1.6h-1.5L127.6,94.5z M128.3,96.5l-1,2.7h2.1L128.3,96.5z"/>
			<path class="st0" d="M136.5,94.5h1.8c1.1,0,2,0.1,2.5,0.4s1,0.7,1.4,1.4c0.4,0.6,0.5,1.4,0.5,2.2c0,0.6-0.1,1.2-0.3,1.7
				c-0.2,0.5-0.5,0.9-0.8,1.3c-0.4,0.3-0.7,0.6-1.1,0.7c-0.4,0.1-1.1,0.2-2.1,0.2h-1.8V94.5z M137.9,95.9v4.9h0.7
				c0.7,0,1.2-0.1,1.5-0.2c0.3-0.2,0.6-0.4,0.7-0.8c0.2-0.4,0.3-0.8,0.3-1.4c0-0.8-0.2-1.5-0.7-1.9c-0.4-0.4-1.1-0.6-2-0.6H137.9z"
				/>
			<path class="st0" d="M151,94.3c1.1,0,2,0.4,2.8,1.2c0.8,0.8,1.2,1.8,1.2,2.9c0,1.1-0.4,2.1-1.2,2.9s-1.7,1.2-2.8,1.2
				c-1.2,0-2.1-0.4-2.9-1.2c-0.8-0.8-1.2-1.8-1.2-2.9c0-0.7,0.2-1.4,0.5-2.1c0.4-0.6,0.9-1.1,1.5-1.5
				C149.6,94.5,150.2,94.3,151,94.3z M151,95.7c-0.7,0-1.3,0.2-1.8,0.8c-0.5,0.5-0.7,1.1-0.7,1.9c0,0.9,0.3,1.5,0.9,2
				c0.5,0.4,1,0.6,1.7,0.6c0.7,0,1.3-0.3,1.8-0.8c0.5-0.5,0.7-1.1,0.7-1.9c0-0.7-0.2-1.4-0.7-1.9C152.3,96,151.7,95.7,151,95.7z"/>
		</g>
		<path class="st2" d="M20.9,0H79c0,0,4.5-0.6,4.7,6.2l-6.9,37.6H6.7l6.6-36.3C13.2,7.6,13.8,0,20.9,0z"/>
		<path class="st3" d="M6.7,43.9L0.1,82.1c0,0-1.3,5.2,4.8,5.7l181.7,0.1c3.3-0.7,5.8-3.2,6.5-6.5l5.4-31.2c0,0,1.6-6-4.9-6.4
			S6.7,43.9,6.7,43.9z"/>
		<g class="st1">
			<path class="st4" d="M14.6,55c0-2.1,1-3.1,3.1-3.2h18.4V57H20.6v6.4h11.6v2c0,2.1-1,3.1-3.1,3.1h-8.4v7.7h15.5v5.5H14.6V55z"/>
		</g>
		<g class="st1">
			<path class="st4" d="M57.6,73.3c0-1.4-0.9-2.4-2.7-2.9c-1.7-0.5-3.8-1-5.9-1.6c-5.8-1.5-8.7-4.2-8.7-8.1
				c0.1-6.2,3.8-9.3,11.2-9.3c7,0,10.6,3.1,11,9.2h-3.4c-1.3,0-2.1-0.6-2.7-1.7c-1-1.7-2.8-2.5-5.4-2.5c-3.1,0-4.7,1.2-4.9,3.5
				c0,1.9,1.9,3.2,5.8,4.1c2.2,0.5,4.6,1.2,7.1,2.1c3.3,1.1,4.9,3.6,4.7,7.3c-0.3,5.8-4.3,8.7-11.8,8.7c-7.9,0-11.8-3.3-12-9.7h5.9
				C46,75.4,48,77,51.9,77S57.7,75.7,57.6,73.3z"/>
		</g>
		<g class="st1">
			<path class="st4" d="M80.4,82c-9,0-14.2-6.2-14.2-15.3c0-9,5.3-15.3,14.2-15.3c9,0,14.2,6.2,14.2,15.3c0,4.3-1.1,7.8-3.1,10.2
				l3.2,3.1l-1.6,1.6c-1.1,1-2.3,1-3.3,0.1l-1.7-1.5C86,81.4,83.4,82,80.4,82z M88.6,66.7c0-5.9-2.6-10.1-8.2-10.1
				s-8.1,4.4-8.1,10.1c0,5.8,2.5,10.2,8.1,10.2c0.6,0,1.1,0,1.8-0.2c0.8-0.2,1.4-0.4,1.7-0.6l-3.2-3l1-1.1c1.1-1.2,2.4-1.4,3.8-0.5
				l1.7,1.3C88.2,71.1,88.6,69.2,88.6,66.7z"/>
		</g>
		<g class="st1">
			<path class="st4" d="M100.5,51.8h3v18.4c0,4.3,1.9,6.5,5.7,6.6c3.8,0,5.7-2.2,5.7-6.6V51.8h6v19.1c0,7.3-4.3,11.1-11.8,11.1
				c-7.6,0-11.8-3.6-11.8-11.1V55C97.4,53.4,98.8,51.8,100.5,51.8z"/>
		</g>
		<g class="st1">
			<path class="st4" d="M123.4,55c0-2.1,1-3.2,3.1-3.2h3v29.7h-6.1V55z"/>
		</g>
		<g class="st1">
			<path class="st4" d="M135.6,51.8h3.3L151,72.2V51.8h6v29.7h-6.3l-12.1-20.4v20.4h-6V55C132.5,53.3,133.9,51.8,135.6,51.8z"/>
		</g>
		<g class="st1">
			<path class="st4" d="M178.1,51.8l10.7,29.7h-6.4l-2-6.1h-11.5l-2,6.1h-6.5l9.9-27.8c0.4-1.3,1.4-2,2.9-2H178.1z M170.4,70.5h8.2
				l-4.1-12.6L170.4,70.5z"/>
		</g>
		<g class="st1">
			<path class="st5" d="M12.8,53.2c0-2.1,1-3.1,3.1-3.2h18.4v5.2H18.8v6.4h11.6v2c0,2.1-1,3.1-3.1,3.1h-8.4v7.7h15.5v5.5H12.8V53.2z
				"/>
		</g>
		<g class="st1">
			<path class="st5" d="M55.8,71.5c0-1.4-0.9-2.4-2.7-2.9c-1.7-0.5-3.8-1-5.9-1.6c-5.8-1.5-8.7-4.2-8.7-8.1
				c0.1-6.2,3.8-9.3,11.2-9.3c7,0,10.6,3.1,11,9.2h-3.4c-1.3,0-2.1-0.6-2.7-1.7c-1-1.7-2.8-2.5-5.4-2.5c-3.1,0-4.7,1.2-4.9,3.5
				c0,1.9,1.9,3.2,5.8,4.1c2.2,0.5,4.6,1.2,7.1,2.1c3.3,1.1,4.9,3.6,4.7,7.3c-0.3,5.8-4.3,8.7-11.8,8.7c-7.9,0-11.8-3.3-12-9.7H44
				c0.2,3.1,2.2,4.7,6.1,4.7S55.9,73.9,55.8,71.5z"/>
		</g>
		<g class="st1">
			<path class="st5" d="M78.6,80.2c-9,0-14.2-6.2-14.2-15.3c0-9,5.3-15.3,14.2-15.3c9,0,14.2,6.2,14.2,15.3c0,4.3-1.1,7.8-3.1,10.2
				l3.2,3.1l-1.6,1.6c-1.1,1-2.3,1-3.3,0.1l-1.7-1.5C84.2,79.6,81.6,80.2,78.6,80.2z M86.8,64.9c0-5.9-2.6-10.1-8.2-10.1
				s-8.1,4.4-8.1,10.1c0,5.8,2.5,10.2,8.1,10.2c0.6,0,1.1,0,1.8-0.2c0.8-0.2,1.4-0.4,1.7-0.6l-3.2-3l1-1.1c1.1-1.2,2.4-1.4,3.8-0.5
				l1.7,1.3C86.4,69.4,86.8,67.4,86.8,64.9z"/>
		</g>
		<g class="st1">
			<path class="st5" d="M98.7,50h3v18.4c0,4.3,1.9,6.5,5.7,6.6c3.8,0,5.7-2.2,5.7-6.6V50h6v19.1c0,7.3-4.3,11.1-11.8,11.1
				c-7.6,0-11.8-3.6-11.8-11.1V53.2C95.6,51.6,97,50,98.7,50z"/>
		</g>
		<g class="st1">
			<path class="st5" d="M121.6,53.2c0-2.1,1-3.2,3.1-3.2h3v29.7h-6.1V53.2z"/>
		</g>
		<g class="st1">
			<path class="st5" d="M133.8,50h3.3l12.1,20.4V50h6v29.7h-6.3l-12.1-20.4v20.4h-6V53.2C130.7,51.5,132.1,50,133.8,50z"/>
		</g>
		<g class="st1">
			<path class="st5" d="M176.3,50l10.7,29.7h-6.4l-2-6.1H167l-2,6.1h-6.5l9.9-27.8c0.4-1.3,1.4-2,2.9-2H176.3z M168.7,68.7h8.2
				L172.7,56L168.7,68.7z"/>
		</g>
		<g class="st1">
			<path class="st6" d="M27.3,8.7h3V33h14.5v5.5H24.2V11.9C24.2,10.2,25.6,8.7,27.3,8.7z"/>
		</g>
		<g class="st1">
			<path class="st6" d="M64.8,8.7l10.7,29.7h-6.4l-2-6.1H55.6l-2,6.1h-6.5l9.9-27.8c0.4-1.3,1.4-2,2.9-2H64.8z M57.2,27.3h8.2
				l-4.1-12.6L57.2,27.3z"/>
		</g>
		<g class="st1">
			<path class="st5" d="M25.8,7.3h3v24.3h14.5V37H22.8V10.5C22.8,8.8,24.1,7.3,25.8,7.3z"/>
		</g>
		<g class="st1">
			<path class="st5" d="M63.4,7.3L74.1,37h-6.4l-2-6.1H54.2l-2,6.1h-6.5l9.9-27.8c0.4-1.3,1.4-2,2.9-2H63.4z M55.8,25.9H64
				l-4.1-12.6L55.8,25.9z"/>
		</g>
		<line class="st7" x1="177.8" y1="38.4" x2="80.6" y2="38.4"/>
		<path class="st0" d="M80.7,39.5c-0.1,0-0.1,0.2-0.1,0.2C80.8,39.6,80.7,39.4,80.7,39.5z"/>
		<polygon class="st0" points="83.1,39.1 83,39.1 83.4,39 		"/>
		<path class="st0" d="M85.3,39.1c-0.2-0.3-0.8,0-1.2-0.1L84,38.9l-0.2,0.2C84.3,39.1,84.8,39,85.3,39.1z"/>
		<path class="st0" d="M86.5,39.7c-0.1-0.1,0.2-0.1-0.3,0l0,0H86.5z"/>
		<path class="st0" d="M86.2,39.7C86,39.7,86.4,39.8,86.2,39.7z"/>
		<path class="st0" d="M87.3,39.6L87,39.7c0.1,0.1,0.3,0.1,0.2,0.1C87.6,39.8,87.5,39.8,87.3,39.6z"/>
		<path class="st0" d="M87.6,39.4h-0.2C87.4,39.4,87.5,39.5,87.6,39.4z"/>
		<path class="st0" d="M87.1,39.6l0.3-0.1c0,0,0-0.2-0.2,0C87.3,39.4,87.2,39.5,87.1,39.6z"/>
		<path class="st0" d="M86.9,39.5c-0.2-0.1-0.4-0.1-0.1-0.2C86.2,39.3,86.3,39.6,86.9,39.5z"/>
		<path class="st0" d="M85.4,38.7l-0.2-0.1L85,38.8C85.1,38.7,85.4,38.8,85.4,38.7z"/>
		<path class="st0" d="M89.2,39.8c0-0.1-0.1-0.2-0.1-0.2l-0.2,0.1C89,39.7,89.2,39.7,89.2,39.8z"/>
		<path class="st0" d="M89.1,39.5l0.3-0.1C89.1,39.4,89.1,39.5,89.1,39.5z"/>
		<polygon class="st0" points="87.7,39.1 87.1,39.3 87.8,39.1 		"/>
		<polygon class="st0" points="90.5,39.8 90.3,40 90.7,39.7 		"/>
		<path class="st0" d="M91.4,39.8c-0.1,0.1,0.2,0.2,0.1,0.3c0.2,0,0.4-0.1,0.6-0.2C91.8,39.9,91.6,39.9,91.4,39.8z"/>
		<path class="st0" d="M92.3,39.7c-0.1,0-0.2,0.1-0.3,0.1C92.1,39.8,92.2,39.8,92.3,39.7z"/>
		<path class="st0" d="M90,39.5c0.1,0.1,0.1,0.2,0.3,0.2l-0.1-0.2H90z"/>
		<path class="st0" d="M90.1,39.5L90.1,39.5z"/>
		<path class="st0" d="M90,39.5L90,39.5C90,39.5,90,39.4,90,39.5z"/>
		<path class="st0" d="M88.6,39.2c0.2-0.1,0.6-0.2,0.2-0.4C88.6,39,88.8,39.1,88.6,39.2z"/>
		<path class="st0" d="M89.8,39.2h-0.4c0,0,0.1,0.1,0,0.2L89.8,39.2z"/>
		<polygon class="st0" points="90,39.2 89.8,39.2 89.9,39.3 		"/>
		<path class="st0" d="M91.7,39.5c0.2-0.1,0.3-0.1,0.5-0.1c-0.2,0-0.4-0.1-0.6-0.1C91.6,39.4,91.5,39.5,91.7,39.5z"/>
		<path class="st0" d="M91,39.5L91,39.5C91,39.5,91,39.5,91,39.5z"/>
		<path class="st0" d="M94.1,39.4L94.1,39.4L94.1,39.4z"/>
		<path class="st0" d="M91.6,39.3c-0.1,0-0.2,0-0.3,0.1L91.6,39.3C91.6,39.4,91.6,39.3,91.6,39.3z"/>
		<path class="st0" d="M92.9,39.6c-0.1,0-0.2-0.1-0.3-0.1C92.7,39.6,92.8,39.7,92.9,39.6z"/>
		<path class="st0" d="M91,39.5L91,39.5C91,39.5,91.1,39.5,91,39.5z"/>
		<path class="st0" d="M91,39.5c0.1,0,0.1-0.1,0.2-0.1C91.1,39.4,91,39.4,91,39.5C91,39.5,91,39.5,91,39.5z"/>
		<path class="st0" d="M94.7,38.3c0,0.2-0.4,0.3-0.8,0.1c-0.3,0.1-0.1,0.7,0.2,1c0-0.1,0-0.1,0.4-0.2c-0.1-0.1-0.8-0.2-0.5-0.4
			c0.5-0.1,0.4,0.1,0.6,0.2c-0.2-0.2,0.6-0.3,0.5-0.6l-0.4,0.1C94.7,38.4,94.8,38.3,94.7,38.3z"/>
		<path class="st0" d="M93.4,39.4h-0.2c0.2,0,0.4,0.1,0.5,0.2c0.2-0.1,0.3-0.2,0.3-0.2L93.4,39.4L93.4,39.4z"/>
		<path class="st0" d="M92.6,39.4c0.1-0.2,0.5-0.3,0.2-0.5c-0.4,0-0.3,0.2-0.6,0.2C93,39.2,92.1,39.3,92.6,39.4c-0.1,0-0.3,0-0.4,0
			L92.6,39.4L92.6,39.4L92.6,39.4L92.6,39.4L92.6,39.4C92.8,39.4,92.6,39.4,92.6,39.4C92.6,39.5,92.6,39.5,92.6,39.4L92.6,39.4
			l0.7,0C93.1,39.4,92.8,39.4,92.6,39.4z"/>
		<path class="st0" d="M89.1,38.5L89.1,38.5C89.1,38.5,89.2,38.5,89.1,38.5z"/>
		<path class="st0" d="M89.4,38.6c-0.1,0.1-0.2,0.1-0.3,0.1c-0.1-0.1,0-0.1,0-0.2s-0.3,0.1,0,0.2l0,0c0.3,0.1,0.7,0.3,0.6,0.3
			C89.7,38.9,89.6,38.7,89.4,38.6z"/>
		<path class="st0" d="M91,39l0.6-0.1l-0.3-0.2v0.1C91,38.8,91.1,38.9,91,39z"/>
		<polygon class="st0" points="94.2,39.5 94.1,39.7 94.5,39.4 		"/>
		<polygon class="st0" points="95,39.5 94.9,39.7 95.1,39.6 		"/>
		<path class="st0" d="M137.5,37.4h0.2H137.5z"/>
		<path class="st0" d="M136.2,37.4L136.2,37.4C136.3,37.5,136.3,37.4,136.2,37.4z"/>
		<path class="st0" d="M113.5,39.5c0.2,0.2,0.5,0.4,0.5,0.2l-0.1-0.2C113.7,39.5,113.6,39.5,113.5,39.5z"/>
		<path class="st0" d="M126.1,38.4C126.1,38.4,126.1,38.4,126.1,38.4l-0.2,0.2L126.1,38.4z"/>
		<path class="st0" d="M126.3,37.6l0.3,0.1C126.5,37.7,126.4,37.7,126.3,37.6z"/>
		<path class="st0" d="M144.2,37.2l0.2-0.2C144.1,37,144.2,37.1,144.2,37.2z"/>
		<path class="st0" d="M102.7,39.4c0.2,0.1,0.4,0.1,0.5,0.1C103,39.4,102.7,39.3,102.7,39.4z"/>
		<path class="st0" d="M137,39.4c0.1,0,0.1-0.1,0.1-0.1S137,39.3,137,39.4z"/>
		<path class="st0" d="M103.8,39.5h-0.1c-0.2,0-0.3,0-0.5,0C103.4,39.7,103.6,39.7,103.8,39.5z"/>
		<path class="st0" d="M168.6,37.4L168.6,37.4C168.7,37.4,168.7,37.4,168.6,37.4z"/>
		<path class="st0" d="M175.7,39.2h-0.3C175.5,39.3,175.6,39.3,175.7,39.2z"/>
		<path class="st0" d="M98,39.6C97.8,39.6,98,39.6,98,39.6z"/>
		<path class="st0" d="M97.2,38.9C97.2,38.8,97.3,38.8,97.2,38.9C97.3,38.8,97.2,38.8,97.2,38.9z"/>
		<path class="st0" d="M105.4,38.4L105.4,38.4C105.4,38.4,105.4,38.4,105.4,38.4z"/>
		<path class="st0" d="M97.8,39.5c0.1,0,0.1,0,0.2,0.1C97.9,39.5,97.8,39.5,97.8,39.5z"/>
		<path class="st0" d="M97.8,39.6h-0.1C97.6,39.6,97.6,39.6,97.8,39.6z"/>
		<path class="st0" d="M98.2,39.6h-0.3l0,0H98.2z"/>
		<path class="st0" d="M155.5,37.9L155.5,37.9C155.7,37.8,155.7,37.8,155.5,37.9z"/>
		<path class="st0" d="M117.6,37.6L117.6,37.6z"/>
		<path class="st0" d="M118.2,37.4c-0.1,0.2-0.4,0.2-0.6,0.2l0.2,0.5L118.2,37.4z"/>
		<path class="st0" d="M140.4,37.1l-0.4-0.1c0.5-0.2,0.8-0.1,0.5-0.2c-0.1,0.3-1.6,0-1.6,0.4l-0.3-0.1c0.1,0,0.1,0,0.2,0
			c-0.5-0.2-0.4,0.2-1.1,0.2c-0.2,0-0.4-0.1-0.2-0.1l-0.5,0.1c-0.1,0-0.1-0.1,0-0.1h-0.8l0,0c-0.2,0.1-0.3,0.1-0.5,0.2
			c-0.2,0,0.1,0,0-0.1l-0.4,0.1c-0.2-0.1,0.2-0.2,0.5-0.2c-0.4-0.3-0.4,0.1-1.2-0.1l0.4,0c-0.3-0.2-0.6-0.1-1-0.2
			c0.1,0.1,0.9,0.3,0.4,0.4c-0.2,0-0.4,0-0.6,0c0-0.1-0.2-0.1-0.6-0.1V37c-0.3,0-0.3,0.1-0.5,0.2c-0.3,0-0.5-0.1-0.6-0.2
			c-0.6,0,0.4,0.2-0.3,0.2c-0.5,0-1,0-1.5,0.1c-0.4-0.1,0.1-0.1-0.1-0.1l-0.3,0.1c-0.1,0,0,0,0-0.1c-0.3,0,0,0.2-0.4,0.2
			c-0.1,0.2-0.9-0.3-1.4-0.1c-0.1,0,0.1-0.1,0-0.2c-0.4,0.1-0.8,0.1-1.2,0.3l-0.5-0.1c0.4,0.1-0.1,0.3-0.5,0.4
			c0.1,0,0.2,0.1,0.3,0.1l-0.6,0.1c-0.1,0,0-0.1,0.1-0.1l-0.1,0c-0.2-0.1-0.1-0.2,0-0.2l0.2,0.1c0.2-0.1,0.3-0.2,0.3-0.3
			c-0.1,0-0.1,0-0.2,0c0,0,0.1-0.1,0-0.1c-0.1,0-0.1,0-0.2,0.1l-0.1-0.2v0.1l-0.8-0.1c-0.6,0.3-1.3,0.4-2.1,0.5
			c0.2-0.1,0.1-0.2,0.1-0.4c0.3,0.2,0.7-0.1,1.2,0c-0.3,0-0.2-0.1-0.1-0.1l-0.9,0.1c0-0.1-0.2-0.1-0.4-0.1c0.2,0.3-0.7,0.2-1,0.2
			c0-0.1,0.1-0.2,0.5-0.1c-0.5-0.2-0.6,0.3-1.1,0.1c0.1,0,0.2,0,0.2,0c-0.2,0.1-0.9,0-0.7-0.1h0.1c-0.7,0-2.2,0-2.3,0.2
			c0-0.1,0.1-0.2,0.1-0.3l-1.3,0.7c0.1-0.2-0.3-0.6,0.3-0.7c-0.2,0-0.5,0-0.7,0c0.1,0,0.3,0.3,0.1,0.3c-0.4-0.2-0.3-0.1-0.8-0.3
			c0.2,0,0,0.3-0.3,0.3c0,0,0-0.3,0.1-0.3l-0.7,0.3c0.2-0.1,0-0.2-0.1-0.3c0.1,0.1-0.6,0-0.8,0l0.3,0.1c-0.8,0-0.8,0.4-1.5,0.4
			c0.1-0.1,0.2-0.4-0.2-0.4c-0.2,0.1-0.8,0.7-1.5,0.8l-0.1-0.1l-0.5,0.1c0.5-0.3,1.1-0.6,1.7-0.9c-0.3-0.1-0.1-0.1-0.5-0.1
			c-0.2-0.1,0.2-0.1,0.4-0.1l-1,0c0,0.2-0.8,0.2-0.7,0.3l1.1-0.2c0,0.2-0.6,0.5-1.3,0.4c-0.2-0.1,0.1-0.3,0.1-0.4
			c-0.2,0.1-0.5,0.1-0.7,0.1l0.3-0.1c-0.4-0.1-0.6,0.2-1.1,0.1c-0.2,0-0.5-0.2-0.5-0.1c0.3,0.3,0.3,0.6,0.1,0.9
			c-0.3-0.1-0.7-0.2-1-0.3c-0.3-0.1,0.4-0.4,0.2-0.5c0,0-0.2,0.1-0.2,0.1c-0.1,0,0.1-0.1-0.3-0.1c-0.1,0.2-0.8,0-0.2,0.1
			c-0.4,0.1-0.4,0-0.8,0c0.1,0.1-0.4,0.4-0.8,0.4c0,0-0.1-0.1-0.1-0.1c-0.8,0-1.2-0.1-1.8-0.1c-0.1,0-0.4-0.1-0.3-0.2
			c-0.1,0.1-0.3,0.1-0.4,0.1c-0.4-0.1,0.5,0,0.2-0.2c0,0.1-0.6,0.1-0.9,0.2c0.1,0.1,0.7,0,1,0c0,0.2-0.5,0.4-1.3,0.5
			c-0.6,0.1-0.2-0.1-0.3-0.1c-1.1,0-0.9,0.4-1.8,0.2c-0.3-0.1,0-0.3-0.1-0.4c0.5,0,0.7,0.1,1,0.1l-0.4-0.1c0.2-0.1,0.4-0.1,0.6,0
			c-0.3-0.1-1.8,0-2.7-0.1c-0.2,0-0.4,0.1-0.3,0.1h0.3c0.2,0.1-0.5,0.2-0.2,0.2c-0.4,0.1-0.8,0.2-1.3,0.1L96.7,38c0,0,0.3,0.1,0.5,0
			c-0.2,0.1-0.8-0.2-1,0l0.3,0.1c-0.4,0.1-0.8,0.2-1.2,0.2c0.2,0.1,0.1,0,0.4,0.2c-0.3-0.2,1.1,0,0.7-0.2c0.3,0.2,0.6,0.1,1,0.3
			c0,0-0.2-0.1,0.2-0.1l0.1,0l0,0l0,0c-0.1,0-0.1,0-0.2-0.1c0.2-0.1,0.8-0.1,1-0.2s-0.1,0.1,0,0.1l0.3-0.1c0,0.1,0.6,0.2,0.1,0.2
			h0.5c0.3,0.1,0.6,0.1,0.9,0c0.2,0,0.6-0.1,0.4,0l0.7-0.1l0,0c0.7,0,1.5-0.2,2.3,0c0.3,0,0.6-0.1,0.9,0l0.1,0.1c0.3,0,1,0.1,1.1,0
			c0.3,0.3,1.5,0.1,2.1,0.1v-0.1c0.4,0,0.8,0,1.2-0.1v-0.1c0.4-0.1,1.1,0.1,1.7,0.1c0,0-0.2,0-0.3,0c0.8,0.3,1.6-0.2,2.3,0
			c0.1,0,0.3,0,0.4,0l0,0l0.2,0.1c-0.1,0-0.1,0-0.2-0.1c0.2,0,0.4,0,0.5,0l0.1,0.1l0,0c0.2,0,0.2-0.1,0.1-0.1c0.1,0,0.2,0,0.3-0.1
			c0.2,0.2,0.5-0.1,0.7,0.1c0.1-0.1,1-0.1,1.1-0.3c0,0,0.1,0,0,0c0.2,0,0.4,0,0.6,0l0.1,0.2l0.5-0.2c0.3,0.1,0.4,0.1,0.1,0.3
			c0.4-0.1,0.8-0.2,1.2-0.2v0.1c0.2,0,0.6-0.1,0.7-0.1c0.5,0.2,2.4,0,3.6,0.2c-0.2-0.3,0.6,0.1,0.6-0.1c0.1,0.1,0.2,0.1,0,0.2
			c0.6-0.1,1,0.1,1.4-0.1c0.1,0.1-0.1,0.1-0.1,0.1s0.2-0.1,0.3,0c0.1,0.1-0.1,0.1-0.2,0.1c0.7,0,0.7-0.2,0.8-0.4
			c0.3,0.1,0.5,0.1,0.7,0c0.1,0.1,0.3,0.1-0.1,0.2c0.2,0,1.4,0.1,1.4-0.1c0.1,0,0.3,0,0.4,0c0.3,0,0.7,0,1,0l0,0
			c0.2-0.2,0.4,0,0.8-0.1l0,0c0.9,0.1,0.4-0.1,1.3,0.1V38c0.1-0.3,0.8,0.2,1.3,0.1l-0.2-0.1c0.3-0.1,0.8,0.3,1.1,0.4
			c0.1,0-0.1,0-0.2,0.1c0.8,0.2,0.1-0.2,0.7-0.2c0.1,0.1-0.1,0.2,0.2,0.2c0.2,0.1,1.1-0.3,1.6-0.1c-0.1-0.1-0.2-0.1,0-0.2
			c0.2,0,1.1,0.2,1.4,0c0,0,0.1,0,0.1,0.1c0.3-0.1,1-0.1,1.2-0.2c0.3,0.4,1.9-0.2,1.9,0.2h0.9v0c0.4,0,0.7,0,1-0.2
			c0.1,0,0,0.1,0,0.1c0.6,0.1,1.2,0,1.7-0.1l0.1,0.1c0.2-0.1,1.3,0.2,2.1,0c0,0,0,0-0.1,0.1c1-0.1,2.3,0.3,2.7-0.1l0.6-0.1
			c-0.8,0,0.1-0.2-0.2-0.3c0.3,0,0.8,0.1,0.4,0.2h-0.1c-0.1,0.2,1,0.1,1,0.2c1.6,0,3.2,0.1,4.7,0.1l-0.2-0.2h0.5
			c0.1,0,0.2,0.1-0.2,0.1c0.2,0.1,0.6-0.1,0.6-0.1c0.7,0.1-0.3,0.2-0.1,0.2h0.3h-0.1c0.2-0.1,0.3-0.2,0.7-0.1c0.3,0,0.1,0.1,0.3,0.1
			c0.1,0,0,0,0.2,0h0.7l-0.3-0.1c0.3-0.1,0.6,0,0.3-0.2c0.5,0.2,2.5,0.1,2.8,0.2c0.4-0.1,0.9-0.1,1.4-0.1c-0.1,0-0.2-0.2,0.2-0.2
			c-0.2,0.3,0.8,0.1,1.2,0.4c-0.3-0.2,1.2,0,0.8-0.3c0.4,0,0,0.1,0.3,0.2c0.9-0.1,1.9,0.1,3,0c0,0-0.2-0.1,0.1-0.2l0.6,0.2
			c0.2,0,0.2-0.3,0.6-0.1c-0.1,0-0.1-0.1,0-0.1c2.1,0.2,4.3-0.2,6.4,0.2c-0.3-0.1-0.1-0.1,0.1-0.1c-0.1,0,0-0.1,0-0.2l0.9,0.2
			c0.2-0.2,1,0,1.1-0.2h-0.3c0.4-0.2-0.5-0.4-0.5-0.7c-0.4,0.2-1.1-0.3-1.8,0c-0.2,0,0.1-0.1,0.1-0.1c-0.2,0.1-0.4,0.1-0.8,0.1h0.1
			c-0.9,0-1.9,0-2.8-0.1l0.1,0.1c-0.2,0-0.3,0-0.4-0.1c-0.3,0.2,0.8,0,0.5,0.2c-0.4-0.2-1.9,0-2.1-0.3c-0.4,0,0.1,0.1-0.3,0.1
			l-0.1-0.1l-0.1,0.1c-0.3,0-0.4-0.1-0.4-0.2c0.1,0,0.2,0,0.2,0c-0.4-0.1-1,0-1.1,0l0.4,0c-1.2,0-2.4,0-3.6,0.1l0.1,0.1
			c-0.8,0.1-0.7-0.1-1.6,0l0,0c-0.2,0.1-0.4,0.1-0.7,0.1c0.2-0.1-0.4-0.1-0.1-0.2c-0.9,0.1-0.4,0.1-1,0.3l-0.1-0.1
			c-0.2,0.1-0.4,0.2-0.7,0.2c0.4-0.1-0.3-0.1,0.1-0.2c-1-0.2-1.4,0.2-1.9-0.1c-0.4,0.3,0.8,0.1,0.6,0.2c0.2,0.1-0.4,0.2-0.7,0.2
			s-0.5-0.3-1.3-0.3c0.1,0,0.1,0,0.2,0c-0.3-0.1-0.6,0.1-0.9,0c-0.2,0.2-0.4,0-0.5,0.2l0.7,0c-0.4,0.1-0.8,0.3-1.4,0.2
			c0.1-0.1,0.2-0.1,0.4-0.1c-0.2-0.1-0.4,0-0.6,0c0.1-0.2,0.9,0,1.3-0.2c-0.2-0.1-0.8,0.1-0.6-0.1c-0.3,0.3-0.8,0-1.3,0.2v-0.1
			c-0.1,0-0.3,0.1-0.4,0.1l0.3-0.2c-0.4,0.1-0.8-0.1-1.2,0c0.8,0,0.2,0.1,0.5,0.2c-1,0.2-0.6-0.3-1.8-0.3c0.2,0,0.6,0.1,0.4,0.1
			c-0.2,0-0.4-0.1-0.6-0.1c-0.8,0,0.1,0.1-0.2,0.2c-0.3-0.1-0.4,0.1-0.7,0.1v-0.1c-0.9-0.1-0.2,0.3-1,0.2l0.3-0.2l-0.4,0l0.1-0.1
			c-0.3,0.1-0.7,0.1-1,0c0.1,0.1-0.1,0.2-0.4,0.2c-0.4,0,0.1-0.1-0.4-0.1c0.1-0.1,0.3-0.2,0.5-0.1c0,0,0.1-0.1,0.1-0.1
			c-0.3,0-0.6,0-0.9,0c0.1,0,0.1,0,0.2,0l-0.8,0.2c-0.1,0,0-0.1,0.1-0.1c-0.2,0-0.3,0.1-0.5,0.1c0.1-0.1,0-0.2,0.4-0.2l-0.8,0.1
			c0,0-0.4-0.1-0.3-0.2c-0.4-0.1-1,0.2-1.6,0.1c-0.1,0-0.1,0-0.2,0c-0.5-0.1-1.1-0.1-1.6,0l-0.4-0.2c-0.5,0,0.5,0.2-0.3,0.3
			c-0.6,0.1-0.2-0.1-0.4-0.2c-0.4,0.2-0.9,0.2-1.3,0.1C140.1,37.2,140.3,37.2,140.4,37.1z M134.4,37.2c0.1,0,0.4-0.1,0.4,0
			C134.7,37.3,134.6,37.3,134.4,37.2L134.4,37.2z M125.3,37.5c0.1,0,0.2,0,0.4,0C125.5,37.5,125.4,37.5,125.3,37.5L125.3,37.5z
			 M99.8,38.4L99.8,38.4C100,38.4,99.9,38.4,99.8,38.4L99.8,38.4z M99.2,38.3C99.2,38.3,99.2,38.3,99.2,38.3c0,0.1,0.2,0,0.3,0.1
			C99.4,38.3,99.4,38.3,99.2,38.3L99.2,38.3z M157.2,38.3h-0.1C157.4,38.2,157.3,38.2,157.2,38.3L157.2,38.3z"/>
		<path class="st0" d="M126.3,37.7c0,0,0,0.1,0,0.1C126.3,37.8,126.4,37.8,126.3,37.7z"/>
		<path class="st0" d="M144.2,37.3L144.2,37.3L144.2,37.3z"/>
		<path class="st0" d="M107.6,37.6c0.1,0,0.2,0,0.2,0.1C107.8,37.7,107.7,37.6,107.6,37.6z"/>
		<path class="st0" d="M96.3,39.7h0.3C96.6,39.7,96.5,39.7,96.3,39.7C96.4,39.6,96.4,39.7,96.3,39.7z"/>
		<path class="st0" d="M93.3,38.4c0,0-0.1,0-0.2,0v0.1C93.4,38.5,93.6,38.5,93.3,38.4z"/>
		<path class="st0" d="M96,39c0-0.2-0.2-0.1-0.5-0.1l0,0C95.5,39.2,95.8,39.1,96,39z"/>
		<path class="st0" d="M95.5,38.9h-0.2C95.2,39,95.3,39,95.5,38.9z"/>
		<path class="st0" d="M98.5,39.4c-0.1,0-0.1,0.2-0.1,0.2C98.2,39.8,99.1,39.3,98.5,39.4z"/>
		<polygon class="st0" points="95.8,38.4 95.9,38.6 96,38.5 		"/>
		<path class="st0" d="M97.7,38.6l-0.4-0.1c0,0,0,0.1-0.1,0.1C97.5,38.6,97.7,38.7,97.7,38.6z"/>
		<path class="st0" d="M97.2,38.6c-0.1,0-0.2,0-0.3,0C97,38.6,97.1,38.6,97.2,38.6z"/>
		<polygon class="st0" points="96.3,38.4 96.5,38.4 96.7,38.4 		"/>
		<path class="st0" d="M101.9,38.6l0.4-0.1c0-0.1-0.1-0.1-0.2-0.1S101.8,38.6,101.9,38.6z"/>
		<path class="st0" d="M100.6,38c0.1,0,0.1,0.1,0.2,0.2V38L100.6,38z"/>
		<path class="st0" d="M101.8,38c0.1-0.1,0.6-0.2,0.1-0.2C101.9,37.9,101.5,37.9,101.8,38z"/>
		<polygon class="st0" points="108.2,38.3 108.1,38.3 108.1,38.8 		"/>
		<path class="st0" d="M113.8,37.3c-0.5-0.1-0.1,0.3-0.6,0.1c-0.1,0.1,0.4,0.1,0.2,0.2C113.8,37.5,114,37.6,113.8,37.3z"/>
		<path class="st0" d="M113.5,37.6c-0.1,0-0.1,0-0.2,0.1L113.5,37.6z"/>
		<polygon class="st0" points="176.9,39.5 177.2,39.6 177,39.4 		"/>
		<path class="st0" d="M177.5,39.1l0.1,0.3l0.2-0.2C177.7,39.2,177.6,39.2,177.5,39.1z"/>
		<path class="st0" d="M133.5,37L133.5,37c0.1,0.1,0.1,0.1,0.3,0.2L133.5,37z"/>
		<polygon class="st0" points="137.9,37.2 137.8,37.2 137.9,37.4 		"/>
		<path class="st0" d="M141.5,36.8c-0.1,0-0.3,0-0.5,0C141.4,36.8,141.6,37.2,141.5,36.8z"/>
		<line class="st7" x1="197.1" y1="40.9" x2="81.7" y2="40.9"/>
		<path class="st0" d="M81.8,42c-0.2,0-0.1,0.2-0.1,0.2C82,42.1,81.8,41.9,81.8,42z"/>
		<polygon class="st0" points="84.6,41.5 84.6,41.6 85,41.4 		"/>
		<path class="st0" d="M87.2,41.5c-0.2-0.3-0.9,0-1.4-0.1l-0.1-0.1l-0.2,0.2C86.1,41.6,86.7,41.5,87.2,41.5z"/>
		<path class="st0" d="M88.6,42.2c-0.1-0.1,0.3-0.1-0.3,0h0.1H88.6z"/>
		<path class="st0" d="M88.4,42.2C88.1,42.2,88.6,42.3,88.4,42.2z"/>
		<path class="st0" d="M89.7,42.1l-0.4,0.1c0.1,0.1,0.4,0.1,0.3,0.1C90,42.3,89.9,42.2,89.7,42.1z"/>
		<path class="st0" d="M90,41.9h-0.2C89.8,41.9,89.9,42,90,41.9z"/>
		<path class="st0" d="M89.4,42l0.4-0.1c0,0,0-0.2-0.2,0C89.7,41.9,89.6,42,89.4,42z"/>
		<path class="st0" d="M89.2,42c-0.2-0.1-0.5-0.1-0.1-0.2C88.4,41.8,88.5,42,89.2,42z"/>
		<path class="st0" d="M87.4,41.2l-0.3-0.1l-0.2,0.1C87,41.2,87.4,41.3,87.4,41.2z"/>
		<path class="st0" d="M91.9,42.3c0-0.1-0.1-0.2-0.2-0.2l-0.3,0.1C91.7,42.1,91.9,42.2,91.9,42.3z"/>
		<path class="st0" d="M91.8,42l0.4-0.1C91.8,41.9,91.8,42,91.8,42z"/>
		<polygon class="st0" points="90.1,41.6 89.4,41.8 90.2,41.6 		"/>
		<polygon class="st0" points="93.5,42.3 93.2,42.4 93.7,42.2 		"/>
		<path class="st0" d="M94.5,42.3c-0.2,0.1,0.2,0.2,0.1,0.3c0.3,0,0.5-0.1,0.7-0.2C95,42.4,94.7,42.4,94.5,42.3z"/>
		<path class="st0" d="M95.6,42.2l-0.4,0.1C95.4,42.3,95.5,42.3,95.6,42.2z"/>
		<path class="st0" d="M92.9,42c0.1,0.1,0.2,0.2,0.3,0.2L93,42H92.9z"/>
		<path class="st0" d="M93,42L93,42z"/>
		<path class="st0" d="M92.8,42L92.8,42C92.8,42,92.8,41.9,92.8,42z"/>
		<path class="st0" d="M91.1,41.7c0.2-0.1,0.7-0.2,0.2-0.4C91.2,41.5,91.5,41.6,91.1,41.7z"/>
		<path class="st0" d="M92.6,41.7h-0.4c0,0,0.1,0.1,0,0.2L92.6,41.7z"/>
		<polygon class="st0" points="92.8,41.7 92.6,41.7 92.8,41.7 		"/>
		<path class="st0" d="M94.9,42c0.2-0.1,0.4-0.1,0.6-0.1c-0.2,0-0.5-0.1-0.7,0C94.7,41.9,94.6,42,94.9,42z"/>
		<path class="st0" d="M94,42L94,42C94,42,94,41.9,94,42z"/>
		<path class="st0" d="M97.8,41.9L97.8,41.9L97.8,41.9z"/>
		<path class="st0" d="M94.7,41.8c-0.1,0-0.3,0-0.4,0.1C94.5,41.9,94.6,41.9,94.7,41.8C94.8,41.9,94.8,41.8,94.7,41.8z"/>
		<path class="st0" d="M96.3,42.1c-0.1,0-0.2-0.1-0.3-0.1C96,42.1,96.2,42.1,96.3,42.1z"/>
		<path class="st0" d="M94.1,42L94.1,42C94.1,42,94.1,42,94.1,42z"/>
		<path class="st0" d="M94.1,42c0.1,0,0.2-0.1,0.2-0.1C94.2,41.9,94.1,41.9,94.1,42L94.1,42z"/>
		<path class="st0" d="M98.4,40.8c0,0.2-0.5,0.3-0.9,0.2c-0.4,0.1-0.1,0.7,0.2,1c0-0.1,0-0.1,0.4-0.2c-0.2-0.1-0.9-0.2-0.6-0.4
			c0.6-0.1,0.5,0.1,0.7,0.2c-0.2-0.2,0.7-0.3,0.6-0.6l-0.5,0.1C98.4,40.9,98.6,40.8,98.4,40.8z"/>
		<path class="st0" d="M96.9,41.9h-0.2c0.2,0,0.4,0.1,0.6,0.2c0.3-0.1,0.3-0.2,0.4-0.2L96.9,41.9L96.9,41.9z"/>
		<path class="st0" d="M96,41.9c0.1-0.2,0.6-0.3,0.3-0.5c-0.5,0-0.4,0.2-0.7,0.2C96.5,41.6,95.4,41.8,96,41.9c-0.2,0-0.3,0-0.4,0
			L96,42l0,0l0,0l0,0C96,42,96,42,96,41.9c0.2,0,0,0,0,0.1s0,0,0,0l0,0l0.8-0.1C96.5,41.9,96.3,41.9,96,41.9z"/>
		<path class="st0" d="M91.8,41L91.8,41C91.9,41,91.9,41,91.8,41z"/>
		<path class="st0" d="M92.2,41.1c-0.1,0.1-0.2,0.1-0.3,0.1c-0.2-0.1,0-0.1,0-0.2s-0.4,0.1,0,0.2h0.1c0.3,0.1,0.8,0.3,0.7,0.3
			C92.5,41.4,92.3,41.2,92.2,41.1z"/>
		<path class="st0" d="M94.1,41.4l0.7-0.1l-0.4-0.2v0.1C94.1,41.3,94.1,41.4,94.1,41.4z"/>
		<polygon class="st0" points="97.8,42 97.8,42.2 98.2,41.9 		"/>
		<polygon class="st0" points="98.7,42 98.7,42.2 98.9,42 		"/>
		<path class="st0" d="M149.2,39.9l0.2,0C149.4,39.9,149.3,39.9,149.2,39.9z"/>
		<path class="st0" d="M147.8,39.9L147.8,39.9C147.8,39.9,147.8,39.9,147.8,39.9z"/>
		<path class="st0" d="M120.7,42c0.3,0.2,0.6,0.4,0.6,0.2l-0.1-0.2C121,42.1,120.9,42,120.7,42z"/>
		<path class="st0" d="M135.8,40.9L135.8,40.9l-0.3,0.1L135.8,40.9z"/>
		<path class="st0" d="M136,40.1l0.4,0.1C136.3,40.2,136.1,40.1,136,40.1z"/>
		<path class="st0" d="M157.2,39.7l0.2-0.2C157.1,39.5,157.2,39.6,157.2,39.7z"/>
		<path class="st0" d="M107.9,41.9c0.2,0.1,0.4,0.1,0.6,0.1C108.2,41.9,108,41.8,107.9,41.9z"/>
		<path class="st0" d="M148.6,41.9c0.1,0,0.2-0.1,0.2-0.1S148.6,41.8,148.6,41.9z"/>
		<path class="st0" d="M109.3,42h-0.1c-0.2,0-0.4,0-0.6,0C108.8,42.1,109,42.1,109.3,42z"/>
		<path class="st0" d="M186.2,39.9L186.2,39.9C186.3,39.9,186.3,39.9,186.2,39.9z"/>
		<path class="st0" d="M194.7,41.7h-0.4C194.4,41.7,194.6,41.7,194.7,41.7z"/>
		<path class="st0" d="M102.3,42.1C102.1,42.1,102.3,42.1,102.3,42.1z"/>
		<path class="st0" d="M101.4,41.3C101.4,41.3,101.5,41.3,101.4,41.3C101.5,41.3,101.5,41.3,101.4,41.3z"/>
		<path class="st0" d="M111.2,40.9L111.2,40.9C111.1,40.9,111.1,40.9,111.2,40.9z"/>
		<path class="st0" d="M102.1,42h0.2H102.1z"/>
		<path class="st0" d="M102.1,42.1h-0.2C101.9,42.1,101.9,42.1,102.1,42.1z"/>
		<path class="st0" d="M102.6,42.1h-0.3l0,0H102.6z"/>
		<path class="st0" d="M170.7,40.4L170.7,40.4C170.9,40.3,170.8,40.3,170.7,40.4z"/>
		<path class="st0" d="M125.7,40.1L125.7,40.1z"/>
		<path class="st0" d="M126.3,39.9c-0.2,0.2-0.4,0.2-0.7,0.2l0.2,0.5L126.3,39.9z"/>
		<path class="st0" d="M152.7,40l-0.5-0.1c0.6-0.2,1-0.1,0.6-0.2c-0.1,0.3-1.9,0-1.9,0.4l-0.3-0.1c0.1,0,0.1,0,0.2,0
			c-0.6-0.2-0.4,0.2-1.2,0.2c-0.3,0-0.5-0.1-0.3-0.1l-0.6,0.1c-0.2,0-0.1-0.1,0.1-0.1h-0.9l0,0c-0.2,0.1-0.4,0.1-0.6,0.2
			c-0.2,0,0.1,0,0.1-0.1l-0.5,0.1c-0.2-0.1,0.2-0.2,0.6-0.2c-0.5-0.3-0.4,0.1-1.5-0.1l0.5,0c-0.3-0.2-0.7-0.1-1.2-0.2
			c0.1,0.1,1.1,0.3,0.6,0.4c-0.2,0-0.5,0-0.7,0c0-0.1-0.3-0.1-0.7-0.1v-0.2c-0.4,0-0.4,0.1-0.6,0.2c-0.3,0-0.5-0.1-0.6-0.2
			c-0.7,0,0.5,0.2-0.4,0.2c-0.6,0-1.2,0-1.7,0.1c-0.4-0.1,0.1-0.1-0.1-0.1l-0.4,0.1c-0.1,0-0.1,0-0.1-0.1c-0.3,0,0,0.2-0.5,0.2
			c-0.1,0.2-1-0.3-1.6-0.1c-0.1,0,0.1-0.1,0-0.2c-0.5,0.1-1,0.2-1.4,0.3l-0.6-0.1c0.4,0.1-0.1,0.3-0.6,0.4c0.2,0.1,0.3,0.1,0.4,0.1
			l-0.8,0.1c-0.1,0,0-0.1,0.1-0.1l-0.1,0c-0.3-0.1-0.1-0.2,0.1-0.2l0.3,0.1c0.2-0.1,0.4-0.2,0.3-0.3c-0.1,0-0.2,0-0.2,0
			c0,0,0.1,0,0.1-0.1s-0.1,0-0.2,0.1l-0.2-0.2v0.1l-1-0.1c-0.8,0.3-1.6,0.4-2.5,0.5c0.3-0.1,0.1-0.2,0.1-0.4c0.3,0.2,0.9-0.1,1.5,0
			c-0.3,0-0.2-0.1-0.2-0.1l-1.1,0.1c0-0.1-0.2-0.1-0.5-0.1c0.2,0.3-0.8,0.2-1.2,0.2c0-0.1,0.1-0.2,0.6-0.2c-0.6-0.2-0.7,0.3-1.3,0.1
			c0.1,0,0.2,0,0.2,0c-0.3,0.1-1,0-0.9-0.1h0.1c-0.8,0-2.6,0-2.7,0.2c0-0.1,0.1-0.2,0.2-0.3l-1.5,0.7c0.1-0.2-0.4-0.6,0.3-0.7
			c-0.3,0-0.6,0-0.9,0c0.1,0,0.3,0.3,0.2,0.3c-0.3-0.1-0.6-0.2-1-0.3c0.2,0,0,0.3-0.3,0.3c0.1,0,0-0.3,0.1-0.3l-0.8,0.3
			c0.2-0.1,0-0.2-0.2-0.3c0.1,0.1-0.7,0-0.9,0l0.3,0.1c-0.9,0-0.9,0.4-1.8,0.4c0.1-0.1,0.3-0.4-0.2-0.4c-0.4,0.4-1,0.6-1.7,0.8
			l-0.2-0.1l-0.6,0.1c0.6-0.3,1.3-0.6,2-0.9c-0.3-0.1-0.1-0.1-0.6-0.1c-0.2-0.1,0.3-0.1,0.4-0.1l-1.2,0c0.1,0.2-0.9,0.2-0.9,0.3
			l1.3-0.2c0,0.2-0.8,0.5-1.6,0.4c-0.2-0.1,0.2-0.3,0.1-0.4c-0.3,0.1-0.6,0.1-0.9,0.1l0.3-0.1c-0.5-0.1-0.8,0.2-1.3,0.1
			c-0.2,0-0.6-0.2-0.6-0.1c0.3,0.3,0.4,0.6,0.2,0.9c-0.4-0.1-0.8-0.2-1.2-0.3c-0.3-0.2,0.5-0.4,0.2-0.5c0,0-0.2,0.1-0.3,0.1
			c-0.1,0,0.1-0.1-0.4-0.1c-0.1,0.2-0.9,0-0.2,0.1c-0.4,0.1-0.5,0-1,0c0.2,0.1-0.5,0.4-0.9,0.4c0,0-0.1-0.1-0.1-0.1
			c-0.9,0-1.4-0.1-2.2-0.1c-0.1,0-0.5-0.1-0.3-0.2c-0.1,0.1-0.3,0.1-0.5,0.1c-0.5-0.1,0.6,0,0.2-0.2c0,0.1-0.7,0.1-1,0.2
			c0.1,0.2,0.8,0,1.2,0c0,0.2-0.6,0.4-1.5,0.5c-0.7,0-0.3-0.1-0.4-0.1c-1.3,0-1.1,0.4-2.2,0.2c-0.4-0.1,0-0.3-0.1-0.4
			c0.6-0.1,0.9,0.1,1.2,0.1l-0.5-0.1c0.2-0.1,0.5-0.1,0.8,0c-0.4-0.1-2.2,0-3.2-0.1c-0.2,0-0.5,0.1-0.3,0.1h0.3
			c0.3,0.1-0.6,0.2-0.2,0.2c-0.5,0.1-1,0.2-1.5,0.1l-0.1-0.2c0,0,0.4,0.1,0.6,0c-0.2,0.1-0.9-0.2-1.2,0l0.4,0.1
			c-0.5,0.1-1,0.2-1.5,0.2c0.2,0.1,0.1,0,0.5,0.2c-0.3-0.2,1.3,0,0.8-0.2c0.4,0.2,0.7,0.1,1.2,0.3c0-0.1-0.2-0.1,0.3-0.1l0.2-0.1
			l0,0l0,0l0,0c-0.1,0-0.2,0-0.2-0.1c0.2-0.1,0.9-0.1,1.2-0.2s-0.1,0.1,0,0.1l0.4-0.1c0,0.1,0.7,0.2,0.1,0.2h0.6
			c0.3,0.1,0.7,0.1,1.1,0c0.3,0,0.7-0.1,0.4,0l0.9-0.1v0c0.9-0.1,1.9-0.1,2.8,0c0.4,0,0.7-0.1,1.1,0l0.1,0.1c0.4,0,1.1,0.1,1.3,0
			c0.4,0.3,1.8,0.1,2.5,0.1v-0.1c0.5,0,1,0,1.4-0.1v-0.1c0.5-0.1,1.2,0.1,2,0.1c-0.1,0-0.2,0-0.4,0c0.9,0.3,1.9-0.2,2.8,0
			c0.2,0,0.3,0,0.5,0l0,0l0.3,0.1c-0.1,0-0.2,0-0.2-0.1c0.2,0,0.4,0,0.6,0l0.1,0.1h0.1c0.2,0,0.2-0.1,0.1-0.1c0.1,0,0.2,0,0.3-0.1
			c0.2,0.2,0.6-0.1,0.9,0.1c0.2-0.1,1.2-0.1,1.3-0.3c0,0,0.1,0,0,0c0.2,0,0.5,0,0.8,0l0.1,0.2l0.6-0.2c0.3,0.1,0.5,0.1,0.2,0.3
			c0.8-0.2,0.7-0.1,1.4-0.2V41c0.2,0,0.7-0.1,0.8-0.1c0.6,0.2,2.8,0,4.3,0.2c-0.3-0.3,0.7,0.1,0.7-0.1c0.1,0.1,0.3,0.1,0.1,0.2
			c0.8-0.1,1.1,0.1,1.6-0.1c0.1,0.1-0.2,0.1-0.1,0.1s0.2-0.1,0.3,0s-0.1,0.1-0.2,0.1c0.8,0,0.8-0.2,0.9-0.4c0.3,0.1,0.6,0.1,0.9-0.1
			c0.1,0.1,0.4,0.1-0.1,0.2c0.3,0,1.6,0.1,1.7-0.1c0.1,0,0.4,0,0.4,0c0.6,0,0.6,0,1.2,0h-0.2c0.2-0.2,0.5,0,1-0.1l0,0
			c1.1,0.1,0.5-0.1,1.5,0.1l-0.1-0.1c0.1-0.3,1,0.2,1.6,0.1l-0.2-0.1c0.3-0.1,1,0.3,1.3,0.4c0.1,0-0.1,0-0.2,0.1
			c0.9,0.2,0.1-0.2,0.8-0.2c0.1,0.1-0.2,0.2,0.3,0.2c0.2,0.1,1.3-0.3,1.9-0.1c-0.1-0.1-0.3-0.1,0.1-0.2c0.5,0,1.3,0.2,1.7,0
			c0.1,0,0.1,0,0.1,0.1c0.5,0,1-0.1,1.4-0.2c0.3,0.4,2.3-0.2,2.2,0.2h1.1v0c0.4,0,0.9,0,1.2-0.2c0.2,0,0,0.1,0,0.1
			c0.7,0.1,1.4,0,2-0.1l0.1,0.1c0.2-0.1,1.5,0.2,2.5,0c0,0-0.1,0.1-0.1,0.1c1.1-0.1,2.8,0.3,3.2-0.1l0.8-0.1c-1,0,0.1-0.2-0.3-0.3
			c0.4,0,1,0.1,0.5,0.2h-0.1c-0.2,0.2,1.2,0.1,1.2,0.2c1.9,0,3.8,0.1,5.6,0.1l-0.2-0.2h0.6c0.2,0,0.2,0.1-0.2,0.1
			c0.2,0.1,0.8-0.1,0.8-0.1c0.9,0.1-0.4,0.2-0.1,0.2h0.4h-0.1c0.3-0.1,0.6-0.2,0.9-0.1c0.3,0,0.2,0.1,0.3,0.1s0.1,0,0.2,0h0.8
			l-0.3-0.1c0.4-0.1,0.8,0,0.4-0.2c0.5,0.2,3,0.1,3.3,0.2c0.5-0.1,1-0.1,1.6-0.1c-0.1,0-0.2-0.2,0.3-0.2c-0.2,0.3,0.9,0.1,1.4,0.4
			c-0.4-0.2,1.5,0,0.9-0.3c0.4,0,0,0.1,0.4,0.2c1-0.1,2.3,0.1,3.6,0c0,0-0.2-0.1,0.1-0.2l0.7,0.2c0.3,0,0.2-0.3,0.7-0.1
			c-0.1,0-0.2-0.1,0-0.1c2.5,0.2,5.1-0.2,7.7,0.2c-0.3-0.1-0.1-0.1,0.1-0.1c-0.2,0,0-0.1,0-0.2l1.1,0.2c0.2-0.2,1.1,0,1.2-0.2
			l-0.3,0c0.4-0.2-0.6-0.4-0.6-0.7c-0.5,0.2-1.3-0.3-2.1,0c-0.2,0,0.2-0.1,0.1-0.1c-0.3,0.1-0.6,0.1-0.9,0.1h0.1
			c-1.1,0-2.2-0.1-3.4-0.1l0.1,0.1c-0.2,0-0.4,0-0.5-0.1c-0.4,0.2,0.9,0,0.6,0.2c-0.4-0.2-2.2,0-2.5-0.3c-0.5,0,0.1,0.1-0.3,0.1
			l-0.1-0.1l-0.1,0.1c-0.3,0-0.5-0.1-0.5-0.2c0.1,0,0.2,0,0.3,0c-0.4,0-0.9,0-1.3,0l0.5,0c-1.3,0.1-3,0-4.2,0.1l0.1,0.1
			c-1,0.1-0.8-0.1-1.9,0l0,0c-0.3,0.1-0.5,0.1-0.8,0.1c0.3-0.1-0.5-0.1-0.1-0.2c-1.1,0.1-0.5,0.1-1.2,0.3l-0.2-0.1
			c-0.2,0.1-0.5,0.2-0.8,0.2c0.4-0.1-0.4-0.1,0.1-0.2c-1.1-0.2-1.7,0.2-2.2-0.1c-0.5,0.3,1,0.1,0.7,0.2c0.2,0.1-0.4,0.2-0.8,0.2
			s-0.6-0.3-1.5-0.3c0.1,0,0.1,0,0.2,0c-0.3-0.1-0.7,0.1-1.1,0c-0.2,0.2-0.6,0-0.6,0.2l0.8,0c-0.5,0.1-0.9,0.3-1.7,0.2
			c0.1-0.1,0.3-0.1,0.4-0.1c-0.2-0.1-0.4,0-0.7,0c0.1-0.2,1,0,1.5-0.2c-0.2-0.1-1,0.1-0.7-0.1c-0.4,0.3-0.9,0-1.5,0.2v-0.1
			c-0.2,0-0.3,0.1-0.5,0.1l0.3-0.2c-0.5,0.1-1-0.1-1.4,0c1,0,0.2,0.1,0.6,0.2c-1.2,0.2-0.7-0.3-2.1-0.3c0.2,0,0.7,0.1,0.4,0.1
			c-0.3,0-0.5-0.1-0.8-0.1c-0.9,0,0.1,0.1-0.2,0.2c-0.3-0.1-0.4,0.1-0.9,0.1v-0.3c-1-0.1-0.3,0.3-1.2,0.2l0.3-0.2l-0.5,0l0.1-0.1
			c-0.4,0.1-0.8,0.1-1.2,0c0.1,0.1-0.1,0.2-0.5,0.2c-0.3-0.1,0.2-0.1-0.5-0.1c0.1-0.1,0.3-0.2,0.6-0.1c0,0,0.1-0.1,0.2-0.1
			c-0.4,0-0.7,0-1.1,0c0.1,0,0.2,0,0.2,0l-0.9,0.2c-0.1,0,0-0.1,0.1-0.1c-0.2,0-0.4,0.1-0.6,0.1c0.1-0.1,0.1-0.2,0.5-0.2l-0.9,0.1
			c-0.1,0-0.5-0.1-0.3-0.1c-0.5-0.1-1.2,0.2-1.9,0.1c-0.1,0-0.2,0-0.2,0c-0.6-0.1-1.3-0.1-1.9,0l-0.4-0.2c-0.6,0,0.6,0.2-0.4,0.3
			c-0.7,0.1-0.2-0.1-0.5-0.2c-0.5,0.2-1,0.2-1.6,0.1C152.3,40,152.5,40,152.7,40z M145.6,40.1c0.1,0,0.4-0.1,0.5,0
			C145.9,40.2,145.8,40.1,145.6,40.1L145.6,40.1z M134.7,40.4c0.1,0,0.3,0,0.4,0C135,40.4,134.8,40.4,134.7,40.4L134.7,40.4z
			 M104.4,41.2L104.4,41.2C104.7,41.3,104.6,41.2,104.4,41.2z M103.8,41.2C103.7,41.2,103.7,41.2,103.8,41.2c0.1,0,0.2,0,0.4,0.1
			C104.1,41.2,104,41.1,103.8,41.2z M172.7,41.1h-0.1C172.9,41,172.8,41.1,172.7,41.1z"/>
		<path class="st0" d="M135.9,40.2c0,0,0.1,0.1,0.1,0.1C136.1,40.3,136.1,40.2,135.9,40.2z"/>
		<path class="st0" d="M157.2,39.8L157.2,39.8L157.2,39.8z"/>
		<path class="st0" d="M113.7,40.1c0.1,0,0.2,0,0.2,0.1C114,40.2,113.9,40.1,113.7,40.1z"/>
		<path class="st0" d="M100.4,42.2h0.4C100.7,42.2,100.5,42.1,100.4,42.2C100.4,42.1,100.5,42.2,100.4,42.2z"/>
		<path class="st0" d="M96.8,40.9c-0.1,0-0.1,0-0.2,0V41C96.9,41,97.1,40.9,96.8,40.9z"/>
		<path class="st0" d="M100,41.5c0-0.2-0.3-0.1-0.6-0.1l0,0C99.4,41.6,99.7,41.6,100,41.5z"/>
		<path class="st0" d="M99.3,41.4c-0.1,0-0.2,0-0.3,0C99.1,41.5,99.2,41.4,99.3,41.4z"/>
		<path class="st0" d="M103,41.9c-0.1,0-0.1,0.2-0.2,0.2C102.7,42.3,103.7,41.8,103,41.9z"/>
		<polygon class="st0" points="99.8,40.9 99.9,41.1 100,41 		"/>
		<path class="st0" d="M102,41.1h-0.5c0,0-0.1,0-0.1,0.1C101.7,41.1,102.1,41.1,102,41.1z"/>
		<path class="st0" d="M101.4,41.1c-0.1,0-0.2,0-0.4,0C101.2,41.1,101.3,41.1,101.4,41.1z"/>
		<polygon class="st0" points="100.4,40.9 100.5,40.9 100.8,40.9 		"/>
		<path class="st0" d="M107,41.1l0.5-0.1c0.1-0.1-0.1-0.1-0.3-0.1S106.9,41,107,41.1z"/>
		<path class="st0" d="M105.5,40.5c0.1,0,0.2,0.1,0.2,0.2v-0.3L105.5,40.5z"/>
		<path class="st0" d="M106.9,40.5c0-0.1,0.7-0.2,0.1-0.2C107,40.3,106.5,40.4,106.9,40.5z"/>
		<polygon class="st0" points="114.5,40.8 114.4,40.8 114.4,41.2 		"/>
		<path class="st0" d="M121.2,39.8c-0.6-0.1-0.2,0.3-0.7,0.1c-0.1,0.1,0.4,0.1,0.3,0.2C121.1,40,121.3,40.1,121.2,39.8z"/>
		<path class="st0" d="M120.8,40.1l-0.2,0.1C120.7,40.2,120.7,40.1,120.8,40.1z"/>
		<polygon class="st0" points="196.1,41.9 196.4,42 196.2,41.9 		"/>
		<path class="st0" d="M196.8,41.6l0.1,0.3l0.2-0.2C197,41.7,196.9,41.7,196.8,41.6z"/>
		<path class="st0" d="M144.5,39.4L144.5,39.4c0.1,0.1,0.1,0.2,0.3,0.2L144.5,39.4z"/>
		<polygon class="st0" points="149.7,39.6 149.6,39.6 149.8,39.9 		"/>
		<path class="st0" d="M154.1,39.3c-0.2,0-0.4,0-0.6,0C153.9,39.3,154.1,39.6,154.1,39.3z"/>
		<rect x="14.6" y="97.5" class="st0" width="11.4" height="1.5"/>
		<rect x="166" y="97.5" class="st0" width="11.4" height="1.5"/>
	</g>
</g>
</svg>
