<?xml version="1.0" encoding="utf-8"?>
<!-- Generator: Adobe Illustrator 25.2.0, SVG Export Plug-In . SVG Version: 6.00 Build 0)  -->
<svg version="1.1" id="Capa_1" xmlns="http://www.w3.org/2000/svg" xmlns:xlink="http://www.w3.org/1999/xlink" x="0px" y="0px"
	 viewBox="0 0 244.9 105.6" style="enable-background:new 0 0 244.9 105.6;" xml:space="preserve">
<style type="text/css">
	.st0{fill:#FFFFFF;}
	.st1{fill:#575756;}
</style>
<g>
	<path class="st0" d="M205.1,40.6c0.5-0.7,1.1-1.6,1.7-2.2c1.6-1.9,4.3-2.2,6.2-0.6c0.2,0.1,0.6,0.1,1,0.1c4.8-1.1,9.8-1.2,14.7-0.5
		c0.2,0,0.4,0,0.6,0c0.5-0.1,1-0.4,1.4-0.5c0.5-0.1,0.8-0.1,1.3-0.2c-4.2-3-19.1-3.7-25.1,1c0.1-0.4,0.2-0.6,0.4-0.8
		c2.2-3.5,5.4-5,9.2-5.4c5-0.6,10,0.6,14.9,1.7c1.4,0.4,2.8,0.7,4.1,1.1c0.4,0.1,1,0,1.1-0.1c0.1-0.4,0.1-0.8-0.1-1.2
		c-0.6-0.6-1.3-1.2-2.2-1.6c-2.9-1-5.8-1.9-8.6-2.5c-4.2-1-8.5-1.1-12.9-0.6c-0.8,0.1-1.7,0.2-2.6,0.4c-0.2-1.6-0.7-3.1-0.8-4.8
		c-0.4-3.8-0.6-7.7-1.1-11.5c-0.2-1.8-0.7-3.6-1.3-5.4c-1.2-3.2-4.2-5.5-7.7-5.9c-0.8-0.1-1.8-0.4-2.6-0.4c-0.8-0.1-1.7,0.5-1.9,1.3
		c-0.4,1,0,2.2,0.8,2.8c0.7,0.6,1.7,0.5,2.3-0.1c0.6-0.6,1.6-0.7,2.4-0.4c1.7,0.5,3,1.6,3.7,3.1c1,1.9,1.6,4,1.6,6
		c0.2,3.4,0.2,6.7,0.5,10c0.1,1.8,0.4,3.7,0.5,5.5c0,0.2,0,0.6-0.2,0.7c-1.1,0.7-1.8,1.8-2,3c-0.8,2.6-0.7,5.5,0.5,7.9
		C204.8,40.5,204.9,40.6,205.1,40.6C205.1,40.7,205.1,40.7,205.1,40.6z"/>
	<path class="st0" d="M210.5,10.2l10.7-0.5c-0.5,1.4-0.8,2.6-1.3,3.8c-0.1,0.2-0.6,0.4-0.8,0.4c-2.2,0.2-4.2,0.4-6.4,0.6
		c0,0.1,0,0.2,0,0.4h6.8c-0.2,1.1-0.4,2-0.6,2.9c-0.1,0.2-0.5,0.5-0.8,0.6c-1.3,0.4-2.5,0.7-3.8,1.1v0.4h4.3v2.4h0.1
		c0.1-0.6,0.2-1.1,0.5-1.7c0.1-0.2,0.5-0.6,0.7-0.6c1.2,0,2.5,0.2,3.8,0.4l-0.5,4.3h0.2l1.6-4.2l4,1c-0.6,1.9-1.2,3.7-1.8,5.6h0.1
		c0.8-1.4,1.8-3,2.5-4.4c0.1-0.5,0.6-0.7,1.1-0.5c0.1,0,0.1,0.1,0.2,0.1c1.4,0.7,3,1.4,4.6,2.2l-2,3.7c4.1-3.5,8-7.1,10.2-12.1
		c0.4-1,0.6-1.9,0.7-3c0.1-1.4-0.6-2.9-1.9-3.6c-1.8-1.1-3.7-1.8-5.9-1.9C231.4,7,226,7.2,220.7,8.2c-3.5,0.5-6.8,1.1-10.3,1.7
		C210.3,10.1,210.3,10.1,210.5,10.2z M239.8,16.8l-4.6-1.3l3.7-4C240.6,12.9,240.9,14.8,239.8,16.8z M231.7,20.1
		c0.6-0.7,1.1-1.4,1.6-2.2c0.1-0.2,0.4-0.2,0.7-0.2c1.6,0.5,3.2,1,4.9,1.4l-1.7,3.1L231.7,20.1z M228.1,14.3l3.4-4.3l3.5,0.2
		l0.2,0.1c-1,1.4-1.9,2.9-2.9,4.3c-0.1,0.1-0.4,0.2-0.6,0.2C230.6,14.7,229.6,14.5,228.1,14.3L228.1,14.3z M225.8,18.5
		c0.4-0.7,0.7-1.4,1.1-2c0.1-0.1,0.4-0.2,0.6-0.2c1.2,0.2,2.3,0.5,3.5,0.7c-0.5,1-0.8,1.7-1.2,2.5L225.8,18.5z M225.5,14.1
		c-1.3,0-2.5,0-4.1,0c0.8-1.6,1.6-2.8,2.2-4c0.1-0.2,0.4-0.4,0.6-0.4c1.4,0,2.9,0,4.4,0c-0.8,1.4-1.7,2.8-2.5,4.1
		C226,13.9,225.7,14.1,225.5,14.1L225.5,14.1z M221.6,15.3c1.1,0.1,2.3,0.4,3.4,0.5c-0.6,2.5-0.6,2.5-3,2.4h-2.4
		c0.4-0.8,0.7-1.6,1-2.3C220.7,15.4,221,15.1,221.6,15.3C221.6,15.1,221.6,15.3,221.6,15.3L221.6,15.3z"/>
	<path class="st0" d="M229.4,44.8c2.6-0.2,4.7-2.3,4.9-4.9c0.1-1.4-1.1-2.8-2.5-2.9c-0.2,0-0.5,0-0.6,0c-2.3,0.4-4.2,2-4.7,4.3
		c-0.5,1.4,0.4,3,1.8,3.4C228.7,44.8,229.1,44.9,229.4,44.8z M228,42.3c0-0.1-0.1-0.4-0.1-0.5c0-0.2,0-0.4,0.1-0.6
		c0-0.1,0-0.1,0.1-0.2v-0.1v-0.1c0.1-0.2,0.2-0.5,0.4-0.6l0.1-0.1l0.1-0.1c0-0.1,0.1-0.1,0.1-0.2c0.1-0.1,0.2-0.1,0.2-0.2h0.1
		l0.2-0.1c0.1-0.1,0.2-0.1,0.5-0.1h0.2h0.2c0.8,0,1.6,0.7,1.6,1.6l0,0c-0.1,1.3-1.2,2.3-2.4,2.4c-0.5,0-0.8-0.1-1.2-0.4v-0.1
		c0-0.1-0.1-0.1-0.1-0.2v-0.1C228,42.4,228,42.3,228,42.3L228,42.3z"/>
	<path class="st0" d="M205.4,42.1c0,1.4,1.1,2.6,2.5,2.8l0,0c2.6,0,4.9-1.9,5.4-4.6c0.2-1.4-0.7-2.9-2.3-3.1c-0.1,0-0.2,0-0.4,0
		C208.1,37.1,205.7,39.3,205.4,42.1z M206.9,41.7L206.9,41.7c0-0.1,0-0.2,0-0.2v-0.1v-0.1v-0.1l0,0V41v-0.1v0c0-0.1,0.1-0.2,0.1-0.4
		l0.1-0.1l0.1-0.1l0.1-0.1l0.1-0.1l0.1-0.1l0.1-0.1c0.1-0.1,0.2-0.2,0.4-0.2l0.1-0.1l0,0l0.1-0.1c0.1,0,0.2-0.1,0.2-0.1h0.1h0.1h0.4
		c0.6,0,1.2,0.4,1.3,1v0.1c0,0.1,0.1,0.2,0.1,0.4c0,0,0,0,0,0.1v0.1c0,1.3-1.1,2.4-2.4,2.5c-0.8,0-1.6-0.6-1.6-1.4v-0.1L206.9,41.7z
		"/>
	<path class="st0" d="M229.2,39.5l-0.2,0.2C229,39.7,229.1,39.7,229.2,39.5z"/>
	<path class="st0" d="M228.6,40c-0.2,0.2-0.4,0.6-0.5,0.8C228.2,40.6,228.4,40.3,228.6,40z"/>
	<path class="st0" d="M228,42.4c-0.1-0.2-0.1-0.5-0.1-0.6c0-0.2,0-0.6,0.1-0.8c-0.1,0.2-0.1,0.6-0.1,0.8
		C227.9,41.9,228,42.2,228,42.4z"/>
	<path class="st0" d="M72,16L67,31.1h9.8L72,16z M72,16L67,31.1h9.8L72,16z M72,16L67,31.1h9.8L72,16z M72,16L67,31.1h9.8L72,16z
		 M72,16L67,31.1h9.8L72,16z M72,16L67,31.1h9.8L72,16z M72,16L67,31.1h9.8L72,16z M72,16L67,31.1h9.8L72,16z M94.9,0H25.1
		c-8.5,0-9.2,9.1-9.1,9L8.1,52.6h84.2l0-0.1l8.3-45.1C100.3-0.7,94.9,0,94.9,0z M52,44.5H27.4V12.6c0-2,1.6-3.8,3.6-3.8h3.6V38H52
		V44.5z M54.9,44.5l11.9-33.4c0.5-1.6,1.7-2.4,3.5-2.4h5.9v0.1L89,44.5h-7.7l-2.4-7.3H65.1l-2.4,7.3H54.9z M72,16L67,31.1h9.8L72,16
		z M72,16L67,31.1h9.8L72,16z M72,16L67,31.1h9.8L72,16z M72,16L67,31.1h9.8L72,16z M72,16L67,31.1h9.8L72,16z M72,16L67,31.1h9.8
		L72,16z M72,16L67,31.1h9.8L72,16z"/>
	<path class="st0" d="M94.4,65.8c-6.7,0-9.7,5.3-9.7,12.1c0,7,3,12.3,9.7,12.3c0.7,0,1.3,0,2.2-0.2c1-0.2,1.7-0.5,2-0.7l-3.8-3.6
		l1.2-1.3c1.3-1.4,2.9-1.7,4.6-0.6l2,1.6c1.2-1.9,1.7-4.3,1.7-7.3C104.3,70.9,101.2,65.8,94.4,65.8z M94.4,65.8
		c-6.7,0-9.7,5.3-9.7,12.1c0,7,3,12.3,9.7,12.3c0.7,0,1.3,0,2.2-0.2c1-0.2,1.7-0.5,2-0.7l-3.8-3.6l1.2-1.3c1.3-1.4,2.9-1.7,4.6-0.6
		l2,1.6c1.2-1.9,1.7-4.3,1.7-7.3C104.3,70.9,101.2,65.8,94.4,65.8z M94.4,65.8c-6.7,0-9.7,5.3-9.7,12.1c0,7,3,12.3,9.7,12.3
		c0.7,0,1.3,0,2.2-0.2c1-0.2,1.7-0.5,2-0.7l-3.8-3.6l1.2-1.3c1.3-1.4,2.9-1.7,4.6-0.6l2,1.6c1.2-1.9,1.7-4.3,1.7-7.3
		C104.3,70.9,101.2,65.8,94.4,65.8z M94.4,65.8c-6.7,0-9.7,5.3-9.7,12.1c0,7,3,12.3,9.7,12.3c0.7,0,1.3,0,2.2-0.2
		c1-0.2,1.7-0.5,2-0.7l-3.8-3.6l1.2-1.3c1.3-1.4,2.9-1.7,4.6-0.6l2,1.6c1.2-1.9,1.7-4.3,1.7-7.3C104.3,70.9,101.2,65.8,94.4,65.8z
		 M232.6,52.6c-4.5-0.3-78.5-0.2-140.3-0.1c-11.9,0-23.3,0-33.7,0.1c-29.3,0.1-50.5,0.1-50.5,0.1L0.1,98.6c0,0-1.6,6.2,5.8,6.8
		l218.3,0.1c4-0.8,7-3.8,7.8-7.8l6.5-37.5C238.5,60.3,240.4,53.1,232.6,52.6z M41.3,96H15.4V63.9c0-2.5,1.2-3.7,3.7-3.8h22.1v6.2
		H22.6V74h13.9v2.4c0,2.5-1.2,3.7-3.7,3.7H22.7v9.2h18.6V96z M60.2,96.5c-9.5,0-14.2-4-14.4-11.7h7.1c0.2,3.7,2.6,5.6,7.3,5.6
		c4.7,0,7-1.7,6.8-4.6c0-1.7-1.1-2.9-3.2-3.5c-2-0.6-4.6-1.2-7.1-1.9c-7-1.8-10.5-5-10.5-9.7c0.1-7.4,4.6-11.2,13.5-11.2
		c8.4,0,12.7,3.7,13.2,11.1h-4.1c-1.6,0-2.5-0.7-3.2-2c-1.2-2-3.4-3-6.5-3c-3.7,0-5.6,1.4-5.9,4.2c0,2.3,2.3,3.8,7,4.9
		c2.6,0.6,5.5,1.4,8.5,2.5c4,1.3,5.9,4.3,5.6,8.8C74,93,69.2,96.5,60.2,96.5z M109.7,95.9c-1.3,1.2-2.8,1.2-4,0.1l-2-1.8
		c-2.5,1.4-5.6,2.2-9.2,2.2c-10.8,0-17.1-7.4-17.1-18.4c0-10.8,6.4-18.4,17.1-18.4c10.8,0,17.1,7.4,17.1,18.4
		c0,5.2-1.3,9.4-3.7,12.3l3.8,3.7L109.7,95.9z M143.1,83c0,8.8-5.2,13.3-14.2,13.3c-9.1,0-14.2-4.3-14.2-13.3V63.9
		c0.1-1.9,1.8-3.8,3.8-3.8h3.6v22.1c0,5.2,2.3,7.8,6.8,7.9c4.6,0,6.8-2.6,6.8-7.9V60.1h7.2V83z M153.4,95.8h-7.3V63.9
		c0-2.5,1.2-3.8,3.7-3.8h3.6V95.8z M186.4,95.8h-7.6l-14.5-24.5v24.5h-7.2V63.9c-0.1-2,1.6-3.8,3.6-3.8h4l14.5,24.5V60.1h7.2V95.8z
		 M217,95.8l-2.4-7.3h-13.9l-2.4,7.3h-7.8l11.9-33.4c0.5-1.6,1.7-2.4,3.5-2.4h6v0.1l12.9,35.7H217z M202.7,82.5h9.8l-5-15.3
		L202.7,82.5z M94.4,65.8c-6.7,0-9.7,5.3-9.7,12.1c0,7,3,12.3,9.7,12.3c0.7,0,1.3,0,2.2-0.2c1-0.2,1.7-0.5,2-0.7l-3.8-3.6l1.2-1.3
		c1.3-1.4,2.9-1.7,4.6-0.6l2,1.6c1.2-1.9,1.7-4.3,1.7-7.3C104.3,70.9,101.2,65.8,94.4,65.8z M94.4,65.8c-6.7,0-9.7,5.3-9.7,12.1
		c0,7,3,12.3,9.7,12.3c0.7,0,1.3,0,2.2-0.2c1-0.2,1.7-0.5,2-0.7l-3.8-3.6l1.2-1.3c1.3-1.4,2.9-1.7,4.6-0.6l2,1.6
		c1.2-1.9,1.7-4.3,1.7-7.3C104.3,70.9,101.2,65.8,94.4,65.8z M94.4,65.8c-6.7,0-9.7,5.3-9.7,12.1c0,7,3,12.3,9.7,12.3
		c0.7,0,1.3,0,2.2-0.2c1-0.2,1.7-0.5,2-0.7l-3.8-3.6l1.2-1.3c1.3-1.4,2.9-1.7,4.6-0.6l2,1.6c1.2-1.9,1.7-4.3,1.7-7.3
		C104.3,70.9,101.2,65.8,94.4,65.8z M94.4,65.8c-6.7,0-9.7,5.3-9.7,12.1c0,7,3,12.3,9.7,12.3c0.7,0,1.3,0,2.2-0.2
		c1-0.2,1.7-0.5,2-0.7l-3.8-3.6l1.2-1.3c1.3-1.4,2.9-1.7,4.6-0.6l2,1.6c1.2-1.9,1.7-4.3,1.7-7.3C104.3,70.9,101.2,65.8,94.4,65.8z
		 M94.4,65.8c-6.7,0-9.7,5.3-9.7,12.1c0,7,3,12.3,9.7,12.3c0.7,0,1.3,0,2.2-0.2c1-0.2,1.7-0.5,2-0.7l-3.8-3.6l1.2-1.3
		c1.3-1.4,2.9-1.7,4.6-0.6l2,1.6c1.2-1.9,1.7-4.3,1.7-7.3C104.3,70.9,101.2,65.8,94.4,65.8z"/>
	<line class="st0" x1="213.6" y1="46.1" x2="96.8" y2="46.1"/>
	<path class="st1" d="M97,47.5c-0.1,0-0.1,0.2-0.1,0.2C97.1,47.6,97,47.3,97,47.5z"/>
	<polygon class="st0" points="99.8,47 99.7,47 100.2,46.9 	"/>
	<path class="st0" d="M102.5,47c-0.2-0.4-1,0-1.4-0.1l-0.1-0.1l-0.2,0.2C101.3,47,101.9,46.9,102.5,47z"/>
	<path class="st0" d="M103.9,47.7c-0.1-0.1,0.2-0.1-0.4,0l0,0H103.9z"/>
	<path class="st0" d="M103.6,47.7C103.3,47.7,103.8,47.8,103.6,47.7z"/>
	<path class="st0" d="M104.9,47.6l-0.4,0.1c0.1,0.1,0.4,0.1,0.2,0.1C105.2,47.8,105.1,47.8,104.9,47.6z"/>
	<path class="st0" d="M105.2,47.3H105C105,47.3,105.1,47.5,105.2,47.3z"/>
	<path class="st0" d="M104.6,47.6l0.4-0.1c0,0,0-0.2-0.2,0C104.9,47.3,104.8,47.5,104.6,47.6z"/>
	<path class="st0" d="M104.4,47.5c-0.2-0.1-0.5-0.1-0.1-0.2C103.6,47.2,103.7,47.6,104.4,47.5z"/>
	<path class="st0" d="M102.6,46.5l-0.2-0.1l-0.2,0.2C102.2,46.5,102.6,46.6,102.6,46.5z"/>
	<path class="st0" d="M107.2,47.8c0-0.1-0.1-0.2-0.1-0.2l-0.2,0.1C106.9,47.7,107.2,47.7,107.2,47.8z"/>
	<path class="st0" d="M107,47.5l0.4-0.1C107,47.3,107,47.5,107,47.5z"/>
	<polygon class="st0" points="105.4,47 104.6,47.2 105.5,47 	"/>
	<polygon class="st0" points="108.7,47.8 108.5,48.1 109,47.7 	"/>
	<path class="st0" d="M109.8,47.8c-0.1,0.1,0.2,0.2,0.1,0.4c0.2,0,0.5-0.1,0.7-0.2C110.3,47.9,110.1,47.9,109.8,47.8z"/>
	<path class="st0" d="M110.9,47.7c-0.1,0-0.2,0.1-0.4,0.1C110.7,47.8,110.8,47.8,110.9,47.7z"/>
	<path class="st0" d="M108.1,47.5c0.1,0.1,0.1,0.2,0.4,0.2l-0.1-0.2H108.1z"/>
	<path class="st0" d="M108.2,47.5L108.2,47.5z"/>
	<path class="st0" d="M108.1,47.5L108.1,47.5C108.1,47.5,108.1,47.3,108.1,47.5z"/>
	<path class="st0" d="M106.4,47.1c0.2-0.1,0.7-0.2,0.2-0.5C106.4,46.9,106.7,47,106.4,47.1z"/>
	<path class="st0" d="M107.9,47.1h-0.5c0,0,0.1,0.1,0,0.2L107.9,47.1z"/>
	<polygon class="st0" points="108.1,47.1 107.9,47.1 108,47.2 	"/>
	<path class="st0" d="M110.2,47.5c0.2-0.1,0.4-0.1,0.6-0.1c-0.2,0-0.5-0.1-0.7-0.1C110.1,47.3,109.9,47.5,110.2,47.5z"/>
	<path class="st0" d="M109.3,47.5L109.3,47.5L109.3,47.5z"/>
	<path class="st0" d="M113.1,47.3L113.1,47.3L113.1,47.3z"/>
	<path class="st0" d="M110.1,47.2c-0.1,0-0.2,0-0.4,0.1L110.1,47.2C110.1,47.3,110.1,47.2,110.1,47.2z"/>
	<path class="st0" d="M111.6,47.6c-0.1,0-0.2-0.1-0.4-0.1C111.4,47.6,111.5,47.7,111.6,47.6z"/>
	<path class="st0" d="M109.3,47.5L109.3,47.5C109.3,47.5,109.5,47.5,109.3,47.5z"/>
	<path class="st0" d="M109.3,47.5c0.1,0,0.1-0.1,0.2-0.1C109.5,47.3,109.3,47.3,109.3,47.5L109.3,47.5z"/>
	<path class="st0" d="M113.8,46c0,0.2-0.5,0.4-1,0.1c-0.4,0.1-0.1,0.8,0.2,1.2c0-0.1,0-0.1,0.5-0.2c-0.1-0.1-1-0.2-0.6-0.5
		c0.6-0.1,0.5,0.1,0.7,0.2c-0.2-0.2,0.7-0.4,0.6-0.7l-0.5,0.1C113.8,46.1,113.9,46,113.8,46z"/>
	<path class="st0" d="M112.2,47.3H112c0.2,0,0.5,0.1,0.6,0.2c0.2-0.1,0.4-0.2,0.4-0.2H112.2L112.2,47.3z"/>
	<path class="st0" d="M111.3,47.3c0.1-0.2,0.6-0.4,0.2-0.6c-0.5,0-0.4,0.2-0.7,0.2C111.7,47.1,110.7,47.2,111.3,47.3
		c-0.1,0-0.4,0-0.5,0H111.3L111.3,47.3L111.3,47.3L111.3,47.3L111.3,47.3C111.5,47.3,111.3,47.3,111.3,47.3
		C111.3,47.5,111.3,47.5,111.3,47.3L111.3,47.3h0.8C111.9,47.3,111.5,47.3,111.3,47.3z"/>
	<path class="st0" d="M107,46.3L107,46.3C107,46.3,107.2,46.3,107,46.3z"/>
	<path class="st0" d="M107.4,46.4c-0.1,0.1-0.2,0.1-0.4,0.1c-0.1-0.1,0-0.1,0-0.2s-0.4,0.1,0,0.2l0,0c0.4,0.1,0.8,0.4,0.7,0.4
		C107.8,46.7,107.6,46.5,107.4,46.4z"/>
	<path class="st0" d="M109.3,46.9l0.7-0.1l-0.4-0.2v0.1C109.3,46.6,109.5,46.7,109.3,46.9z"/>
	<polygon class="st0" points="113.2,47.5 113.1,47.7 113.5,47.3 	"/>
	<polygon class="st0" points="114.1,47.5 114,47.7 114.3,47.6 	"/>
	<path class="st0" d="M165.2,44.9h0.2H165.2z"/>
	<path class="st0" d="M163.6,44.9L163.6,44.9C163.7,45.1,163.7,44.9,163.6,44.9z"/>
	<path class="st0" d="M136.4,47.5c0.2,0.2,0.6,0.5,0.6,0.2l-0.1-0.2C136.6,47.5,136.5,47.5,136.4,47.5z"/>
	<path class="st0" d="M151.5,46.1L151.5,46.1l-0.2,0.2L151.5,46.1z"/>
	<path class="st0" d="M151.7,45.2l0.4,0.1C152,45.3,151.9,45.3,151.7,45.2z"/>
	<path class="st0" d="M173.2,44.7l0.2-0.2C173.1,44.5,173.2,44.6,173.2,44.7z"/>
	<path class="st0" d="M123.4,47.3c0.2,0.1,0.5,0.1,0.6,0.1C123.7,47.3,123.4,47.2,123.4,47.3z"/>
	<path class="st0" d="M164.6,47.3c0.1,0,0.1-0.1,0.1-0.1S164.6,47.2,164.6,47.3z"/>
	<path class="st0" d="M124.7,47.5h-0.1c-0.2,0-0.4,0-0.6,0C124.2,47.7,124.5,47.7,124.7,47.5z"/>
	<path class="st0" d="M202.5,44.9L202.5,44.9C202.7,44.9,202.7,44.9,202.5,44.9z"/>
	<path class="st0" d="M211.1,47.1h-0.4C210.8,47.2,211,47.2,211.1,47.1z"/>
	<path class="st0" d="M117.7,47.6C117.5,47.6,117.7,47.6,117.7,47.6z"/>
	<path class="st0" d="M116.8,46.7C116.8,46.6,116.9,46.6,116.8,46.7C116.9,46.6,116.8,46.6,116.8,46.7z"/>
	<path class="st0" d="M126.6,46.1L126.6,46.1L126.6,46.1z"/>
	<path class="st0" d="M117.5,47.5c0.1,0,0.1,0,0.2,0.1C117.6,47.5,117.5,47.5,117.5,47.5z"/>
	<path class="st0" d="M117.5,47.6h-0.1C117.3,47.6,117.3,47.6,117.5,47.6z"/>
	<path class="st0" d="M118,47.6h-0.4l0,0H118z"/>
	<path class="st0" d="M186.8,45.5L186.8,45.5C187,45.4,187,45.4,186.8,45.5z"/>
	<path class="st0" d="M141.3,45.2L141.3,45.2z"/>
	<path class="st0" d="M142,44.9c-0.1,0.2-0.5,0.2-0.7,0.2l0.2,0.6L142,44.9z"/>
	<path class="st0" d="M168.7,44.6l-0.5-0.1c0.6-0.2,1-0.1,0.6-0.2c-0.1,0.4-1.9,0-1.9,0.5l-0.4-0.1c0.1,0,0.1,0,0.2,0
		c-0.6-0.2-0.5,0.2-1.3,0.2c-0.2,0-0.5-0.1-0.2-0.1l-0.6,0.1c-0.1,0-0.1-0.1,0-0.1h-1l0,0c-0.2,0.1-0.4,0.1-0.6,0.2
		c-0.2,0,0.1,0,0-0.1l-0.5,0.1c-0.2-0.1,0.2-0.2,0.6-0.2c-0.5-0.4-0.5,0.1-1.4-0.1h0.5c-0.4-0.2-0.7-0.1-1.2-0.2
		c0.1,0.1,1.1,0.4,0.5,0.5c-0.2,0-0.5,0-0.7,0c0-0.1-0.2-0.1-0.7-0.1v-0.2c-0.4,0-0.4,0.1-0.6,0.2c-0.4,0-0.6-0.1-0.7-0.2
		c-0.7,0,0.5,0.2-0.4,0.2c-0.6,0-1.2,0-1.8,0.1c-0.5-0.1,0.1-0.1-0.1-0.1l-0.4,0.1c-0.1,0,0,0,0-0.1c-0.4,0,0,0.2-0.5,0.2
		c-0.1,0.2-1.1-0.4-1.7-0.1c-0.1,0,0.1-0.1,0-0.2c-0.5,0.1-1,0.1-1.4,0.4l-0.6-0.1c0.5,0.1-0.1,0.4-0.6,0.5c0.1,0,0.2,0.1,0.4,0.1
		l-0.7,0.1c-0.1,0,0-0.1,0.1-0.1h-0.1c-0.2-0.1-0.1-0.2,0-0.2l0.2,0.1c0.2-0.1,0.4-0.2,0.4-0.4c-0.1,0-0.1,0-0.2,0
		c0,0,0.1-0.1,0-0.1s-0.1,0-0.2,0.1l-0.1-0.2v0.1l-1-0.1c-0.7,0.4-1.6,0.5-2.5,0.6c0.2-0.1,0.1-0.2,0.1-0.5c0.4,0.2,0.8-0.1,1.4,0
		c-0.4,0-0.2-0.1-0.1-0.1l-1.1,0.1c0-0.1-0.2-0.1-0.5-0.1c0.2,0.4-0.8,0.2-1.2,0.2c0-0.1,0.1-0.2,0.6-0.1c-0.6-0.2-0.7,0.4-1.3,0.1
		c0.1,0,0.2,0,0.2,0c-0.2,0.1-1.1,0-0.8-0.1h0.1c-0.8,0-2.6,0-2.8,0.2c0-0.1,0.1-0.2,0.1-0.4l-1.6,0.8c0.1-0.2-0.4-0.7,0.4-0.8
		c-0.2,0-0.6,0-0.8,0c0.1,0,0.4,0.4,0.1,0.4c-0.5-0.2-0.4-0.1-1-0.4c0.2,0,0,0.4-0.4,0.4c0,0,0-0.4,0.1-0.4l-0.8,0.4
		c0.2-0.1,0-0.2-0.1-0.4c0.1,0.1-0.7,0-1,0l0.4,0.1c-1,0-1,0.5-1.8,0.5c0.1-0.1,0.2-0.5-0.2-0.5c-0.2,0.1-1,0.8-1.8,1l-0.1-0.1
		l-0.6,0.1c0.6-0.4,1.3-0.7,2-1.1c-0.4-0.1-0.1-0.1-0.6-0.1c-0.2-0.1,0.2-0.1,0.5-0.1h-1.2c0,0.2-1,0.2-0.8,0.4l1.3-0.2
		c0,0.2-0.7,0.6-1.6,0.5c-0.2-0.1,0.1-0.4,0.1-0.5c-0.2,0.1-0.6,0.1-0.8,0.1l0.4-0.1c-0.5-0.1-0.7,0.2-1.3,0.1
		c-0.2,0-0.6-0.2-0.6-0.1c0.4,0.4,0.4,0.7,0.1,1.1c-0.4-0.1-0.8-0.2-1.2-0.4c-0.4-0.1,0.5-0.5,0.2-0.6l-0.2,0.1
		c-0.1,0,0.1-0.1-0.4-0.1c-0.1,0.2-1,0-0.2,0.1c-0.5,0.1-0.5,0-1,0c0.1,0.1-0.5,0.5-1,0.5l-0.1-0.1c-1,0-1.4-0.1-2.2-0.1
		c-0.1,0-0.5-0.1-0.4-0.2c-0.1,0.1-0.4,0.1-0.5,0.1c-0.5-0.1,0.6,0,0.2-0.2c0,0.1-0.7,0.1-1.1,0.2c0.1,0.1,0.8,0,1.2,0
		c0,0.2-0.6,0.5-1.6,0.6c-0.7,0.1-0.2-0.1-0.4-0.1c-1.3,0-1.1,0.5-2.2,0.2c-0.4-0.1,0-0.4-0.1-0.5c0.6,0,0.8,0.1,1.2,0.1l-0.5-0.1
		c0.2-0.1,0.5-0.1,0.7,0c-0.4-0.1-2.2,0-3.2-0.1c-0.2,0-0.5,0.1-0.4,0.1h0.4c0.2,0.1-0.6,0.2-0.2,0.2c-0.5,0.1-1,0.2-1.6,0.1l0,0.1
		c0,0,0.4,0.1,0.6,0c-0.2,0.1-1-0.2-1.2,0l0.4,0.1c-0.5,0.1-1,0.2-1.4,0.2c0.2,0.1,0.1,0,0.5,0.2c-0.4-0.2,1.3,0,0.8-0.2
		c0.4,0.2,0.7,0.1,1.2,0.4c0,0-0.2-0.1,0.2-0.1h0.1l0,0l0,0c-0.1,0-0.1,0-0.2-0.1c0.2-0.1,1-0.1,1.2-0.2c0.2-0.1-0.1,0.1,0,0.1
		l0.4-0.1c0,0.1,0.7,0.2,0.1,0.2h0.6c0.4,0.1,0.7,0.1,1.1,0c0.2,0,0.7-0.1,0.5,0l0.8-0.1l0,0c0.8,0,1.8-0.2,2.8,0
		c0.4,0,0.7-0.1,1.1,0l0.1,0.1c0.4,0,1.2,0.1,1.3,0c0.4,0.4,1.8,0.1,2.5,0.1v-0.1c0.5,0,1,0,1.4-0.1v-0.1c0.5-0.1,1.3,0.1,2,0.1
		c0,0-0.2,0-0.4,0c1,0.4,1.9-0.2,2.8,0c0.1,0,0.4,0,0.5,0l0,0l0.2,0.1c-0.1,0-0.1,0-0.2-0.1c0.2,0,0.5,0,0.6,0l0.1,0.1l0,0
		c0.2,0,0.2-0.1,0.1-0.1c0.1,0,0.2,0,0.4-0.1c0.2,0.2,0.6-0.1,0.8,0.1c0.1-0.1,1.2-0.1,1.3-0.4c0,0,0.1,0,0,0c0.2,0,0.5,0,0.7,0
		l0.1,0.2l0.6-0.2c0.4,0.1,0.5,0.1,0.1,0.4c0.5-0.1,1-0.2,1.4-0.2v0.1c0.2,0,0.7-0.1,0.8-0.1c0.6,0.2,2.9,0,4.3,0.2
		c-0.2-0.4,0.7,0.1,0.7-0.1c0.1,0.1,0.2,0.1,0,0.2c0.7-0.1,1.2,0.1,1.7-0.1c0.1,0.1-0.1,0.1-0.1,0.1s0.2-0.1,0.4,0s-0.1,0.1-0.2,0.1
		c0.8,0,0.8-0.2,1-0.5c0.4,0.1,0.6,0.1,0.8,0c0.1,0.1,0.4,0.1-0.1,0.2c0.2,0,1.7,0.1,1.7-0.1c0.1,0,0.4,0,0.5,0c0.4,0,0.8,0,1.2,0
		l0,0c0.2-0.2,0.5,0,1-0.1l0,0c1.1,0.1,0.5-0.1,1.6,0.1v-0.2c0.1-0.4,1,0.2,1.6,0.1l-0.2-0.1c0.4-0.1,1,0.4,1.3,0.5
		c0.1,0-0.1,0-0.2,0.1c1,0.2,0.1-0.2,0.8-0.2c0.1,0.1-0.1,0.2,0.2,0.2c0.2,0.1,1.3-0.4,1.9-0.1c-0.1-0.1-0.2-0.1,0-0.2
		c0.2,0,1.3,0.2,1.7,0c0,0,0.1,0,0.1,0.1c0.4-0.1,1.2-0.1,1.4-0.2c0.4,0.5,2.3-0.2,2.3,0.2h1.1l0,0c0.5,0,0.8,0,1.2-0.2
		c0.1,0,0,0.1,0,0.1c0.7,0.1,1.4,0,2-0.1l0.1,0.1c0.2-0.1,1.6,0.2,2.5,0c0,0,0,0-0.1,0.1c1.2-0.1,2.8,0.4,3.2-0.1l0.7-0.1
		c-1,0,0.1-0.2-0.2-0.4c0.4,0,1,0.1,0.5,0.2h-0.1c-0.1,0.2,1.2,0.1,1.2,0.2c1.9,0,3.8,0.1,5.6,0.1l-0.2-0.2h0.6
		c0.1,0,0.2,0.1-0.2,0.1c0.2,0.1,0.7-0.1,0.7-0.1c0.8,0.1-0.4,0.2-0.1,0.2h0.4h-0.1c0.2-0.1,0.4-0.2,0.8-0.1c0.4,0,0.1,0.1,0.4,0.1
		c0.1,0,0,0,0.2,0h0.8l-0.4-0.1c0.4-0.1,0.7,0,0.4-0.2c0.6,0.2,3,0.1,3.4,0.2c0.5-0.1,1.1-0.1,1.7-0.1c-0.1,0-0.2-0.2,0.2-0.2
		c-0.2,0.4,1,0.1,1.4,0.5c-0.4-0.2,1.4,0,1-0.4c0.5,0,0,0.1,0.4,0.2c1.1-0.1,2.3,0.1,3.6,0c0,0-0.2-0.1,0.1-0.2l0.7,0.2
		c0.2,0,0.2-0.4,0.7-0.1c-0.1,0-0.1-0.1,0-0.1c2.5,0.2,5.2-0.2,7.7,0.2c-0.4-0.1-0.1-0.1,0.1-0.1c-0.1,0,0-0.1,0-0.2l1.1,0.2
		c0.2-0.2,1.2,0,1.3-0.2h-0.4c0.5-0.2-0.6-0.5-0.6-0.8c-0.5,0.2-1.3-0.4-2.2,0c-0.2,0,0.1-0.1,0.1-0.1c-0.2,0.1-0.5,0.1-1,0.1h0.1
		c-1.1,0-2.3,0-3.4-0.1l0.1,0.1c-0.2,0-0.4,0-0.5-0.1c-0.4,0.2,1,0,0.6,0.2c-0.5-0.2-2.3,0-2.5-0.4c-0.5,0,0.1,0.1-0.4,0.1l-0.1-0.1
		l-0.1,0.1c-0.4,0-0.5-0.1-0.5-0.2c0.1,0,0.2,0,0.2,0c-0.5-0.1-1.2,0-1.3,0h0.5c-1.4,0-2.9,0-4.3,0.1l0.1,0.1c-1,0.1-0.8-0.1-1.9,0
		l0,0c-0.2,0.1-0.5,0.1-0.8,0.1c0.2-0.1-0.5-0.1-0.1-0.2c-1.1,0.1-0.5,0.1-1.2,0.4l-0.1-0.1c-0.2,0.1-0.5,0.2-0.8,0.2
		c0.5-0.1-0.4-0.1,0.1-0.2c-1.2-0.2-1.7,0.2-2.3-0.1c-0.5,0.4,1,0.1,0.7,0.2c0.2,0.1-0.5,0.2-0.8,0.2c-0.4,0-0.6-0.4-1.6-0.4
		c0.1,0,0.1,0,0.2,0c-0.4-0.1-0.7,0.1-1.1,0c-0.2,0.2-0.5,0-0.6,0.2h0.8c-0.5,0.1-1,0.4-1.7,0.2c0.1-0.1,0.2-0.1,0.5-0.1
		c-0.2-0.1-0.5,0-0.7,0c0.1-0.2,1.1,0,1.6-0.2c-0.2-0.1-1,0.1-0.7-0.1c-0.4,0.4-1,0-1.6,0.2v-0.1c-0.1,0-0.4,0.1-0.5,0.1l0.4-0.2
		c-0.5,0.1-1-0.1-1.4,0c1,0,0.2,0.1,0.6,0.2c-1.2,0.2-0.7-0.4-2.2-0.4c0.2,0,0.7,0.1,0.5,0.1c-0.2,0-0.5-0.1-0.7-0.1
		c-1,0,0.1,0.1-0.2,0.2c-0.4-0.1-0.5,0.1-0.8,0.1v-0.1c-1.1-0.1-0.2,0.4-1.2,0.2l0.4-0.2h-0.5l0.1-0.1c-0.4,0.1-0.8,0.1-1.2,0
		c0.1,0.1-0.1,0.2-0.5,0.2c-0.5,0,0.1-0.1-0.5-0.1c0.1-0.1,0.4-0.2,0.6-0.1l0.1-0.1c-0.4,0-0.7,0-1.1,0c0.1,0,0.1,0,0.2,0l-1,0.2
		c-0.1,0,0-0.1,0.1-0.1c-0.2,0-0.4,0.1-0.6,0.1c0.1-0.1,0-0.2,0.5-0.2l-1,0.1c0,0-0.5-0.1-0.4-0.2c-0.5-0.1-1.2,0.2-1.9,0.1
		c-0.1,0-0.1,0-0.2,0c-0.6-0.1-1.3-0.1-1.9,0l-0.5-0.2c-0.6,0,0.6,0.2-0.4,0.4c-0.7,0.1-0.2-0.1-0.5-0.2c-0.5,0.2-1.1,0.2-1.6,0.1
		C168.3,44.7,168.5,44.7,168.7,44.6z M161.5,44.7c0.1,0,0.5-0.1,0.5,0C161.8,44.8,161.7,44.8,161.5,44.7L161.5,44.7z M150.5,45.1
		c0.1,0,0.2,0,0.5,0C150.8,45.1,150.7,45.1,150.5,45.1L150.5,45.1z M119.9,46.1L119.9,46.1C120.1,46.1,120,46.1,119.9,46.1
		L119.9,46.1z M119.2,46L119.2,46c0,0.1,0.2,0,0.4,0.1C119.4,46,119.4,46,119.2,46L119.2,46z M188.8,46h-0.1
		C189.1,45.9,189,45.9,188.8,46L188.8,46z"/>
	<path class="st0" d="M151.7,45.3v0.1C151.7,45.4,151.9,45.4,151.7,45.3z"/>
	<path class="st0" d="M173.2,44.8L173.2,44.8L173.2,44.8z"/>
	<path class="st0" d="M129.3,45.2c0.1,0,0.2,0,0.2,0.1C129.5,45.3,129.4,45.2,129.3,45.2z"/>
	<path class="st0" d="M115.7,47.7h0.4C116.1,47.7,115.9,47.7,115.7,47.7C115.8,47.6,115.8,47.7,115.7,47.7z"/>
	<path class="st0" d="M112.1,46.1c0,0-0.1,0-0.2,0v0.1C112.2,46.3,112.5,46.3,112.1,46.1z"/>
	<path class="st0" d="M115.3,46.9c0-0.2-0.2-0.1-0.6-0.1l0,0C114.7,47.1,115.1,47,115.3,46.9z"/>
	<path class="st0" d="M114.7,46.7h-0.2C114.4,46.9,114.5,46.9,114.7,46.7z"/>
	<path class="st0" d="M118.3,47.3c-0.1,0-0.1,0.2-0.1,0.2C118,47.8,119.1,47.2,118.3,47.3z"/>
	<polygon class="st0" points="115.1,46.1 115.2,46.4 115.3,46.3 	"/>
	<path class="st0" d="M117.4,46.4l-0.5-0.1c0,0,0,0.1-0.1,0.1C117.1,46.4,117.4,46.5,117.4,46.4z"/>
	<path class="st0" d="M116.8,46.4c-0.1,0-0.2,0-0.4,0C116.5,46.4,116.7,46.4,116.8,46.4z"/>
	<polygon class="st0" points="115.7,46.1 115.9,46.1 116.2,46.1 	"/>
	<path class="st0" d="M122.4,46.4l0.5-0.1c0-0.1-0.1-0.1-0.2-0.1S122.3,46.4,122.4,46.4z"/>
	<path class="st0" d="M120.9,45.7c0.1,0,0.1,0.1,0.2,0.2v-0.2H120.9z"/>
	<path class="st0" d="M122.3,45.7c0.1-0.1,0.7-0.2,0.1-0.2C122.4,45.5,121.9,45.5,122.3,45.7z"/>
	<polygon class="st0" points="130,46 129.9,46 129.9,46.6 	"/>
	<path class="st0" d="M136.7,44.8c-0.6-0.1-0.1,0.4-0.7,0.1c-0.1,0.1,0.5,0.1,0.2,0.2C136.7,45.1,137,45.2,136.7,44.8z"/>
	<path class="st0" d="M136.4,45.2c-0.1,0-0.1,0-0.2,0.1L136.4,45.2z"/>
	<polygon class="st0" points="212.5,47.5 212.9,47.6 212.6,47.3 	"/>
	<path class="st0" d="M213.2,47l0.1,0.4l0.2-0.2C213.5,47.1,213.4,47.1,213.2,47z"/>
	<path class="st0" d="M160.4,44.5L160.4,44.5c0.1,0.1,0.1,0.1,0.4,0.2L160.4,44.5z"/>
	<polygon class="st0" points="165.7,44.7 165.5,44.7 165.7,44.9 	"/>
	<path class="st0" d="M170,44.2c-0.1,0-0.4,0-0.6,0C169.9,44.2,170.1,44.7,170,44.2z"/>
	<path class="st0" d="M98.3,50.5c-0.2,0-0.1,0.2-0.1,0.2C98.5,50.6,98.3,50.3,98.3,50.5z"/>
	<polygon class="st0" points="101.6,49.9 101.6,50 102.1,49.7 	"/>
	<path class="st0" d="M104.8,49.9c-0.2-0.4-1.1,0-1.7-0.1l-0.1-0.1l-0.2,0.2C103.4,50,104.2,49.9,104.8,49.9z"/>
	<path class="st0" d="M106.4,50.7c-0.1-0.1,0.4-0.1-0.4,0h0.1H106.4z"/>
	<path class="st0" d="M106.2,50.7C105.8,50.7,106.4,50.8,106.2,50.7z"/>
	<path class="st0" d="M107.8,50.6l-0.5,0.1c0.1,0.1,0.5,0.1,0.4,0.1C108.1,50.8,108,50.7,107.8,50.6z"/>
	<path class="st0" d="M108.1,50.3h-0.2C107.9,50.3,108,50.5,108.1,50.3z"/>
	<path class="st0" d="M107.4,50.5l0.5-0.1c0,0,0-0.2-0.2,0C107.8,50.3,107.6,50.5,107.4,50.5z"/>
	<path class="st0" d="M107.2,50.5c-0.2-0.1-0.6-0.1-0.1-0.2C106.2,50.2,106.3,50.5,107.2,50.5z"/>
	<path class="st0" d="M105,49.5l-0.4-0.1l-0.2,0.1C104.5,49.5,105,49.6,105,49.5z"/>
	<path class="st0" d="M110.4,50.8c0-0.1-0.1-0.2-0.2-0.2l-0.4,0.1C110.2,50.6,110.4,50.7,110.4,50.8z"/>
	<path class="st0" d="M110.3,50.5l0.5-0.1C110.3,50.3,110.3,50.5,110.3,50.5z"/>
	<polygon class="st0" points="108.2,50 107.4,50.2 108.4,50 	"/>
	<polygon class="st0" points="112.3,50.8 112,50.9 112.6,50.7 	"/>
	<path class="st0" d="M113.5,50.8c-0.2,0.1,0.2,0.2,0.1,0.4c0.4,0,0.6-0.1,0.8-0.2C114.1,50.9,113.8,50.9,113.5,50.8z"/>
	<path class="st0" d="M114.9,50.7l-0.5,0.1C114.6,50.8,114.7,50.8,114.9,50.7z"/>
	<path class="st0" d="M111.6,50.5c0.1,0.1,0.2,0.2,0.4,0.2l-0.2-0.2H111.6z"/>
	<path class="st0" d="M111.7,50.5L111.7,50.5z"/>
	<path class="st0" d="M111.5,50.5L111.5,50.5C111.5,50.5,111.5,50.3,111.5,50.5z"/>
	<path class="st0" d="M109.5,50.1c0.2-0.1,0.8-0.2,0.2-0.5C109.6,49.9,109.9,50,109.5,50.1z"/>
	<path class="st0" d="M111.3,50.1h-0.5c0,0,0.1,0.1,0,0.2L111.3,50.1z"/>
	<path class="st0" d="M111.5,50.1h-0.2H111.5z"/>
	<path class="st0" d="M114,50.5c0.2-0.1,0.5-0.1,0.7-0.1c-0.2,0-0.6-0.1-0.8,0C113.8,50.3,113.7,50.5,114,50.5z"/>
	<path class="st0" d="M112.9,50.5L112.9,50.5C112.9,50.5,112.9,50.3,112.9,50.5z"/>
	<path class="st0" d="M117.5,50.3L117.5,50.3L117.5,50.3z"/>
	<path class="st0" d="M113.8,50.2c-0.1,0-0.4,0-0.5,0.1C113.5,50.3,113.7,50.3,113.8,50.2C113.9,50.3,113.9,50.2,113.8,50.2z"/>
	<path class="st0" d="M115.7,50.6c-0.1,0-0.2-0.1-0.4-0.1C115.3,50.6,115.6,50.6,115.7,50.6z"/>
	<path class="st0" d="M113.1,50.5L113.1,50.5L113.1,50.5z"/>
	<path class="st0" d="M113.1,50.5c0.1,0,0.2-0.1,0.2-0.1C113.2,50.3,113.1,50.3,113.1,50.5L113.1,50.5z"/>
	<path class="st0" d="M118.2,49c0,0.2-0.6,0.4-1.1,0.2c-0.5,0.1-0.1,0.8,0.2,1.2c0-0.1,0-0.1,0.5-0.2c-0.2-0.1-1.1-0.2-0.7-0.5
		c0.7-0.1,0.6,0.1,0.8,0.2c-0.2-0.2,0.8-0.4,0.7-0.7l-0.6,0.1C118.2,49.1,118.5,49,118.2,49z"/>
	<path class="st0" d="M116.4,50.3h-0.2c0.2,0,0.5,0.1,0.7,0.2c0.4-0.1,0.4-0.2,0.5-0.2H116.4L116.4,50.3z"/>
	<path class="st0" d="M115.3,50.3c0.1-0.2,0.7-0.4,0.4-0.6c-0.6,0-0.5,0.2-0.8,0.2C115.9,50,114.6,50.2,115.3,50.3
		c-0.2,0-0.4,0-0.5,0l0.5,0.1l0,0l0,0l0,0C115.3,50.5,115.3,50.5,115.3,50.3c0.2,0,0,0,0,0.1c0,0.1,0,0,0,0l0,0l1-0.1
		C115.9,50.3,115.7,50.3,115.3,50.3z"/>
	<path class="st0" d="M110.3,49.3L110.3,49.3C110.4,49.3,110.4,49.3,110.3,49.3z"/>
	<path class="st0" d="M110.8,49.4c-0.1,0.1-0.2,0.1-0.4,0.1c-0.2-0.1,0-0.1,0-0.2s-0.5,0.1,0,0.2h0.1c0.4,0.1,1,0.4,0.8,0.4
		C111.1,49.7,110.9,49.5,110.8,49.4z"/>
	<path class="st0" d="M113.1,49.7l0.8-0.1l-0.5-0.2v0.1C113.1,49.6,113.1,49.7,113.1,49.7z"/>
	<polygon class="st0" points="117.5,50.5 117.5,50.7 118,50.3 	"/>
	<polygon class="st0" points="118.6,50.5 118.6,50.7 118.8,50.5 	"/>
	<path class="st0" d="M179.2,47.9h0.2C179.5,47.9,179.4,47.9,179.2,47.9z"/>
	<path class="st0" d="M177.6,47.9L177.6,47.9L177.6,47.9z"/>
	<path class="st1" d="M145,50.5c0.4,0.2,0.7,0.5,0.7,0.2l-0.1-0.2C145.4,50.6,145.2,50.5,145,50.5z"/>
	<path class="st1" d="M163.1,49.1L163.1,49.1l-0.4,0.1L163.1,49.1z"/>
	<path class="st0" d="M163.4,48.2l0.5,0.1C163.7,48.3,163.5,48.2,163.4,48.2z"/>
	<path class="st0" d="M188.8,47.7l0.2-0.2C188.7,47.5,188.8,47.6,188.8,47.7z"/>
	<path class="st0" d="M129.6,50.3c0.2,0.1,0.5,0.1,0.7,0.1C130,50.3,129.8,50.2,129.6,50.3z"/>
	<path class="st1" d="M178.5,50.3c0.1,0,0.2-0.1,0.2-0.1S178.5,50.2,178.5,50.3z"/>
	<path class="st0" d="M131.3,50.5h-0.1c-0.2,0-0.5,0-0.7,0C130.7,50.6,131,50.6,131.3,50.5z"/>
	<path class="st0" d="M223.7,47.9L223.7,47.9C223.8,47.9,223.8,47.9,223.7,47.9z"/>
	<path class="st1" d="M233.9,50.1h-0.5C233.5,50.1,233.8,50.1,233.9,50.1z"/>
	<path class="st0" d="M122.9,50.6C122.7,50.6,122.9,50.6,122.9,50.6z"/>
	<path class="st0" d="M121.8,49.6C121.8,49.6,121.9,49.6,121.8,49.6C121.9,49.6,121.9,49.6,121.8,49.6z"/>
	<path class="st0" d="M133.6,49.1L133.6,49.1C133.5,49.1,133.5,49.1,133.6,49.1z"/>
	<path class="st0" d="M122.7,50.5h0.2H122.7z"/>
	<path class="st0" d="M122.7,50.6h-0.2C122.4,50.6,122.4,50.6,122.7,50.6z"/>
	<path class="st0" d="M123.3,50.6h-0.4l0,0H123.3z"/>
	<path class="st1" d="M205.1,48.5L205.1,48.5C205.3,48.4,205.2,48.4,205.1,48.5z"/>
	<path class="st0" d="M151,48.2L151,48.2z"/>
	<path class="st0" d="M151.7,47.9c-0.2,0.2-0.5,0.2-0.8,0.2l0.2,0.6L151.7,47.9z"/>
	<path class="st0" d="M183.4,48.1l-0.6-0.1c0.7-0.2,1.2-0.1,0.7-0.2c-0.1,0.4-2.3,0-2.3,0.5l-0.4-0.1c0.1,0,0.1,0,0.2,0
		c-0.7-0.2-0.5,0.2-1.4,0.2c-0.4,0-0.6-0.1-0.4-0.1l-0.7,0.1c-0.2,0-0.1-0.1,0.1-0.1h-1.1l0,0c-0.2,0.1-0.5,0.1-0.7,0.2
		c-0.2,0,0.1,0,0.1-0.1l-0.6,0.1c-0.2-0.1,0.2-0.2,0.7-0.2c-0.6-0.4-0.5,0.1-1.8-0.1h0.6c-0.4-0.2-0.8-0.1-1.4-0.2
		c0.1,0.1,1.3,0.4,0.7,0.5c-0.2,0-0.6,0-0.8,0c0-0.1-0.4-0.1-0.8-0.1v-0.2c-0.5,0-0.5,0.1-0.7,0.2c-0.4,0-0.6-0.1-0.7-0.2
		c-0.8,0,0.6,0.2-0.5,0.2c-0.7,0-1.4,0-2,0.1c-0.5-0.1,0.1-0.1-0.1-0.1l-0.5,0.1c-0.1,0-0.1,0-0.1-0.1c-0.4,0,0,0.2-0.6,0.2
		c-0.1,0.2-1.2-0.4-1.9-0.1c-0.1,0,0.1-0.1,0-0.2c-0.6,0.1-1.2,0.2-1.7,0.4l-0.7-0.1c0.5,0.1-0.1,0.4-0.7,0.5
		c0.2,0.1,0.4,0.1,0.5,0.1l-1,0.1c-0.1,0,0-0.1,0.1-0.1h-0.1c-0.4-0.1-0.1-0.2,0.1-0.2l0.4,0.1c0.2-0.1,0.5-0.2,0.4-0.4
		c-0.1,0-0.2,0-0.2,0s0.1,0,0.1-0.1s-0.1,0-0.2,0.1l-0.2-0.2v0.1l-1.2-0.1c-1,0.4-1.9,0.5-3,0.6c0.4-0.1,0.1-0.2,0.1-0.5
		c0.4,0.2,1.1-0.1,1.8,0c-0.4,0-0.2-0.1-0.2-0.1l-1.3,0.1c0-0.1-0.2-0.1-0.6-0.1c0.2,0.4-1,0.2-1.4,0.2c0-0.1,0.1-0.2,0.7-0.2
		c-0.7-0.2-0.8,0.4-1.6,0.1c0.1,0,0.2,0,0.2,0c-0.4,0.1-1.2,0-1.1-0.1h0.1c-1,0-3.1,0-3.2,0.2c0-0.1,0.1-0.2,0.2-0.4l-1.8,0.8
		c0.1-0.2-0.5-0.7,0.4-0.8c-0.4,0-0.7,0-1.1,0c0.1,0,0.4,0.4,0.2,0.4c-0.4-0.1-0.7-0.2-1.2-0.4c0.2,0,0,0.4-0.4,0.4
		c0.1,0,0-0.4,0.1-0.4l-1,0.4c0.2-0.1,0-0.2-0.2-0.4c0.1,0.1-0.8,0-1.1,0l0.4,0.1c-1.1,0-1.1,0.5-2.2,0.5c0.1-0.1,0.4-0.5-0.2-0.5
		c-0.5,0.5-1.2,0.7-2,1l-0.2-0.1l-0.7,0.1c0.7-0.4,1.6-0.7,2.4-1.1c-0.4-0.1-0.1-0.1-0.7-0.1c-0.2-0.1,0.4-0.1,0.5-0.1h-1.4
		c0.1,0.2-1.1,0.2-1.1,0.4l1.6-0.2c0,0.2-1,0.6-1.9,0.5c-0.2-0.1,0.2-0.4,0.1-0.5c-0.4,0.1-0.7,0.1-1.1,0.1l0.4-0.1
		c-0.6-0.1-1,0.2-1.6,0.1c-0.2,0-0.7-0.2-0.7-0.1c0.4,0.4,0.5,0.7,0.2,1.1c-0.5-0.1-1-0.2-1.4-0.4c-0.4-0.2,0.6-0.5,0.2-0.6
		c0,0-0.2,0.1-0.4,0.1c-0.1,0,0.1-0.1-0.5-0.1c-0.1,0.2-1.1,0-0.2,0.1c-0.5,0.1-0.6,0-1.2,0c0.2,0.1-0.6,0.5-1.1,0.5l-0.1-0.1
		c-1.1,0-1.7-0.1-2.6-0.1c-0.1,0-0.6-0.1-0.4-0.2c-0.1,0.1-0.4,0.1-0.6,0.1c-0.6-0.1,0.7,0,0.2-0.2c0,0.1-0.8,0.1-1.2,0.2
		c0.1,0.2,1,0,1.4,0c0,0.2-0.7,0.5-1.8,0.6c-0.8,0-0.4-0.1-0.5-0.1c-1.6,0-1.3,0.5-2.6,0.2c-0.5-0.1,0-0.4-0.1-0.5
		c0.7-0.1,1.1,0.1,1.4,0.1l-0.6-0.1c0.2-0.1,0.6-0.1,1,0c-0.5-0.1-2.6,0-3.8-0.1c-0.2,0-0.6,0.1-0.4,0.1h0.4
		c0.4,0.1-0.7,0.2-0.2,0.2c-0.6,0.1-1.2,0.2-1.8,0.1l-0.1-0.2c0,0,0.5,0.1,0.7,0c-0.2,0.1-1.1-0.2-1.4,0l0.5,0.1
		c-0.6,0.1-1.2,0.2-1.8,0.2c0.2,0.1,0.1,0,0.6,0.2c-0.4-0.2,1.6,0,1-0.2c0.5,0.2,0.8,0.1,1.4,0.4c0-0.1-0.2-0.1,0.4-0.1l0.2-0.1l0,0
		l0,0l0,0c-0.1,0-0.2,0-0.2-0.1c0.2-0.1,1.1-0.1,1.4-0.2c0.4-0.1-0.1,0.1,0,0.1l0.5-0.1c0,0.1,0.8,0.2,0.1,0.2h0.7
		c0.4,0.1,0.8,0.1,1.3,0c0.4,0,0.8-0.1,0.5,0l1.1-0.1l0,0c1.1-0.1,2.3-0.1,3.4,0c0.5,0,0.8-0.1,1.3,0l0.1,0.1c0.5,0,1.3,0.1,1.6,0
		c0.5,0.4,2.2,0.1,3,0.1V49c0.6,0,1.2,0,1.7-0.1v-0.1c0.6-0.1,1.4,0.1,2.4,0.1c-0.1,0-0.2,0-0.5,0c1.1,0.4,2.3-0.2,3.4,0
		c0.2,0,0.4,0,0.6,0l0,0l0.4,0.1c-0.1,0-0.2,0-0.2-0.1c0.2,0,0.5,0,0.7,0L146,49h0.1c0.2,0,0.2-0.1,0.1-0.1c0.1,0,0.2,0,0.4-0.1
		c0.2,0.2,0.7-0.1,1.1,0.1c0.2-0.1,1.4-0.1,1.6-0.4c0,0,0.1,0,0,0c0.2,0,0.6,0,1,0l0.1,0.2l0.7-0.2c0.4,0.1,0.6,0.1,0.2,0.4
		c1-0.2,0.8-0.1,1.7-0.2v0.6c0.2,0,0.8-0.1,1-0.1c0.7,0.2,3.4,0,5.2,0.2c-0.4-0.4,0.8,0.1,0.8-0.1c0.1,0.1,0.4,0.1,0.1,0.2
		c1-0.1,1.3,0.1,1.9-0.1c0.1,0.1-0.2,0.1-0.1,0.1s0.2-0.1,0.4,0c0.1,0.1-0.1,0.1-0.2,0.1c1,0,1-0.2,1.1-0.5c0.4,0.1,0.7,0.1,1.1-0.1
		c0.1,0.1,0.5,0.1-0.1,0.2c0.4,0,1.9,0.1,2-0.1c0.1,0,0.5,0,0.5,0c0.7,0,0.7,0,1.4,0h-0.2c0.2-0.2,0.6,0,1.2-0.1l0,0
		c1.3,0.1,0.6-0.1,1.8,0.1l-0.1-0.1c0.1-0.4,1.2,0.2,1.9,0.1l-0.2-0.1c0.4-0.1,1.2,0.4,1.6,0.5c0.1,0-0.1,0-0.2,0.1
		c1.1,0.2,0.1-0.2,1-0.2c0.1,0.1-0.2,0.2,0.4,0.2c0.2,0.1,1.6-0.4,2.3-0.1c-0.1-0.1-0.4-0.1,0.1-0.2c0.6,0,1.6,0.2,2,0
		c0.1,0,0.1,0,0.1,0.1c0.6,0,1.2-0.1,1.7-0.2c0.4,0.5,2.8-0.2,2.6,0.2h1.3l0,0c0.5,0,1.1,0,1.4-0.2c0.2,0,0,0.1,0,0.1
		c0.8,0.1,1.7,0,2.4-0.1l0.1,0.1c0.2-0.1,1.8,0.2,3,0l-0.1,0.1c1.3-0.1,3.4,0.4,3.8-0.1l1-0.1c-1.2,0,0.1-0.2-0.4-0.4
		c0.5,0,1.2,0.1,0.6,0.2h-0.1c-0.2,0.2,1.4,0.1,1.4,0.2c2.3,0,4.6,0.1,6.7,0.1l-0.2-0.2h0.7c0.2,0,0.2,0.1-0.2,0.1
		c0.2,0.1,1-0.1,1-0.1c1.1,0.1-0.5,0.2-0.1,0.2h0.5h-0.1c0.4-0.1,0.7-0.2,1.1-0.1c0.4,0,0.2,0.1,0.4,0.1c0.1,0,0.1,0,0.2,0h1
		l-0.4-0.1c0.5-0.1,1,0,0.5-0.2c0.6,0.2,3.6,0.1,4,0.2c0.6-0.1,1.2-0.1,1.9-0.1c-0.1,0-0.2-0.2,0.4-0.2c-0.2,0.4,1.1,0.1,1.7,0.5
		c-0.5-0.2,1.8,0,1.1-0.4c0.5,0,0,0.1,0.5,0.2c1.2-0.1,2.8,0.1,4.3,0c0,0-0.2-0.1,0.1-0.2l0.8,0.2c0.4,0,0.2-0.4,0.8-0.1
		c-0.1,0-0.2-0.1,0-0.1c3,0.2,6.1-0.2,9.2,0.2c-0.4-0.1-0.1-0.1,0.1-0.1c-0.2,0,0-0.1,0-0.2l1.3,0.2c0.2-0.2,1.3,0,1.4-0.2h-0.4
		c0.5-0.2-0.7-0.5-0.7-0.8c-0.6,0.2-1.6-0.4-2.5,0c-0.2,0,0.2-0.1,0.1-0.1c-0.4,0.1-0.7,0.1-1.1,0.1h0.1c-1.3,0-2.6-0.1-4.1-0.1
		l0.1,0.1c-0.2,0-0.5,0-0.6-0.1c-0.5,0.2,1.1,0,0.7,0.2c-0.5-0.2-2.6,0-3-0.4c-0.6,0,0.1,0.1-0.4,0.1l-0.1-0.1l-0.1,0.1
		c-0.4,0-0.6-0.1-0.6-0.2c0.1,0,0.2,0,0.4,0c-0.5,0-1.1,0-1.6,0h0.6c-1.6,0.1-3.6,0-5,0.1l0.1,0.1c-1.2,0.1-1-0.1-2.3,0l0,0
		c-0.4,0.1-0.6,0.1-1,0.1c0.4-0.1-0.6-0.1-0.1-0.2c-1.3,0.1-0.6,0.1-1.4,0.4l-0.2-0.1c-0.2,0.1-0.6,0.2-1,0.2
		c0.5-0.1-0.5-0.1,0.1-0.2c-1.3-0.2-2,0.2-2.6-0.1c-0.6,0.4,1.2,0.1,0.8,0.2c0.2,0.1-0.5,0.2-1,0.2s-0.7-0.4-1.8-0.4
		c0.1,0,0.1,0,0.2,0c-0.4-0.1-0.8,0.1-1.3,0c-0.2,0.2-0.7,0-0.7,0.2h1c-0.6,0.1-1.1,0.4-2,0.2c0.1-0.1,0.4-0.1,0.5-0.1
		c-0.2-0.1-0.5,0-0.8,0c0.1-0.2,1.2,0,1.8-0.2c-0.2-0.1-1.2,0.1-0.8-0.1c-0.5,0.4-1.1,0-1.8,0.2v-0.1c-0.2,0-0.4,0.1-0.6,0.1
		l0.4-0.2c-0.6,0.1-1.2-0.1-1.7,0c1.2,0,0.2,0.1,0.7,0.2c-1.4,0.2-0.8-0.4-2.5-0.4c0.2,0,0.8,0.1,0.5,0.1s-0.6-0.1-1-0.1
		c-1.1,0,0.1,0.1-0.2,0.2c-0.4-0.1-0.5,0.1-1.1,0.1v-0.4c-1.2-0.1-0.4,0.4-1.4,0.2l0.4-0.2h-0.6l0.1-0.1c-0.5,0.1-1,0.1-1.4,0
		c0.1,0.1-0.1,0.2-0.6,0.2c-0.4-0.1,0.2-0.1-0.6-0.1c0.1-0.1,0.4-0.2,0.7-0.1c0,0,0.1-0.1,0.2-0.1c-0.5,0-0.8,0-1.3,0
		c0.1,0,0.2,0,0.2,0l-1.1,0.2c-0.1,0,0-0.1,0.1-0.1c-0.2,0-0.5,0.1-0.7,0.1c0.1-0.1,0.1-0.2,0.6-0.2l-1.1,0.1
		c-0.1,0-0.6-0.1-0.4-0.1c-0.6-0.1-1.4,0.2-2.3,0.1c-0.1,0-0.2,0-0.2,0c-0.7-0.1-1.6-0.1-2.3,0l-0.5-0.2c-0.7,0,0.7,0.2-0.5,0.4
		c-0.8,0.1-0.2-0.1-0.6-0.2c-0.6,0.2-1.2,0.2-1.9,0.1C183,48.1,183.2,48.1,183.4,48.1z M174.9,48.2c0.1,0,0.5-0.1,0.6,0
		C175.3,48.3,175.2,48.2,174.9,48.2L174.9,48.2z M161.8,48.5c0.1,0,0.4,0,0.5,0C162.2,48.5,161.9,48.5,161.8,48.5L161.8,48.5z
		 M125.4,49.5L125.4,49.5C125.8,49.6,125.7,49.5,125.4,49.5z M124.7,49.5C124.6,49.5,124.6,49.5,124.7,49.5c0.1,0,0.2,0,0.5,0.1
		C125.1,49.5,124.9,49.4,124.7,49.5z M207.5,49.4h-0.1C207.7,49.3,207.6,49.4,207.5,49.4z"/>
	<path class="st1" d="M163.3,48.3l0.1,0.1C163.5,48.4,163.5,48.3,163.3,48.3z"/>
	<path class="st0" d="M188.8,47.8L188.8,47.8L188.8,47.8z"/>
	<path class="st0" d="M136.6,48.2c0.1,0,0.2,0,0.2,0.1C137,48.3,136.8,48.2,136.6,48.2z"/>
	<path class="st0" d="M120.6,50.7h0.5C121,50.7,120.7,50.6,120.6,50.7C120.6,50.6,120.7,50.7,120.6,50.7z"/>
	<path class="st0" d="M116.3,49.1c-0.1,0-0.1,0-0.2,0v0.1C116.4,49.3,116.7,49.1,116.3,49.1z"/>
	<path class="st0" d="M120.1,49.9c0-0.2-0.4-0.1-0.7-0.1l0,0C119.4,50,119.8,50,120.1,49.9z"/>
	<path class="st0" d="M119.3,49.7c-0.1,0-0.2,0-0.4,0C119.1,49.9,119.2,49.7,119.3,49.7z"/>
	<path class="st0" d="M123.7,50.3c-0.1,0-0.1,0.2-0.2,0.2C123.4,50.8,124.6,50.2,123.7,50.3z"/>
	<polygon class="st0" points="119.9,49.1 120,49.4 120.1,49.3 	"/>
	<path class="st0" d="M122.5,49.4h-0.6c0,0-0.1,0-0.1,0.1C122.2,49.4,122.7,49.4,122.5,49.4z"/>
	<path class="st0" d="M121.8,49.4c-0.1,0-0.2,0-0.5,0C121.6,49.4,121.7,49.4,121.8,49.4z"/>
	<polygon class="st0" points="120.6,49.1 120.7,49.1 121.1,49.1 	"/>
	<path class="st0" d="M128.5,49.4l0.6-0.1c0.1-0.1-0.1-0.1-0.4-0.1C128.5,49.3,128.4,49.3,128.5,49.4z"/>
	<path class="st0" d="M126.7,48.7c0.1,0,0.2,0.1,0.2,0.2v-0.4L126.7,48.7z"/>
	<path class="st0" d="M128.4,48.7c0-0.1,0.8-0.2,0.1-0.2C128.5,48.4,127.9,48.5,128.4,48.7z"/>
	<polygon class="st0" points="137.6,49 137.4,49 137.4,49.5 	"/>
	<path class="st0" d="M145.6,47.8c-0.7-0.1-0.2,0.4-0.8,0.1c-0.1,0.1,0.5,0.1,0.4,0.2C145.5,48.1,145.7,48.2,145.6,47.8z"/>
	<path class="st0" d="M145.1,48.2l-0.2,0.1C145,48.3,145,48.2,145.1,48.2z"/>
	<polygon class="st1" points="235.6,50.3 235.9,50.5 235.7,50.3 	"/>
	<path class="st1" d="M236.4,50l0.1,0.4l0.2-0.2C236.7,50.1,236.5,50.1,236.4,50z"/>
	<path class="st0" d="M173.6,47.3L173.6,47.3c0.1,0.1,0.1,0.2,0.4,0.2L173.6,47.3z"/>
	<polygon class="st0" points="179.8,47.6 179.7,47.6 180,47.9 	"/>
	<path class="st0" d="M185.1,47.2c-0.2,0-0.5,0-0.7,0C184.9,47.2,185.1,47.6,185.1,47.2z"/>
</g>
</svg>
