<?xml version="1.0" encoding="utf-8"?>
<!-- Generator: Adobe Illustrator 25.2.0, SVG Export Plug-In . SVG Version: 6.00 Build 0)  -->
<svg version="1.1" id="Capa_1" xmlns="http://www.w3.org/2000/svg" xmlns:xlink="http://www.w3.org/1999/xlink" x="0px" y="0px"
	 viewBox="0 0 375 373" style="enable-background:new 0 0 375 373;" xml:space="preserve">
<style type="text/css">
	.st0{opacity:0.75;}
	.st1{fill:none;stroke:#FFFFFF;stroke-miterlimit:10;}
</style>
<g class="st0">
	<path class="st1" d="M4.9,255c2-4.5,3.4-9.5,6.1-13.4c6.2-9,15.4-12.6,26.2-12.5c8.8,0,17.6,0.1,26.4,0c4.6-0.1,7.9,1.3,8.5,6.9
		c0.4,3.4,3.1,5.4,6.2,5.2c3.2-0.2,5.5-2.5,5.7-6.2c0.2-3.6,0-7.1,0.1-10.7c0-4,1.6-6.3,4.6-7c3.5-0.8,6.1,0.8,7.8,4.6
		c3.1,7.2,7.5,8.8,14.4,5.3c5.3-2.6,9.6-0.1,9.7,5.8c0.1,4.2,0,8.3,0,12.5c0.1,5.1,2.4,8,6.2,8c3.7-0.1,5.9-2.9,5.9-7.8
		c0-9.3-0.2-18.6,0.2-27.8c0.1-2.1,1.7-4.7,3.5-6c1.3-0.9,4.1-0.4,5.9,0.4c1.2,0.5,2,2.5,2.6,3.9c0.6,1.6,0.6,3.5,1.2,5.2
		c2.2,6.1,8.9,9.2,15.1,7.2c5.9-2,9.4-8.7,7.7-14.6c-1.8-6.3-8-10-14.4-8.6c-0.8,0.2-1.6,0.4-2.4,0.6c-3.6,1.2-6.8-1.5-7.6-4.1
		c-0.9-3.1,0.8-6.2,4.2-7.6c10.6-4.3,23.6,0.3,29.4,10.1c2.7,4.5,3.7,9.5,3.7,14.6c0,37.2,0.1,74.4,0,111.6
		c0,16.1-8.5,27.5-23.5,31.6c-2.9,0.8-6.1,1.1-9.1,1.1c-18.9,0.1-37.8,0.1-56.7,0c-16.3-0.1-28.2-9.1-31.8-24.2
		c-0.5-1.9-0.6-3.9-0.9-6.3c-7.6,0-15.2,0.4-22.7-0.1c-4.9-0.3-10-1.2-14.4-3.1c-8.9-3.8-14.2-11.1-16.7-20.5
		c-0.2-0.7-0.5-1.3-0.7-1.9C4.9,289.7,4.9,272.4,4.9,255z M95.8,239.8c0,0.1-0.2,0.3-0.3,0.7c-2.5,7.7-7.9,12.2-15.8,13
		c-8.1,0.8-14.1-2.9-18.2-10c-0.6-1-2.3-1.8-3.6-1.9c-7.1-0.2-14.3-0.1-21.4-0.1c-11.4,0-19.2,7.3-19.4,18.7
		c-0.3,13.8-0.2,27.6,0,41.4c0.1,9.1,5.3,16,13.4,18c2.8,0.7,5.9,0.8,8.8,0.8c8.4,0.1,16.9,0,25.3,0.1c5.1,0.1,7.2,2.4,7.3,7.5
		c0,1.1,0,2.1,0,3.2c0.1,12,7.5,19.5,19.6,19.5c19.4,0,38.8,0,58.1,0c1.9,0,3.8-0.1,5.6-0.5c8.7-2.3,13.7-8.9,13.8-18.4
		c0-30.1,0-60.2,0-90.2c0-0.9-0.1-1.8-0.2-2.5c-4,0.8-7.9,2.2-11.8,2.1c-4,0-8-1.4-12.3-2.2c0,3,0.2,6.1,0,9.2
		c-0.7,10.4-8.6,17.7-18.8,17.4c-9.9-0.2-17.5-8.3-17.7-18.6c0-1.9,0-3.7,0-5.1C103.8,241.2,99.9,240.5,95.8,239.8z"/>
	<path class="st1" d="M279,131.6c3.7,0,7.2,0,10.6,0c4.7,0.1,7.6,2.6,7.5,6.3c-0.1,3.6-2.8,6-7.4,6c-18.9,0.1-37.8,0.1-56.7,0
		c-8.8,0-16.4,2.3-22,9.5c-3.1,3.9-5,8.4-5,13.4c-0.1,8.4,0,16.8,0,25.6c1.6,0,2.9,0,4.2,0c13.8,0,27.6,0,41.4,0
		c1.6,0,3.7-0.2,4.8,0.7c1.7,1.3,3.4,3.3,4,5.3c0.7,2.6-0.9,4.9-3.5,5.8c-1.5,0.6-3.2,0.7-4.9,0.7c-13.9,0.1-27.8,0-41.7,0
		c-1.3,0-2.6,0-4,0c0,28.5,0,56.5,0,85c1.4,0,2.7,0,4,0c22,0,44,0,66,0c1.2,0,2.4-0.1,3.6,0.1c3.1,0.5,5.4,3.2,5.3,6.2
		c-0.1,3.1-2.5,5.5-5.7,5.8c-1.3,0.1-2.6,0.1-3.9,0.1c-21.6,0-43.3,0-64.9,0c-1.3,0-2.6,0-4.2,0c0,16.2,0,32.1,0,48.5
		c1.3,0,2.5,0,3.8,0c13.9,0,27.8,0,41.7,0c1.6,0,3.4,0.1,4.9,0.7c2.6,0.9,3.9,3.1,3.8,5.8c-0.1,2.7-1.5,4.8-4.2,5.5
		c-1.5,0.4-3,0.5-4.6,0.5c-16.4,0-32.8,0-49.2,0c-6.9,0-9-2.2-9-9.2c0-61.2,0-122.4,0-183.7c0-21.5,13.9-36.6,35.2-38.7
		c0.3,0,0.7-0.2,1.2-0.3c0-19.9,0-39.9,0-60c-1.1-0.3-2.4-0.6-3.6-1c-4.7-1.6-8-4.9-8.1-9.8c-0.3-13.3-0.4-26.6,0-39.9
		c0.2-6.2,5.3-10.5,12.2-10.6c16-0.2,32.1-0.3,48.1,0c7.9,0.1,12.4,5.2,12.4,13.1c0.1,11.3,0,22.6,0,33.9c0,8.5-3.4,12.6-12,14.3
		C279,91.1,279,111.2,279,131.6z M278.6,58.5c0-12.2,0-24.1,0-35.9c-16.2,0-32.2,0-48.1,0c0,12.1,0,23.9,0,35.9
		C246.6,58.5,262.5,58.5,278.6,58.5z M266.4,131.5c0-20.3,0-40.3,0-60.3c-8,0-15.8,0-23.8,0c0,20.2,0,40.2,0,60.3
		C250.5,131.5,258.3,131.5,266.4,131.5z"/>
	<path class="st1" d="M321.5,168.1c13.3,0,26.6,0,39.9,0c6.7,0,8.7,2,8.7,8.7c0,17.1,0.1,34.2,0,51.3c-0.2,20.3-9.4,35.4-27.5,44.7
		c-2.1,1.1-2.9,2.3-2.8,4.7c0.1,12.6,0,25.2,0.1,37.8c0,1.8,0.8,3.9,2,5.4c8.2,10.1,16.7,20.1,25,30.2c0.8,1,1.7,2,2.4,3.1
		c2,3.5,0.4,7.7-3.5,8.8c-1.5,0.4-3,0.5-4.6,0.5c-26.5,0-53,0-79.5,0c-0.7,0-1.4,0-2.1,0c-2.8-0.2-5.1-1.1-6.3-3.8
		c-1.2-2.7-0.3-5.1,1.5-7.2c7.1-8.5,13.8-17.3,21.3-25.4c5.3-5.7,7.7-11.5,7.2-19.3c-0.7-10.1-0.2-20.2-0.1-30.3
		c0-2-0.4-3.2-2.4-4.1c-18.9-9.4-27.8-25.1-28.2-45.8c-0.3-16.9-0.1-33.7,0-50.6c0-6.3,2.3-8.5,8.6-8.6
		C294.6,168.1,308,168.1,321.5,168.1z M285.6,223.2c-2.8,13.2,4.3,29,16,36.4c13,8.1,29.2,7.8,40.8-0.7c12.1-8.9,17.3-23.5,15-35.7
		C333.4,223.2,309.5,223.2,285.6,223.2z M357.8,180.9c-24.3,0-48.4,0-72.5,0c0,10,0,19.8,0,29.7c24.3,0,48.3,0,72.5,0
		C357.8,200.7,357.8,191,357.8,180.9z M350.3,350.5c-0.8-1.1-1.3-1.9-1.9-2.5c-6.1-7.3-12.3-14.5-18.2-22c-1.6-2.1-2.8-5.1-2.8-7.7
		c-0.3-12.2-0.1-24.5-0.1-36.7c0-1.2,0-2.5,0-3.7c-4.2,0-7.9,0-12,0c0,1.4,0,2.7,0,3.9c0,12.1-0.1,24.3,0,36.4
		c0,3.1-0.8,5.7-2.9,8.1c-4.4,5-8.6,10.2-12.8,15.3c-2.4,2.9-4.7,5.7-7.3,8.9C311.9,350.5,330.9,350.5,350.3,350.5z"/>
	<path class="st1" d="M84.9,187.3c0.7-1.3,1.2-2.3,1.7-3.3c5-10.1,13.2-15.6,24.3-15.8c11-0.2,19.3,5,24.6,14.7
		c2.1,3.9,1.3,7.4-2,9.2c-3.2,1.7-6.4,0.6-8.6-3.1c-4.1-6.7-9.4-9.5-16.3-8.2c-6.6,1.3-10.6,5.4-12,12.1c-0.8,3.7-2.9,5.9-6.9,5.8
		c-0.8,0-1.7,0.2-2.5,0.4c-5,1.7-9,1.1-12.3-3.7c-2-3-5.7-3.2-9.1-2.1c-3.4,1.1-6,4.6-6,8.1c0,3.6,1.5,6.5,4.8,8.1
		c1.2,0.6,2.4,0.9,3.6,1.5c3.2,1.6,4.5,4.9,3.2,8.1c-1.2,3-4.3,4.5-7.6,3.6c-10.1-2.7-17.3-12.4-16.5-22.2
		c0.9-11.2,9-19.5,20.2-20.2c5.4-0.4,10.3,1.4,14.6,4.8C82.9,185.8,83.7,186.4,84.9,187.3z"/>
	<path class="st1" d="M252.4,216.8c5.8-0.8,9.2,3.6,7.8,8.2c-1.1,3.3-3.9,4.1-7,4.4c-7.2,0.7-12.6,4.3-15.3,11.1
		c-2.8,6.8-1.8,13.3,3.1,19c3.4,4,8,5.6,13.2,6.3c4.6,0.6,6.8,3,6.4,6.8c-0.4,3.6-3,5.5-7.4,5.4c-15-0.5-26.7-11.9-28.9-27.8
		c-1.8-13.2,7.6-27.3,21.1-31.4C247.5,217.8,249.9,217.4,252.4,216.8z"/>
	<path class="st1" d="M41.5,265.7c0,10.3,0,20,0,29.9c6,0,11.8,0,18.1,0c0-3.7-0.1-7.3,0-10.8c0.1-4.5,2.5-7.1,6.3-7
		c3.6,0.1,5.9,2.8,5.9,7c0.1,5.5,0.1,10.9,0,16.4c-0.1,4.6-2.4,7-7.1,7.1c-9.5,0.1-19,0.1-28.5,0c-4.8-0.1-7.1-2.6-7.1-7.4
		c0-13.4,0-26.9,0-40.3c0-4.9,2.3-7.1,7.3-7.1c9.4-0.1,18.8,0,28.2,0c4.5,0,7.3,2.4,7.3,6c0,3.6-2.8,6.1-7.2,6.1
		C57,265.7,49.4,265.7,41.5,265.7z"/>
	<path class="st1" d="M102.4,296.2c0,9.6,0,19.3,0,28.9c0,2.8-0.6,5.8-3.6,6.7c-1.9,0.6-4.8,0.5-6.2-0.6c-1.6-1.3-2.7-4-2.7-6.1
		c-0.2-19.4-0.2-38.7-0.1-58.1c0-4.6,2.7-7.6,6.4-7.5c3.6,0.1,6,3,6.1,7.4C102.5,276.7,102.4,286.4,102.4,296.2z"/>
	<path class="st1" d="M151.1,302.3c0,7.8,0,15.7,0,23.5c0,2.8-1,5.4-3.8,6.2c-1.8,0.5-4.5,0.3-5.9-0.7c-1.4-1.1-2.5-3.5-2.6-5.4
		c-0.2-15.8-0.2-31.6-0.1-47.4c0-4.1,2.8-6.9,6.3-6.8c3.5,0.1,6,2.9,6,7.1C151.1,286.6,151.1,294.4,151.1,302.3z"/>
	<path class="st1" d="M126.8,302.3c0,3.6,0.1,7.1,0,10.7c-0.1,4.6-2.6,7.6-6.3,7.5c-3.6-0.1-6-2.9-6.1-7.4c-0.1-7.4-0.1-14.7,0-22.1
		c0.1-4.4,2.7-7.2,6.3-7.1c3.6,0.1,6,2.9,6.1,7.3c0,0.1,0,0.2,0,0.4C126.8,295.2,126.8,298.7,126.8,302.3z"/>
</g>
</svg>
