<?xml version="1.0" encoding="utf-8"?>
<!-- Generator: Adobe Illustrator 25.2.0, SVG Export Plug-In . SVG Version: 6.00 Build 0)  -->
<svg version="1.1" id="Capa_1" xmlns="http://www.w3.org/2000/svg" xmlns:xlink="http://www.w3.org/1999/xlink" x="0px" y="0px"
	 viewBox="0 0 375 373" style="enable-background:new 0 0 375 373;" xml:space="preserve">
<style type="text/css">
	.st0{opacity:0.75;}
	.st1{fill:none;stroke:#FFFFFF;stroke-miterlimit:10;}
</style>
<g class="st0">
	<path class="st1" d="M157.6,368.5c-25.6,0-51.3,0-76.9,0c-0.4-0.2-0.8-0.5-1.3-0.6c-21.5-4.1-35.8-18.5-39.4-39.9
		c-2.9-17.4-5.6-34.8-8.3-52.3c-3.2-20.6-6.4-41.2-9.5-61.8c-0.3-2.2-1.1-3.8-3.3-5c-11-6.1-16.2-18.5-13-30.7
		c3-11.7,13.9-19.9,26.3-20c2.3,0,4.6,0,7,0c0-14.2,0-27.9,0-41.5c0-1.9,0-3.8,0.4-5.7C42.6,98,50.5,89.8,63.5,86.5
		c5.3-1.4,9.1-4.4,11.4-9.7c-3.4-1.7-4.5-4.6-4.5-8.2c0-9.4,0-18.8,0.1-28.1c0-1.7,0.2-4.1,1.3-5c3.2-2.7,2.7-6,2.7-9.4
		c0-3-0.1-5.9,0-8.9c0.3-8,6.1-13.5,14-13.5c10,0,19.9,0,29.9,0c8.3,0,14,5.6,14.2,14c0.1,4.2,0,8.3,0.1,12.5c0,1.1,0.2,2.6,0.9,3.2
		c2.7,2.2,3.1,5.2,3.1,8.3c0,8.4-0.1,16.9,0,25.3c0.1,4.1-0.5,7.8-4.5,9.9c2.3,5.1,6,8.3,11.2,9.4c14.8,3.2,25.1,16.8,24.4,31.9
		c-0.5,11.7-0.1,23.5-0.1,35.3c0,1.5,0,3,0,4.6c7.6,0,14.8,0,22.1,0c0.2-1.4,0.6-2.7,0.7-4c2.1-21.6,7-42.5,14.6-62.7
		c3.4-9,1.2-18,2.2-27.3c-3,0.2-5.5-0.1-7.6,0.6c-6.1,2.1-12.2,4.3-18.1,7c-5.7,2.6-11,0-11-6.2c0-6.2-0.1-12.4,0.9-18.4
		c3.8-24,26.4-43.2,50.7-43.2c31.9-0.1,63.9,0,95.8,0c8,0,13.6,5.6,13.6,13.6c0,6.1,0,12.1,0,18.2c0,9.3-5.1,14.6-14.4,14.6
		c-9.1,0.1-18.3,0.3-27.4-0.1c-4.8-0.2-8.3,1.2-11.6,4.6c-4.1,4.1-4.4,4.2-2.2,9.7c0.4,1.1,0.9,2.2,1.5,3.2
		c4.2,7.1,10.6,10.6,18.7,11c4.3,0.2,7.1,3.2,7.1,7.3c0,4.1-3,7-7.3,6.9c-2.2,0-4.6,0.1-6.7-0.7c-5.8-2.1-11.5-4.6-17.4-7
		c0.3,2.8,0.4,6.2,1.1,9.5c3.2,14.2,12.2,23,25.6,28c13.8,5.2,23.4,15,29.2,28.5c1,2.3,1.3,5.8,3.1,6.9c2,1.2,5.3,0.4,8,0.4
		c17.5,0,25.1,5.4,31,21.9c0,0.1,0.2,0.2,0.3,0.2c0,3.3,0,6.6,0,10c-0.3,0.6-0.6,1.2-0.8,1.9c-2.1,7.3-6.3,13-12.9,16.6
		c-2.3,1.2-3.1,2.8-3.4,5.2c-2.1,14.5-4.4,29-6.6,43.5c-3.5,22.4-7.1,44.9-10.4,67.3c-2.8,19.1-12.4,33-30.5,40.4
		c-3.5,1.4-7.2,2.1-10.8,3.1c-25.6,0-51.3,0-76.9,0c-1.6-1.8-4-3.3-4.7-5.4c-1.6-4.7,2.2-8.8,7.7-8.8c22.3,0,44.6,0.1,66.9,0
		c17.7-0.1,30.7-11.4,33.5-28.7c2-12.5,3.9-25,5.8-37.6c3.9-25,7.8-50.1,11.8-75.3c-26.6,0-53,0-79.7,0c0,7.5,0.1,14.8,0,22.2
		c-0.2,11.5-8.8,21.7-20.2,23.1c-4.5,0.6-9.2-0.2-14-0.4c0,13.2,0,26.8,0,40.5c0,9.9-6.4,18.4-16,20.5c-4.1,0.9-8.6,0.1-13.3,0.1
		c-3.6,9.4-10.5,15.4-21.2,15.1c-10.3-0.2-16.8-6.1-20.3-15.6c-0.9,0.2-1.7,0.3-2.5,0.5c-11.7,2.8-23.2-4-26-15.6
		c-0.8-3.3-0.6-6.8-0.7-10.3c-0.1-4,0-7.9,0-11.9c-0.9,0-1.3-0.1-1.6-0.1c-16.6,2.2-26.7-6.7-26.7-23.4c0-13.7,0-27.3,0-41
		c0-1.3,0-2.5,0-3.9c-20.1,0-39.8,0-59.6,0c1.9,12.6,3.8,25,5.7,37.4c3.7,24.1,7.7,48.2,11.2,72.3c2.9,20.5,15.6,31.9,36.3,31.9
		c21.5,0,43,0,64.5,0c3.1,0,5.6,0.7,7.3,3.4C164,361.5,162.6,365.3,157.6,368.5z M237.1,172.8c-42.4,0-84.4,0-126.3,0
		c-0.1,0.5-0.2,0.7-0.2,0.9c0,28.6,0,57.2,0,85.8c0,4.4,3,7.4,7,7.4c4.1,0,6.9-2.9,7-7.3c0.1-7.4,0-14.7,0.1-22.1
		c0-1.6,0.1-3.4,0.7-4.9c1.2-3.1,4.7-4.9,7.8-4.3c3.6,0.7,6,3.6,6,7.7c0,20.3,0,40.6,0,60.9c0,4.7,2.7,7.9,6.7,8.1
		c4.1,0.2,7.1-3.1,7.4-7.9c0.1-0.9,0-1.9,0-2.8c0-18.5,0-37,0-55.6c0-1.3,0-2.6,0.1-3.9c0.5-4.1,4-6.7,8-6.2c4,0.6,6.2,3.5,6.2,8.5
		c0,24.2,0,48.4,0,72.7c0,1.1-0.1,2.1,0,3.2c0.3,3.4,2.9,6,6.2,6.3c3.6,0.3,6.6-1.6,7.5-5.1c0.4-1.6,0.4-3.3,0.4-4.9
		c0-23.6,0-47.2,0-70.9c0-1.9,0-3.9,0.6-5.6c1.1-3.1,4.4-4.7,7.8-4.1c3.7,0.7,5.9,3.4,5.9,7.7c0,14.6,0,29.2,0,43.8
		c0,5.9-0.1,11.9,0,17.8c0.1,3.7,2.9,6.6,6.4,6.9c3.4,0.4,6.7-2.1,7.4-5.8c0.3-1.5,0.3-3.1,0.3-4.6c0-28.7,0-57.5,0-86.2
		c0-5.2,2.7-8.4,7.1-8.4c4.4,0,7.2,3.2,7.2,8.3c0,8.5-0.1,17.1,0,25.6c0.1,6.5,5.3,10.8,11.6,9.8c4.8-0.7,8.1-5,8.2-10.9
		c0.1-11.3,0-22.6,0-33.8c0-0.8-0.1-1.7-0.3-2.5C241.8,188.7,239.5,180.8,237.1,172.8z M53.7,158.1c33.4,0,66.5,0,99.6,0
		c0-14.4,0.2-28.5-0.1-42.6c-0.2-7.5-5.3-13.1-12.6-14.9c-11.5-2.9-19.2-9.8-22.9-21.1c-0.6-1.7-1.4-2.4-3.2-2.4
		c-7.4,0.1-14.7,0.1-22.1,0c-1.9,0-2.7,0.6-3.2,2.4c-3.7,11.3-11.4,18.2-22.9,21.1c-7.2,1.8-12.3,7.3-12.5,14.6
		C53.4,129.4,53.7,143.6,53.7,158.1z M314.9,158.1c-4.1-10.4-11-17.6-20.9-21.9c-2.1-0.9-4.2-1.5-6.3-2.5
		c-16.7-7.9-26.4-21.3-29.9-39.5c-1.1-0.1-2.1-0.1-3.2-0.1c-10.7,0-21.4,0.1-32-0.1c-2.5,0-3.8,0.6-4.5,3.2
		c-3.2,11.6-6.9,23.1-9.7,34.8c-2,8.5-2.9,17.2-4.3,26.1C241.2,158.1,277.7,158.1,314.9,158.1z M288.6,18.1
		c-22.8,0-45.2-0.3-67.6,0.1c-11,0.2-20.3,5.4-27.4,13.9c-5.1,6.1-8.1,13.1-8.7,21.5c9.3-3.7,18.6-4.2,28-4.1
		c13.9,0.1,27.8-0.2,41.6,0.1c5.2,0.1,9.3-1,12.9-4.9c5.4-5.9,11.5-10.7,20.3-9c0.2,0,0.4-0.2,0.7-0.4
		C288.6,29.7,288.6,24.1,288.6,18.1z M252.2,172.7c2.4,8.5,4.8,16.9,7.3,25.5c1,0,2.3,0,3.6,0c17.2,0,34.4,0,51.6,0
		c9.1,0,18.3,0.1,27.4,0c9.5-0.1,15.6-8.4,12.7-17c-1.8-5.4-6.8-8.7-13.3-8.7c-28.7,0-57.4,0-86.2,0
		C254.4,172.6,253.5,172.6,252.2,172.7z M96.1,172.6c-21.8,0-43.2-0.3-64.7,0.1c-8.3,0.1-13.6,8.4-11.3,16.2
		c1.7,5.7,6.6,9.2,13.2,9.3c19.8,0,39.6,0,59.5,0c1,0,2.1-0.1,3.3-0.2C96.1,189.6,96.1,181.3,96.1,172.6z M122,46.7
		c-12.5,0-24.7,0-36.8,0c0,5.5,0,10.7,0,16c12.4,0,24.5,0,36.8,0C122,57.3,122,52.1,122,46.7z M257.2,64.4c-12,0-23.7,0-35.4,0
		c0,5.1,0,9.9,0,14.9c11.9,0,23.5,0,35.4,0C257.2,74.3,257.2,69.5,257.2,64.4z M117.8,18.2c-9.6,0-19,0-28.6,0c0,4.7,0,9.3,0,13.8
		c9.7,0,19.1,0,28.6,0C117.8,27.3,117.8,22.8,117.8,18.2z M303.5,18.1c0,5.9,0,11.6,0,17.5c4.6,0,9.1,0,13.5,0c0-6,0-11.7,0-17.5
		C312.4,18.1,308,18.1,303.5,18.1z"/>
	<path class="st1" d="M185.4,368.5c-1.6-2-4-3.8-4.8-6.1c-1.1-3.4,1.5-6.9,4.8-7.9c3.3-1,6.8,0.5,8.4,3.5c1.7,3.2,0.8,6.9-2.1,9.1
		c-0.7,0.5-1.4,0.9-2.1,1.3C188.3,368.5,186.8,368.5,185.4,368.5z"/>
</g>
</svg>
