<?xml version="1.0" encoding="utf-8"?>
<!-- Generator: Adobe Illustrator 25.2.0, SVG Export Plug-In . SVG Version: 6.00 Build 0)  -->
<svg version="1.1" id="Capa_1" xmlns="http://www.w3.org/2000/svg" xmlns:xlink="http://www.w3.org/1999/xlink" x="0px" y="0px"
	 viewBox="0 0 375 373" style="enable-background:new 0 0 375 373;" xml:space="preserve">
<style type="text/css">
	.st0{opacity:0.75;fill:none;stroke:#FFFFFF;stroke-miterlimit:10;}
</style>
<g>
	<path class="st0" d="M20.1,367.5c-0.4-0.2-0.7-0.6-1.1-0.7c-8.1-3.2-12.2-9.9-10.7-18.4c3.4-19.9,6.9-39.8,10.5-59.7
		c1.4-7.7,7.8-12.6,16.4-12.7c2.6,0,3.6-0.8,4.1-3.4c2.4-11.1,8.1-20.2,17-27.3c3.4-2.7,6.2-2.7,8.4-0.1c2.2,2.6,1.7,5.7-1.7,8.5
		c-6.9,5.6-11.4,12.7-13.4,21.8c46.1,0,91.9,0,137.7,0c-3-18-24.4-27.4-40.1-17.2c-3.9,2.5-6.7,2.6-10.5,0.1
		c-5.8-3.8-12.4-4.3-19-2.9c-3,0.6-5.4,0.4-7.9-1.6c-7.3-6-15.8-8.7-25.2-8.2c-0.7,0-1.4,0.1-2.1,0c-3-0.4-5.1-1.9-5.3-5.1
		c-0.2-3.2,1.7-5.6,4.7-5.5c6.4,0.3,12.8,1,19.1,2.1c3.1,0.5,6.1,2.3,9.5,3.7c0.3-6.6,0.6-13.2,0.8-19.7c0.4-13.1,0.8-26.1,1.3-39.2
		c0.1-3.3,2.6-5.4,5.4-5.3c2.9,0.1,5.1,2.4,5.2,5.6c0.1,1.3,0,2.6,0,3.9c-0.6,18.1-1.2,36.2-1.8,54.4c0,0.9,0,1.9,0,2.7
		c4.8,0.9,9.8,1.1,14.1,2.9c4.6,2,8.2,1.7,12.7-0.3c10.1-4.4,18.9-3.5,31.9,2.1c0.4-0.6,0.8-1.3,1.1-2c3.9-8.5,10.4-14.4,18.7-18.5
		c1.9-1,3.8-2.7,5-4.5c7.5-12,18-18.7,32.3-18.8c14.4-0.1,25.1,6.4,32.8,18.6c1.3,2,3.4,3.9,5.5,5c14.4,6.8,23.7,22.8,21.7,38
		c-2.3,17.1-14.8,30.5-31.5,33c-7.4,1.1-14.8,0.3-21.6-3.2c-4.3-2.3-8.3-2-12.8-0.1c-4.9,2-10.2,3.1-15.6,4.7
		c2.3,18.5,7.6,37.2,8.7,56.9c0.8,0,2,0,3.3,0c37.5,0,74.9,0,112.4,0c11.4,0,17-5.6,16.7-17c-1.3-40.8-2.7-81.7-4-122.5
		c-1-32.5-2-65-3.1-97.4c-0.1-2.5-0.8-5.1-1.8-7.4c-6-13.1-12.4-26.1-18.2-39.3c-1.9-4.3-2.9-9.2-3.1-13.9
		c-0.4-11.8-0.1-23.5-0.2-35.3c0-5.4-2.4-7.7-7.8-7.7c-53.9,0-107.9,0-161.8,0c-5.7,0-7.8,2.3-7.9,7.9c0,11.5,0.3,23.1-0.1,34.6
		c-0.2,4.8-1.2,9.8-3.2,14.2c-5.7,13.1-12.1,26-18,39c-1.2,2.6-1.9,5.6-2,8.4c-0.6,12.6-0.9,25.2-1.4,37.8c-0.1,3.7-2.3,6.2-5.4,6.2
		c-2.9,0-5.3-2.3-5.2-5.5c0.3-13.8,0.6-27.5,1.3-41.3c0.2-3.3,1.4-6.7,2.7-9.7c5.9-13.1,12.2-25.9,18-39c1.4-3.1,2.2-6.7,2.3-10.1
		c0.3-11.3,0.4-22.6,0-33.9c-0.4-13.1,9.5-19.4,19.2-19.4c53.8,0.3,107.7,0.2,161.5,0.2c11.6,0,18.4,6.7,18.4,18.4
		c0,11.4-0.2,22.9,0.1,34.3c0.1,3.6,1,7.5,2.4,10.8c5.7,12.8,11.9,25.3,17.6,38.1c1.7,3.9,3,8.3,3.1,12.5
		c1.1,27.5,1.9,55.1,2.8,82.6c1.1,34,2.2,68,3.3,102c0.4,12.5,0.8,25,1,37.4c0.2,12.5-6.6,21.5-18.6,25c-0.4,0.1-0.8,0.4-1.2,0.7
		C238.2,367.5,129.1,367.5,20.1,367.5z M115.8,356.9c29.8,0,59.6,0,89.4,0c6.9,0,8.7-2.2,7.4-8.9c-0.6-3.3-1.2-6.7-1.7-10.1
		c-2.7-15.3-5.3-30.5-8-45.8c-0.7-4.1-2.3-5.3-6.5-5.3c-53.6,0-107.2,0-160.8,0c-4.5,0-5.8,1-6.6,5.5c-3.3,18.5-6.5,37-9.7,55.5
		c-1.2,7.3,0.4,9,7.8,9C56.7,356.9,86.3,356.9,115.8,356.9z M213.5,289c4.2-1,8.5-1.3,12-3c8-4,15.5-3.8,23.6,0
		c13.3,6.2,28.8-0.1,34.9-13.5c6-13.3,0-29-13.5-34.9c-4.6-2-7.7-5-10.2-9.2c-10.3-18.1-35.8-18.1-46.1,0c-2.4,4.3-5.6,7.3-10.2,9.3
		c-6.9,2.9-11.7,8.2-14.2,15.3c-0.4,1.2-0.1,3.3,0.7,4.3c3.7,5,6.3,10.4,7.6,16.5c0.2,0.9,1.1,2.2,1.9,2.4
		C207,277.5,211,281.8,213.5,289z"/>
	<path class="st0" d="M194.2,167.5c0-3.5-0.4-7.1,0.1-10.6c1.4-9.1,8.9-15.5,17.7-15.6c9.2-0.1,17,6,18.1,15.4
		c0.8,7.4,0.7,15.1-0.2,22.5c-1.2,9.1-9.9,15.1-19.2,14.4c-8.7-0.6-16.1-8.3-16.6-17.3c-0.1-2.9,0-5.9,0-8.8
		C194.1,167.5,194.1,167.5,194.2,167.5z M219.6,167.5c0-2.8,0.2-5.7,0-8.5c-0.3-4-3.4-6.8-7.1-6.9c-3.6-0.1-7.1,2.5-7.3,6.3
		c-0.3,6.1-0.3,12.2,0,18.3c0.2,3.8,3.8,6.4,7.3,6.2c3.8-0.1,6.8-3,7.1-7C219.7,173.1,219.6,170.3,219.6,167.5z"/>
	<path class="st0" d="M153,195.1c0.1-11.6,6.3-19,14.9-20.6c8.6-1.6,17.3,2.8,20.2,11c2.2,6.4,3.9,13,5.2,19.7
		c1.6,8.4-3.5,16.5-11.6,19.5c-8.2,3-18.1,0.1-21.6-7.7C156.5,209.3,154.7,200.7,153,195.1z M182.7,206c-1.4-4.8-2.9-11-5-17.1
		c-1.2-3.4-5.4-4.8-8.9-3.6c-3.2,1.1-5.6,4.6-4.8,8.1c1.3,5.7,2.8,11.4,4.5,16.9c1.1,3.6,4.6,5.3,8.5,4.6
		C180.4,214.3,182.7,211.2,182.7,206z"/>
	<path class="st0" d="M280.9,205.1c1.8-5.7,3.6-14.3,7.1-22.1c3.6-8,13.7-10.8,21.9-7.6c8.1,3.2,13,11.6,11.2,20.1
		c-1.3,6.1-2.8,12.1-4.7,18c-2.7,8.4-11.4,13.6-19.6,12.2C287.5,224.1,281.1,216.9,280.9,205.1z M310.6,194.3c0.2-5.1-1.8-8.1-5-9
		c-3.4-1-7.6,0.3-8.7,3.5c-2,6.2-3.7,12.5-4.9,18.9c-0.6,3.2,2.1,6.3,5.1,7.1c3.5,0.9,7.4-0.4,8.6-3.8
		C307.8,205.1,309.3,199,310.6,194.3z"/>
	<path class="st0" d="M280.9,167.7c-0.3,3.7-0.2,7.5-0.8,11.2c-1.5,9.2-9.9,15.4-19.4,14.7c-8.9-0.6-16.4-8.5-16.6-17.6
		c-0.1-5.2,0-10.3,0-15.5c0-10.6,7.6-18.9,17.6-19.1c10.6-0.2,18.6,7.6,19,18.5c0.1,2.6,0,5.2,0,7.8
		C280.8,167.6,280.9,167.6,280.9,167.7z M269.7,167.8C269.7,167.8,269.7,167.8,269.7,167.8c0-2.7,0-5.4,0-8.1c0-0.2,0-0.5,0-0.7
		c-0.3-3.8-3-6.6-6.7-7c-3.4-0.4-7.4,2.1-7.7,5.7c-0.5,6.4-0.5,12.9,0,19.3c0.3,3.7,4.2,6.1,7.6,5.8c3.7-0.4,6.5-3.1,6.7-6.9
		C269.8,173.2,269.7,170.5,269.7,167.8z"/>
	<path class="st0" d="M209.2,45.9c-13.1,0-26.2,0.1-39.2-0.1c-2.1,0-4.7-1.1-6.1-2.6c-2.4-2.6-0.6-6.9,2.9-7.8
		c1.5-0.4,3-0.4,4.6-0.4c25.4,0,50.9,0,76.3,0c1.1,0,2.1,0,3.2,0.1c3.4,0.4,5.3,2.4,5.2,5.5c-0.1,3-2.2,5.1-5.5,5.2
		c-4.1,0.1-8.2,0-12.4,0C228.5,45.9,218.9,45.9,209.2,45.9z"/>
	<path class="st0" d="M305.1,327.2c5.4,0,10.8,0,16.2,0c3.5,0,5.8,2.2,5.8,5.3c0,3-2.3,5.3-5.8,5.3c-11.1,0-22.1,0-33.2,0
		c-3.5,0-5.8-2.3-5.9-5.3c0-3,2.4-5.3,5.8-5.3C293.8,327.2,299.5,327.2,305.1,327.2z"/>
	<path class="st0" d="M290.1,45.9c-5.1,0-10.1,0-15.2,0c-3.8,0-6.2-2.1-6.3-5.2c-0.1-3.4,2.1-5.6,6.2-5.6c10.2-0.1,20.4-0.1,30.7,0
		c3.8,0,6.2,2.3,6.2,5.3c0,3.2-2.6,5.4-6.5,5.5C300.2,45.9,295.1,45.9,290.1,45.9z"/>
	<path class="st0" d="M116,301.1c5-4.7,10.6-7.3,17.7-5.7c12.8,2.9,18.9,18.1,10.5,28.2c-6.9,8.3-15,15.6-22.8,23.1
		c-3.2,3-8,2.8-11.2-0.3c-7.4-7.2-14.9-14.4-21.9-22c-5.9-6.4-5.5-16.6,0.2-23.2c5.9-6.7,15.8-8.1,23.3-3.2
		C113.2,298.7,114.4,299.8,116,301.1z M115.8,337c6.6-6.6,13-12.8,19.2-19.2c2.8-2.9,2.6-7.5-0.2-10.1c-2.6-2.5-7-2.7-9.9-0.1
		c-1.8,1.5-3.3,3.3-5,4.9c-2.7,2.4-5.2,2.4-7.8,0.1c-1.6-1.4-3-3-4.5-4.4c-3.2-3-7.5-3.2-10.4-0.5c-3,2.9-3.1,7.3,0.1,10.7
		C103.3,324.5,109.5,330.6,115.8,337z"/>
</g>
</svg>
